VotoSerifGX-ExtendedLightDisplay.ufo
<glyph name="numbersign" format="2">
  <advance width="693"/>
  <unicode hex="0023"/>
  <outline>
    <contour>
      <point x="159" y="0" type="line"/>
      <point x="169" y="0" type="line"/>
      <point x="212" y="239" type="line"/>
      <point x="430" y="239" type="line"/>
      <point x="387" y="0" type="line"/>
      <point x="397" y="0" type="line"/>
      <point x="440" y="239" type="line"/>
      <point x="614" y="239" type="line"/>
      <point x="614" y="249" type="line"/>
      <point x="443" y="249" type="line"/>
      <point x="486" y="492" type="line"/>
      <point x="646" y="492" type="line"/>
      <point x="646" y="502" type="line"/>
      <point x="488" y="502" type="line"/>
      <point x="527" y="714" type="line"/>
      <point x="517" y="714" type="line"/>
      <point x="478" y="502" type="line"/>
      <point x="260" y="502" type="line"/>
      <point x="299" y="714" type="line"/>
      <point x="289" y="714" type="line"/>
      <point x="250" y="502" type="line"/>
      <point x="80" y="502" type="line"/>
      <point x="80" y="492" type="line"/>
      <point x="248" y="492" type="line"/>
      <point x="205" y="249" type="line"/>
      <point x="48" y="249" type="line"/>
      <point x="48" y="239" type="line"/>
      <point x="202" y="239" type="line"/>
    </contour>
    <contour>
      <point x="215" y="249" type="line"/>
      <point x="258" y="492" type="line"/>
      <point x="476" y="492" type="line"/>
      <point x="433" y="249" type="line"/>
    </contour>
  </outline>
</glyph>
<glyph name="period" format="2">
  <advance width="231"/>
  <unicode hex="002E"/>
  <outline>
    <contour>
      <point x="106" y="-4" type="curve" smooth="yes"/>
      <point x="114" y="-4"/>
      <point x="126" y="2"/>
      <point x="126" y="36" type="curve" smooth="yes"/>
      <point x="126" y="69"/>
      <point x="114" y="74"/>
      <point x="106" y="74" type="curve" smooth="yes"/>
      <point x="100" y="74"/>
      <point x="86" y="69"/>
      <point x="86" y="36" type="curve" smooth="yes"/>
      <point x="86" y="2"/>
      <point x="100" y="-4"/>
    </contour>
  </outline>
</glyph>
<glyph name="colon" format="2">
  <advance width="262"/>
  <unicode hex="003A"/>
  <outline>
    <contour>
      <point x="118" y="433" type="curve" smooth="yes"/>
      <point x="126" y="433"/>
      <point x="138" y="439"/>
      <point x="138" y="473" type="curve" smooth="yes"/>
      <point x="138" y="506"/>
      <point x="126" y="511"/>
      <point x="118" y="511" type="curve" smooth="yes"/>
      <point x="112" y="511"/>
      <point x="98" y="506"/>
      <point x="98" y="473" type="curve" smooth="yes"/>
      <point x="98" y="439"/>
      <point x="112" y="433"/>
    </contour>
    <contour>
      <point x="118" y="-5" type="curve" smooth="yes"/>
      <point x="126" y="-5"/>
      <point x="138" y="1"/>
      <point x="138" y="35" type="curve" smooth="yes"/>
      <point x="138" y="68"/>
      <point x="126" y="73"/>
      <point x="118" y="73" type="curve" smooth="yes"/>
      <point x="112" y="73"/>
      <point x="98" y="68"/>
      <point x="98" y="35" type="curve" smooth="yes"/>
      <point x="98" y="1"/>
      <point x="112" y="-5"/>
    </contour>
  </outline>
</glyph>
<glyph name="V" format="2">
  <advance width="796"/>
  <unicode hex="0056"/>
  <anchor x="399" y="0" name="bottom"/>
  <anchor x="399" y="714" name="top"/>
  <anchor x="776" y="714" name="topright"/>
  <outline>
    <contour>
      <point x="372" y="0" type="line"/>
      <point x="381" y="0" type="line"/>
      <point x="665" y="656" type="line" smooth="yes"/>
      <point x="684" y="699"/>
      <point x="684" y="704"/>
      <point x="735" y="704" type="curve" smooth="yes"/>
      <point x="758" y="704" type="line"/>
      <point x="758" y="714" type="line"/>
      <point x="539" y="714" type="line"/>
      <point x="539" y="704" type="line"/>
      <point x="601" y="704" type="line" smooth="yes"/>
      <point x="652" y="704"/>
      <point x="657" y="695"/>
      <point x="657" y="676" type="curve" smooth="yes"/>
      <point x="657" y="653"/>
      <point x="619" y="569"/>
      <point x="619" y="579" type="curve" smooth="yes"/>
      <point x="473" y="240" type="line" smooth="yes"/>
      <point x="432" y="146"/>
      <point x="410" y="87"/>
      <point x="383" y="26" type="curve"/>
      <point x="363" y="83"/>
      <point x="333" y="173"/>
      <point x="296" y="259" type="curve" smooth="yes"/>
      <point x="158" y="577" type="line" smooth="yes"/>
      <point x="155" y="580"/>
      <point x="122" y="651"/>
      <point x="122" y="674" type="curve" smooth="yes"/>
      <point x="122" y="693"/>
      <point x="127" y="704"/>
      <point x="177" y="704" type="curve" smooth="yes"/>
      <point x="262" y="704" type="line"/>
      <point x="262" y="714" type="line"/>
      <point x="0" y="714" type="line"/>
      <point x="0" y="704" type="line"/>
      <point x="23" y="704" type="line" smooth="yes"/>
      <point x="75" y="704"/>
      <point x="76" y="700"/>
      <point x="94" y="656" type="curve" smooth="yes"/>
    </contour>
  </outline>
</glyph>
<glyph name="Y" format="2">
  <advance width="656"/>
  <unicode hex="0059"/>
  <anchor x="341" y="0" name="bottom"/>
  <anchor x="341" y="714" name="top"/>
  <anchor x="648" y="714" name="topright"/>
  <outline>
    <contour>
      <point x="202" y="0" type="line"/>
      <point x="484" y="0" type="line"/>
      <point x="484" y="10" type="line"/>
      <point x="414" y="10" type="line" smooth="yes"/>
      <point x="364" y="10"/>
      <point x="358" y="21"/>
      <point x="358" y="98" type="curve" smooth="yes"/>
      <point x="358" y="346" type="line"/>
      <point x="528" y="662" type="line" smooth="yes"/>
      <point x="549" y="700"/>
      <point x="563" y="704"/>
      <point x="617" y="704" type="curve" smooth="yes"/>
      <point x="663" y="704" type="line"/>
      <point x="663" y="714" type="line"/>
      <point x="468" y="714" type="line"/>
      <point x="468" y="704" type="line"/>
      <point x="494" y="704" type="line" smooth="yes"/>
      <point x="526" y="704"/>
      <point x="529" y="696"/>
      <point x="529" y="691" type="curve" smooth="yes"/>
      <point x="529" y="677"/>
      <point x="511" y="650"/>
      <point x="502" y="635" type="curve" smooth="yes"/>
      <point x="385" y="420" type="line" smooth="yes"/>
      <point x="362" y="379"/>
      <point x="366" y="388"/>
      <point x="351" y="357" type="curve"/>
      <point x="324" y="393"/>
      <point x="279" y="459"/>
      <point x="249" y="496" type="curve" smooth="yes"/>
      <point x="138" y="643" type="line" smooth="yes"/>
      <point x="125" y="658"/>
      <point x="112" y="672"/>
      <point x="112" y="686" type="curve" smooth="yes"/>
      <point x="112" y="696"/>
      <point x="116" y="704"/>
      <point x="150" y="704" type="curve" smooth="yes"/>
      <point x="186" y="704" type="line"/>
      <point x="186" y="714" type="line"/>
      <point x="-14" y="714" type="line"/>
      <point x="-14" y="704" type="line"/>
      <point x="-2" y="704" type="line" smooth="yes"/>
      <point x="58" y="704"/>
      <point x="58" y="700"/>
      <point x="88" y="661" type="curve" smooth="yes"/>
      <point x="330" y="346" type="line"/>
      <point x="330" y="98" type="line" smooth="yes"/>
      <point x="330" y="21"/>
      <point x="324" y="10"/>
      <point x="274" y="10" type="curve" smooth="yes"/>
      <point x="202" y="10" type="line"/>
    </contour>
  </outline>
</glyph>
<glyph name="e" format="2">
  <advance width="599"/>
  <unicode hex="0065"/>
  <anchor x="310" y="0" name="bottom"/>
  <anchor x="310" y="536" name="top"/>
  <anchor x="579" y="536" name="topright"/>
  <outline>
    <contour>
      <point x="326" y="-10" type="curve" smooth="yes"/>
      <point x="454" y="-10"/>
      <point x="519" y="56"/>
      <point x="519" y="91" type="curve" smooth="yes"/>
      <point x="519" y="99"/>
      <point x="517" y="102"/>
      <point x="515" y="107" type="curve"/>
      <point x="480" y="36"/>
      <point x="423" y="0"/>
      <point x="329" y="0" type="curve" smooth="yes"/>
      <point x="201" y="0"/>
      <point x="106" y="94"/>
      <point x="110" y="275" type="curve"/>
      <point x="534" y="275" type="line"/>
      <point x="534" y="289" type="line" smooth="yes"/>
      <point x="534" y="451"/>
      <point x="445" y="542"/>
      <point x="317" y="542" type="curve" smooth="yes"/>
      <point x="164" y="542"/>
      <point x="80" y="452"/>
      <point x="80" y="262" type="curve" smooth="yes"/>
      <point x="80" y="85"/>
      <point x="176" y="-10"/>
    </contour>
    <contour>
      <point x="112" y="285" type="line"/>
      <point x="122" y="420"/>
      <point x="169" y="532"/>
      <point x="315" y="532" type="curve" smooth="yes"/>
      <point x="432" y="532"/>
      <point x="506" y="418"/>
      <point x="506" y="285" type="curve"/>
    </contour>
  </outline>
</glyph>
<glyph name="s" format="2">
  <advance width="495"/>
  <unicode hex="0073"/>
  <anchor x="248" y="0" name="bottom"/>
  <anchor x="248" y="536" name="top"/>
  <anchor x="405" y="536" name="topright"/>
  <outline>
    <contour>
      <point x="260" y="-10" type="curve" smooth="yes"/>
      <point x="355" y="-10"/>
      <point x="430" y="53"/>
      <point x="430" y="135" type="curve" smooth="yes"/>
      <point x="430" y="167"/>
      <point x="440" y="210"/>
      <point x="284" y="283" type="curve" smooth="yes"/>
      <point x="189" y="321"/>
      <point x="124" y="355"/>
      <point x="124" y="416" type="curve" smooth="yes"/>
      <point x="124" y="496"/>
      <point x="169" y="533"/>
      <point x="256" y="533" type="curve" smooth="yes"/>
      <point x="335" y="533"/>
      <point x="382" y="520"/>
      <point x="382" y="405" type="curve"/>
      <point x="405" y="405"/>
      <point x="408" y="417"/>
      <point x="408" y="441" type="curve" smooth="yes"/>
      <point x="408" y="474"/>
      <point x="382" y="543"/>
      <point x="263" y="543" type="curve" smooth="yes"/>
      <point x="162" y="543"/>
      <point x="96" y="493"/>
      <point x="96" y="426" type="curve" smooth="yes"/>
      <point x="96" y="359"/>
      <point x="125" y="324"/>
      <point x="294" y="244" type="curve" smooth="yes"/>
      <point x="387" y="207"/>
      <point x="402" y="178"/>
      <point x="402" y="139" type="curve" smooth="yes"/>
      <point x="402" y="69"/>
      <point x="355" y="0"/>
      <point x="260" y="0" type="curve" smooth="yes"/>
      <point x="134" y="0"/>
      <point x="118" y="47"/>
      <point x="118" y="135" type="curve"/>
      <point x="93" y="135"/>
      <point x="92" y="122"/>
      <point x="92" y="95" type="curve" smooth="yes"/>
      <point x="92" y="51"/>
      <point x="118" y="-10"/>
    </contour>
  </outline>
</glyph>
<glyph name="t" format="2">
  <advance width="343"/>
  <unicode hex="0074"/>
  <anchor x="171" y="0" name="bottom"/>
  <anchor x="171" y="268" name="center"/>
  <anchor x="137" y="657" name="top"/>
  <anchor x="263" y="657" name="topright"/>
  <outline>
    <contour>
      <point x="237" y="-10" type="curve" smooth="yes"/>
      <point x="262" y="-10"/>
      <point x="282" y="-10"/>
      <point x="309" y="-5" type="curve"/>
      <point x="309" y="5" type="line"/>
      <point x="286" y="1"/>
      <point x="266" y="0"/>
      <point x="237" y="0" type="curve" smooth="yes"/>
      <point x="167" y="0"/>
      <point x="145" y="37"/>
      <point x="145" y="139" type="curve" smooth="yes"/>
      <point x="145" y="526" type="line"/>
      <point x="299" y="526" type="line"/>
      <point x="299" y="536" type="line"/>
      <point x="145" y="536" type="line"/>
      <point x="145" y="657" type="line"/>
      <point x="135" y="657" type="line"/>
      <point x="136" y="588"/>
      <point x="128" y="559"/>
      <point x="109" y="547" type="curve" smooth="yes"/>
      <point x="90" y="534"/>
      <point x="60" y="534"/>
      <point x="21" y="536" type="curve"/>
      <point x="21" y="526" type="line"/>
      <point x="117" y="526" type="line"/>
      <point x="117" y="141" type="line" smooth="yes"/>
      <point x="117" y="34"/>
      <point x="151" y="-10"/>
    </contour>
  </outline>
</glyph>
<glyph name="section" format="2">
  <advance width="705"/>
  <unicode hex="00A7"/>
  <outline>
    <contour>
      <point x="314" y="-116" type="curve" smooth="yes"/>
      <point x="430" y="-116"/>
      <point x="542" y="-36"/>
      <point x="542" y="52" type="curve" smooth="yes"/>
      <point x="542" y="123"/>
      <point x="514" y="140"/>
      <point x="500" y="159" type="curve"/>
      <point x="560" y="225"/>
      <point x="563" y="263"/>
      <point x="560" y="272" type="curve" smooth="yes"/>
      <point x="555" y="361"/>
      <point x="516" y="384"/>
      <point x="365" y="446" type="curve" smooth="yes"/>
      <point x="230" y="499"/>
      <point x="181" y="547"/>
      <point x="181" y="609" type="curve" smooth="yes"/>
      <point x="181" y="689"/>
      <point x="237" y="750"/>
      <point x="343" y="750" type="curve" smooth="yes"/>
      <point x="414" y="750"/>
      <point x="507" y="716"/>
      <point x="507" y="645" type="curve"/>
      <point x="525" y="645"/>
      <point x="524" y="662"/>
      <point x="524" y="664" type="curve" smooth="yes"/>
      <point x="524" y="691"/>
      <point x="473" y="760"/>
      <point x="350" y="760" type="curve" smooth="yes"/>
      <point x="245" y="760"/>
      <point x="153" y="709"/>
      <point x="153" y="589" type="curve" smooth="yes"/>
      <point x="153" y="569"/>
      <point x="158" y="556"/>
      <point x="192" y="515" type="curve"/>
      <point x="147" y="469"/>
      <point x="132" y="428"/>
      <point x="132" y="401" type="curve" smooth="yes"/>
      <point x="132" y="329"/>
      <point x="206" y="293"/>
      <point x="286" y="266" type="curve" smooth="yes"/>
      <point x="375" y="237"/>
      <point x="514" y="174"/>
      <point x="514" y="55" type="curve" smooth="yes"/>
      <point x="514" y="-52"/>
      <point x="416" y="-106"/>
      <point x="322" y="-106" type="curve" smooth="yes"/>
      <point x="184" y="-106"/>
      <point x="129" y="-48"/>
      <point x="129" y="64" type="curve"/>
      <point x="121" y="64"/>
      <point x="108" y="63"/>
      <point x="108" y="35" type="curve" smooth="yes"/>
      <point x="108" y="-42"/>
      <point x="168" y="-116"/>
    </contour>
    <contour>
      <point x="490" y="167" type="curve"/>
      <point x="442" y="213"/>
      <point x="340" y="275"/>
      <point x="300" y="282" type="curve" smooth="yes"/>
      <point x="250" y="287"/>
      <point x="159" y="328"/>
      <point x="159" y="409" type="curve" smooth="yes"/>
      <point x="159" y="457"/>
      <point x="171" y="483"/>
      <point x="201" y="508" type="curve"/>
      <point x="234" y="487"/>
      <point x="283" y="457"/>
      <point x="375" y="414" type="curve" smooth="yes"/>
      <point x="522" y="351"/>
      <point x="533" y="345"/>
      <point x="533" y="277" type="curve" smooth="yes"/>
      <point x="533" y="241"/>
      <point x="524" y="228"/>
    </contour>
  </outline>
</glyph>
<glyph name="dieresis" format="2">
  <advance width="716"/>
  <unicode hex="00A8"/>
  <outline>
    <contour>
      <point x="449" y="654" type="curve" smooth="yes"/>
      <point x="460" y="654"/>
      <point x="468" y="660"/>
      <point x="468" y="698" type="curve" smooth="yes"/>
      <point x="468" y="733"/>
      <point x="460" y="740"/>
      <point x="449" y="740" type="curve" smooth="yes"/>
      <point x="440" y="740"/>
      <point x="430" y="733"/>
      <point x="430" y="698" type="curve" smooth="yes"/>
      <point x="430" y="660"/>
      <point x="440" y="654"/>
    </contour>
    <contour>
      <point x="260" y="654" type="curve" smooth="yes"/>
      <point x="271" y="654"/>
      <point x="279" y="660"/>
      <point x="279" y="698" type="curve" smooth="yes"/>
      <point x="279" y="733"/>
      <point x="271" y="740"/>
      <point x="260" y="740" type="curve" smooth="yes"/>
      <point x="250" y="740"/>
      <point x="240" y="733"/>
      <point x="240" y="698" type="curve" smooth="yes"/>
      <point x="240" y="660"/>
      <point x="250" y="654"/>
    </contour>
  </outline>
</glyph>
<glyph name="overscore" format="2">
  <advance width="571"/>
  <unicode hex="00AF"/>
  <outline>
    <contour>
      <point x="-7" y="746" type="line"/>
      <point x="581" y="746" type="line"/>
      <point x="581" y="766" type="line"/>
      <point x="-7" y="766" type="line"/>
    </contour>
  </outline>
</glyph>
<glyph name="micro" format="2">
  <advance width="674"/>
  <unicode hex="00B5"/>
  <outline>
    <contour>
      <point x="167" y="-240" type="curve" smooth="yes"/>
      <point x="196" y="-240"/>
      <point x="207" y="-232"/>
      <point x="213" y="-225" type="curve"/>
      <point x="143" y="-225"/>
      <point x="142" y="-224"/>
      <point x="142" y="82" type="curve"/>
      <point x="167" y="24"/>
      <point x="214" y="-10"/>
      <point x="304" y="-10" type="curve" smooth="yes"/>
      <point x="391" y="-10"/>
      <point x="466" y="36"/>
      <point x="510" y="157" type="curve"/>
      <point x="512" y="157" type="line"/>
      <point x="504" y="39"/>
      <point x="546" y="0"/>
      <point x="588" y="0" type="curve" smooth="yes"/>
      <point x="644" y="0" type="line"/>
      <point x="644" y="10" type="line"/>
      <point x="631" y="10" type="line" smooth="yes"/>
      <point x="550" y="10"/>
      <point x="543" y="38"/>
      <point x="543" y="114" type="curve" smooth="yes"/>
      <point x="543" y="536" type="line"/>
      <point x="515" y="536" type="line"/>
      <point x="515" y="225" type="line" smooth="yes"/>
      <point x="515" y="151"/>
      <point x="435" y="5"/>
      <point x="306" y="5" type="curve" smooth="yes"/>
      <point x="207" y="5"/>
      <point x="144" y="75"/>
      <point x="144" y="166" type="curve" smooth="yes"/>
      <point x="144" y="536" type="line"/>
      <point x="116" y="536" type="line"/>
      <point x="116" y="47" type="line" smooth="yes"/>
      <point x="116" y="-92"/>
      <point x="112" y="-52"/>
      <point x="112" y="-110" type="curve" smooth="yes"/>
      <point x="112" y="-215"/>
      <point x="137" y="-240"/>
    </contour>
  </outline>
</glyph>
<glyph name="onesuperior" format="2">
  <advance width="497"/>
  <unicode hex="00B9"/>
  <outline>
    <contour>
      <point x="100" y="388" type="line"/>
      <point x="397" y="388" type="line"/>
      <point x="397" y="398" type="line"/>
      <point x="296" y="398" type="line" smooth="yes"/>
      <point x="285" y="398"/>
      <point x="257" y="406"/>
      <point x="257" y="417" type="curve" smooth="yes"/>
      <point x="257" y="820" type="line"/>
      <point x="252" y="820" type="line"/>
      <point x="216" y="781" type="line" smooth="yes"/>
      <point x="232" y="806"/>
      <point x="172" y="735"/>
      <point x="84" y="738" type="curve"/>
      <point x="84" y="718"/>
      <point x="96" y="713"/>
      <point x="102" y="713" type="curve" smooth="yes"/>
      <point x="145" y="713"/>
      <point x="225" y="798"/>
      <point x="233" y="787" type="curve"/>
      <point x="233" y="417" type="line" smooth="yes"/>
      <point x="233" y="406"/>
      <point x="207" y="398"/>
      <point x="193" y="398" type="curve" smooth="yes"/>
      <point x="100" y="398" type="line"/>
    </contour>
  </outline>
</glyph>
<glyph name="ae" format="2">
  <advance width="957"/>
  <unicode hex="00E6"/>
  <anchor x="479" y="0" name="bottom"/>
  <anchor x="479" y="536" name="top"/>
  <outline>
    <contour>
      <point x="239" y="-10" type="curve" smooth="yes"/>
      <point x="350" y="-10"/>
      <point x="448" y="41"/>
      <point x="457" y="164" type="curve"/>
      <point x="482" y="48"/>
      <point x="565" y="-10"/>
      <point x="685" y="-10" type="curve" smooth="yes"/>
      <point x="814" y="-10"/>
      <point x="877" y="59"/>
      <point x="877" y="91" type="curve" smooth="yes"/>
      <point x="877" y="101"/>
      <point x="873" y="107"/>
      <point x="865" y="109" type="curve"/>
      <point x="842" y="46"/>
      <point x="787" y="0"/>
      <point x="686" y="0" type="curve" smooth="yes"/>
      <point x="552" y="0"/>
      <point x="459" y="109"/>
      <point x="464" y="292" type="curve"/>
      <point x="892" y="292" type="line"/>
      <point x="892" y="292" type="line" smooth="yes"/>
      <point x="892" y="437"/>
      <point x="810" y="542"/>
      <point x="677" y="542" type="curve" smooth="yes"/>
      <point x="547" y="542"/>
      <point x="500" y="469"/>
      <point x="465" y="399" type="curve"/>
      <point x="459" y="454"/>
      <point x="467" y="542"/>
      <point x="292" y="542" type="curve" smooth="yes"/>
      <point x="138" y="542"/>
      <point x="123" y="469"/>
      <point x="123" y="442" type="curve" smooth="yes"/>
      <point x="123" y="407"/>
      <point x="127" y="395"/>
      <point x="142" y="395" type="curve"/>
      <point x="142" y="486"/>
      <point x="168" y="532"/>
      <point x="294" y="532" type="curve" smooth="yes"/>
      <point x="445" y="532"/>
      <point x="438" y="466"/>
      <point x="438" y="371" type="curve" smooth="yes"/>
      <point x="438" y="290" type="line"/>
      <point x="362" y="293" type="line" smooth="yes"/>
      <point x="159" y="299"/>
      <point x="70" y="263"/>
      <point x="70" y="151" type="curve" smooth="yes"/>
      <point x="70" y="43"/>
      <point x="150" y="-10"/>
    </contour>
    <contour>
      <point x="246" y="0" type="curve" smooth="yes"/>
      <point x="137" y="0"/>
      <point x="98" y="79"/>
      <point x="98" y="152" type="curve" smooth="yes"/>
      <point x="98" y="221"/>
      <point x="149" y="288"/>
      <point x="355" y="283" type="curve" smooth="yes"/>
      <point x="438" y="280" type="line"/>
      <point x="437" y="170" type="line" smooth="yes"/>
      <point x="436" y="118"/>
      <point x="368" y="0"/>
    </contour>
    <contour>
      <point x="468" y="302" type="line"/>
      <point x="482" y="433"/>
      <point x="518" y="532"/>
      <point x="673" y="532" type="curve" smooth="yes"/>
      <point x="797" y="532"/>
      <point x="862" y="434"/>
      <point x="864" y="302" type="curve"/>
    </contour>
  </outline>
</glyph>
<glyph name="eth" format="2">
  <advance width="652"/>
  <unicode hex="00F0"/>
  <anchor x="327" y="0" name="bottom"/>
  <anchor x="327" y="760" name="top"/>
  <outline>
    <contour>
      <point x="324" y="-10" type="curve" smooth="yes"/>
      <point x="496" y="-10"/>
      <point x="570" y="119"/>
      <point x="570" y="238" type="curve" smooth="yes"/>
      <point x="570" y="420"/>
      <point x="504" y="562"/>
      <point x="387" y="662" type="curve"/>
      <point x="519" y="733" type="line"/>
      <point x="519" y="745" type="line"/>
      <point x="375" y="666" type="line"/>
      <point x="328" y="707"/>
      <point x="267" y="738"/>
      <point x="200" y="761" type="curve"/>
      <point x="200" y="749" type="line"/>
      <point x="267" y="720"/>
      <point x="317" y="692"/>
      <point x="363" y="659" type="curve"/>
      <point x="216" y="576" type="line"/>
      <point x="216" y="565" type="line"/>
      <point x="370" y="652" type="line"/>
      <point x="446" y="590"/>
      <point x="488" y="512"/>
      <point x="529" y="398" type="curve"/>
      <point x="492" y="453"/>
      <point x="392" y="489"/>
      <point x="341" y="489" type="curve" smooth="yes"/>
      <point x="176" y="489"/>
      <point x="82" y="408"/>
      <point x="82" y="268" type="curve" smooth="yes"/>
      <point x="82" y="153"/>
      <point x="137" y="-10"/>
    </contour>
    <contour>
      <point x="324" y="0" type="curve" smooth="yes"/>
      <point x="185" y="0"/>
      <point x="109" y="106"/>
      <point x="109" y="265" type="curve" smooth="yes"/>
      <point x="109" y="382"/>
      <point x="159" y="479"/>
      <point x="323" y="479" type="curve" smooth="yes"/>
      <point x="488" y="479"/>
      <point x="543" y="346"/>
      <point x="543" y="265" type="curve" smooth="yes"/>
      <point x="543" y="94"/>
      <point x="465" y="0"/>
    </contour>
  </outline>
</glyph>
<glyph name="kgreenlandic" format="2">
  <advance width="637"/>
  <unicode hex="0138"/>
  <anchor x="319" y="0" name="bottom"/>
  <anchor x="319" y="536" name="top"/>
  <outline>
    <contour>
      <point x="26" y="0" type="line"/>
      <point x="285" y="0" type="line"/>
      <point x="285" y="10" type="line"/>
      <point x="258" y="10" type="line" smooth="yes"/>
      <point x="180" y="10"/>
      <point x="176" y="10"/>
      <point x="176" y="82" type="curve" smooth="yes"/>
      <point x="176" y="193" type="line"/>
      <point x="289" y="287" type="line"/>
      <point x="437" y="119" type="line" smooth="yes"/>
      <point x="524" y="12"/>
      <point x="524" y="0"/>
      <point x="600" y="0" type="curve" smooth="yes"/>
      <point x="622" y="0" type="line"/>
      <point x="622" y="2" type="line"/>
      <point x="621" y="2" type="line" smooth="yes"/>
      <point x="577" y="2"/>
      <point x="545" y="30"/>
      <point x="471" y="118" type="curve" smooth="yes"/>
      <point x="308" y="301" type="line"/>
      <point x="494" y="477" type="line" smooth="yes"/>
      <point x="579" y="539"/>
      <point x="587" y="526"/>
      <point x="611" y="526" type="curve"/>
      <point x="611" y="536" type="line"/>
      <point x="427" y="536" type="line"/>
      <point x="427" y="526" type="line"/>
      <point x="499" y="526"/>
      <point x="509" y="526"/>
      <point x="509" y="510" type="curve" smooth="yes"/>
      <point x="509" y="475"/>
      <point x="431" y="413"/>
      <point x="353" y="358" type="curve" smooth="yes"/>
      <point x="174" y="205" type="line"/>
      <point x="174" y="275"/>
      <point x="176" y="307"/>
      <point x="176" y="375" type="curve" smooth="yes"/>
      <point x="176" y="536" type="line"/>
      <point x="26" y="536" type="line"/>
      <point x="26" y="526" type="line"/>
      <point x="85" y="526" type="line" smooth="yes"/>
      <point x="140" y="526"/>
      <point x="148" y="522"/>
      <point x="148" y="454" type="curve" smooth="yes"/>
      <point x="148" y="82" type="line" smooth="yes"/>
      <point x="148" y="12"/>
      <point x="146" y="10"/>
      <point x="63" y="10" type="curve" smooth="yes"/>
      <point x="26" y="10" type="line"/>
    </contour>
  </outline>
</glyph>
<glyph name="Tbar" format="2">
  <advance width="690"/>
  <unicode hex="0166"/>
  <anchor x="346" y="0" name="bottom"/>
  <anchor x="346" y="714" name="top"/>
  <outline>
    <contour>
      <point x="176" y="0" type="line"/>
      <point x="507" y="0" type="line"/>
      <point x="507" y="10" type="line"/>
      <point x="412" y="10" type="line" smooth="yes"/>
      <point x="362" y="10"/>
      <point x="356" y="21"/>
      <point x="356" y="98" type="curve" smooth="yes"/>
      <point x="356" y="368" type="line"/>
      <point x="504" y="368" type="line"/>
      <point x="504" y="378" type="line"/>
      <point x="356" y="378" type="line"/>
      <point x="356" y="694" type="line"/>
      <point x="570" y="694" type="line" smooth="yes"/>
      <point x="622" y="694"/>
      <point x="630" y="680"/>
      <point x="632" y="625" type="curve" smooth="yes"/>
      <point x="636" y="563" type="line"/>
      <point x="646" y="563" type="line"/>
      <point x="638" y="714" type="line"/>
      <point x="49" y="714" type="line"/>
      <point x="41" y="563" type="line"/>
      <point x="51" y="563" type="line"/>
      <point x="55" y="625" type="line" smooth="yes"/>
      <point x="57" y="680"/>
      <point x="65" y="694"/>
      <point x="117" y="694" type="curve" smooth="yes"/>
      <point x="328" y="694" type="line"/>
      <point x="328" y="378" type="line"/>
      <point x="175" y="378" type="line"/>
      <point x="175" y="368" type="line"/>
      <point x="328" y="368" type="line"/>
      <point x="328" y="98" type="line" smooth="yes"/>
      <point x="328" y="21"/>
      <point x="322" y="10"/>
      <point x="272" y="10" type="curve" smooth="yes"/>
      <point x="176" y="10" type="line"/>
    </contour>
  </outline>
</glyph>
<glyph name="uni0186" format="2">
  <advance width="685"/>
  <unicode hex="0186"/>
  <anchor x="342" y="0" name="bottom"/>
  <anchor x="342" y="714" name="top"/>
  <outline>
    <contour>
      <point x="281" y="-10" type="curve" smooth="yes"/>
      <point x="501" y="-10"/>
      <point x="617" y="122"/>
      <point x="617" y="344" type="curve" smooth="yes"/>
      <point x="617" y="587"/>
      <point x="494" y="724"/>
      <point x="278" y="724" type="curve" smooth="yes"/>
      <point x="113" y="724"/>
      <point x="44" y="635"/>
      <point x="44" y="649" type="curve" smooth="yes"/>
      <point x="44" y="646"/>
      <point x="44" y="650"/>
      <point x="54" y="640" type="curve"/>
      <point x="92" y="678"/>
      <point x="162" y="714"/>
      <point x="280" y="714" type="curve" smooth="yes"/>
      <point x="473" y="714"/>
      <point x="589" y="596"/>
      <point x="589" y="342" type="curve" smooth="yes"/>
      <point x="589" y="125"/>
      <point x="478" y="0"/>
      <point x="293" y="0" type="curve" smooth="yes"/>
      <point x="83" y="0"/>
      <point x="54" y="57"/>
      <point x="68" y="180" type="curve"/>
      <point x="53" y="185"/>
      <point x="28" y="164"/>
      <point x="28" y="122" type="curve" smooth="yes"/>
      <point x="28" y="66"/>
      <point x="83" y="-10"/>
    </contour>
  </outline>
</glyph>
<glyph name="uni018B" format="2">
  <advance width="666"/>
  <unicode hex="018B"/>
  <anchor x="333" y="0" name="bottom"/>
  <anchor x="333" y="714" name="top"/>
  <outline>
    <contour>
      <point x="350" y="0" type="curve" smooth="yes"/>
      <point x="602" y="0" type="line"/>
      <point x="602" y="10" type="line"/>
      <point x="532" y="10" type="line" smooth="yes"/>
      <point x="486" y="10"/>
      <point x="478" y="21"/>
      <point x="478" y="98" type="curve" smooth="yes"/>
      <point x="478" y="594" type="line" smooth="yes"/>
      <point x="478" y="693"/>
      <point x="482" y="704"/>
      <point x="536" y="704" type="curve" smooth="yes"/>
      <point x="602" y="704" type="line"/>
      <point x="602" y="714" type="line"/>
      <point x="102" y="715" type="line"/>
      <point x="96" y="555" type="line"/>
      <point x="106" y="555" type="line"/>
      <point x="108" y="578" type="line" smooth="yes"/>
      <point x="112" y="669"/>
      <point x="132" y="695"/>
      <point x="146" y="695" type="curve" smooth="yes"/>
      <point x="450" y="694" type="line"/>
      <point x="450" y="388" type="line"/>
      <point x="295" y="388" type="line" smooth="yes"/>
      <point x="128" y="388"/>
      <point x="38" y="333"/>
      <point x="38" y="191" type="curve" smooth="yes"/>
      <point x="38" y="45"/>
      <point x="163" y="0"/>
    </contour>
    <contour>
      <point x="340" y="10" type="line" smooth="yes"/>
      <point x="155" y="10"/>
      <point x="66" y="58"/>
      <point x="66" y="191" type="curve" smooth="yes"/>
      <point x="66" y="337"/>
      <point x="150" y="378"/>
      <point x="312" y="378" type="curve" smooth="yes"/>
      <point x="450" y="378" type="line"/>
      <point x="450" y="10" type="line"/>
    </contour>
  </outline>
</glyph>
<glyph name="uni01B8" format="2">
  <advance width="672"/>
  <unicode hex="01B8"/>
  <anchor x="337" y="0" name="bottom"/>
  <anchor x="337" y="714" name="top"/>
  <outline>
    <contour>
      <point x="343" y="-8" type="curve" smooth="yes"/>
      <point x="451" y="-8"/>
      <point x="547" y="43"/>
      <point x="547" y="84" type="curve" smooth="yes"/>
      <point x="547" y="97"/>
      <point x="538" y="99"/>
      <point x="525" y="97" type="curve"/>
      <point x="533" y="45"/>
      <point x="423" y="2"/>
      <point x="344" y="2" type="curve" smooth="yes"/>
      <point x="211" y="2"/>
      <point x="134" y="88"/>
      <point x="134" y="216" type="curve" smooth="yes"/>
      <point x="134" y="333"/>
      <point x="211" y="408"/>
      <point x="408" y="408" type="curve" smooth="yes"/>
      <point x="421" y="408" type="line"/>
      <point x="421" y="419" type="line"/>
      <point x="174" y="689" type="line"/>
      <point x="498" y="689" type="line" smooth="yes"/>
      <point x="552" y="689"/>
      <point x="534" y="673"/>
      <point x="540" y="630" type="curve" smooth="yes"/>
      <point x="545" y="586" type="line"/>
      <point x="555" y="586" type="line"/>
      <point x="548" y="714" type="line"/>
      <point x="151" y="714" type="line"/>
      <point x="151" y="699" type="line"/>
      <point x="408" y="418" type="line"/>
      <point x="158" y="418"/>
      <point x="106" y="289"/>
      <point x="106" y="210" type="curve" smooth="yes"/>
      <point x="106" y="88"/>
      <point x="184" y="-8"/>
    </contour>
  </outline>
</glyph>
<glyph name="uni01BA" format="2">
  <advance width="571"/>
  <unicode hex="01BA"/>
  <anchor x="286" y="-240" name="bottom"/>
  <anchor x="286" y="536" name="top"/>
  <outline>
    <contour>
      <point x="256" y="-240" type="curve" smooth="yes"/>
      <point x="357" y="-240"/>
      <point x="486" y="-208"/>
      <point x="486" y="-143" type="curve" smooth="yes"/>
      <point x="486" y="-128"/>
      <point x="482" y="-121"/>
      <point x="473" y="-124" type="curve"/>
      <point x="473" y="-162"/>
      <point x="401" y="-230"/>
      <point x="254" y="-230" type="curve" smooth="yes"/>
      <point x="152" y="-230"/>
      <point x="94" y="-185"/>
      <point x="94" y="-119" type="curve" smooth="yes"/>
      <point x="94" y="-43"/>
      <point x="186" y="-21"/>
      <point x="290" y="1" type="curve" smooth="yes"/>
      <point x="397" y="21"/>
      <point x="514" y="45"/>
      <point x="514" y="158" type="curve" smooth="yes"/>
      <point x="514" y="223"/>
      <point x="487" y="302"/>
      <point x="236" y="304" type="curve"/>
      <point x="472" y="520" type="line"/>
      <point x="472" y="536" type="line"/>
      <point x="125" y="536" type="line"/>
      <point x="118" y="427" type="line"/>
      <point x="128" y="427" type="line"/>
      <point x="133" y="467" type="line" smooth="yes"/>
      <point x="140" y="511"/>
      <point x="144" y="511"/>
      <point x="174" y="511" type="curve" smooth="yes"/>
      <point x="447" y="511" type="line"/>
      <point x="219" y="302" type="line"/>
      <point x="219" y="292" type="line"/>
      <point x="254" y="292" type="line" smooth="yes"/>
      <point x="395" y="292"/>
      <point x="486" y="252"/>
      <point x="486" y="156" type="curve" smooth="yes"/>
      <point x="486" y="23"/>
      <point x="354" y="22"/>
      <point x="273" y="7" type="curve" smooth="yes"/>
      <point x="160" y="-17"/>
      <point x="66" y="-32"/>
      <point x="66" y="-115" type="curve" smooth="yes"/>
      <point x="66" y="-179"/>
      <point x="110" y="-240"/>
    </contour>
  </outline>
</glyph>
<glyph name="uni01BD" format="2">
  <advance width="562"/>
  <unicode hex="01BD"/>
  <anchor x="281" y="0" name="bottom"/>
  <anchor x="281" y="536" name="top"/>
  <outline>
    <contour>
      <point x="246" y="-10" type="curve" smooth="yes"/>
      <point x="417" y="-10"/>
      <point x="481" y="59"/>
      <point x="481" y="157" type="curve" smooth="yes"/>
      <point x="481" y="258"/>
      <point x="419" y="306"/>
      <point x="271" y="306" type="curve" smooth="yes"/>
      <point x="176" y="306" type="line"/>
      <point x="176" y="526" type="line"/>
      <point x="362" y="526" type="line" smooth="yes"/>
      <point x="400" y="526"/>
      <point x="398" y="525"/>
      <point x="399" y="531" type="curve" smooth="yes"/>
      <point x="406" y="422" type="line"/>
      <point x="416" y="422" type="line"/>
      <point x="416" y="536" type="line"/>
      <point x="57" y="536" type="line"/>
      <point x="57" y="526" type="line"/>
      <point x="137" y="526"/>
      <point x="148" y="521"/>
      <point x="148" y="524" type="curve" smooth="yes"/>
      <point x="148" y="296" type="line"/>
      <point x="287" y="296" type="line" smooth="yes"/>
      <point x="395" y="296"/>
      <point x="453" y="252"/>
      <point x="453" y="156" type="curve" smooth="yes"/>
      <point x="453" y="51"/>
      <point x="396" y="0"/>
      <point x="249" y="0" type="curve" smooth="yes"/>
      <point x="144" y="0"/>
      <point x="97" y="49"/>
      <point x="97" y="118" type="curve"/>
      <point x="96" y="118"/>
      <point x="71" y="116"/>
      <point x="71" y="89" type="curve" smooth="yes"/>
      <point x="71" y="32"/>
      <point x="127" y="-10"/>
    </contour>
  </outline>
</glyph>
<glyph name="eturned" format="2">
  <advance width="599"/>
  <unicode hex="01DD"/>
  <anchor x="280" y="0" name="bottom"/>
  <anchor x="280" y="536" name="top"/>
  <outline>
    <contour>
      <point x="281" y="-10" type="curve" smooth="yes"/>
      <point x="434" y="-10"/>
      <point x="518" y="80"/>
      <point x="518" y="270" type="curve" smooth="yes"/>
      <point x="518" y="447"/>
      <point x="422" y="542"/>
      <point x="272" y="542" type="curve" smooth="yes"/>
      <point x="144" y="542"/>
      <point x="79" y="476"/>
      <point x="79" y="441" type="curve" smooth="yes"/>
      <point x="79" y="433"/>
      <point x="81" y="430"/>
      <point x="83" y="425" type="curve"/>
      <point x="118" y="496"/>
      <point x="175" y="532"/>
      <point x="269" y="532" type="curve" smooth="yes"/>
      <point x="397" y="532"/>
      <point x="492" y="438"/>
      <point x="488" y="255" type="curve"/>
      <point x="64" y="255" type="line"/>
      <point x="64" y="243" type="line" smooth="yes"/>
      <point x="64" y="81"/>
      <point x="153" y="-10"/>
    </contour>
    <contour>
      <point x="283" y="0" type="curve" smooth="yes"/>
      <point x="166" y="0"/>
      <point x="92" y="114"/>
      <point x="92" y="245" type="curve"/>
      <point x="486" y="245" type="line"/>
      <point x="476" y="112"/>
      <point x="429" y="0"/>
    </contour>
  </outline>
</glyph>
<glyph name="uni01F7" format="2">
  <advance width="823"/>
  <unicode hex="01F7"/>
  <anchor x="411" y="-240" name="bottom"/>
  <anchor x="411" y="714" name="top"/>
  <outline>
    <contour>
      <point x="100" y="-240" type="line"/>
      <point x="399" y="-240" type="line"/>
      <point x="399" y="-230" type="line"/>
      <point x="296" y="-230" type="line" smooth="yes"/>
      <point x="260" y="-230"/>
      <point x="252" y="-218"/>
      <point x="252" y="-156" type="curve" smooth="yes"/>
      <point x="251" y="11" type="line"/>
      <point x="532" y="57"/>
      <point x="766" y="151"/>
      <point x="766" y="427" type="curve" smooth="yes"/>
      <point x="766" y="621"/>
      <point x="714" y="724"/>
      <point x="537" y="724" type="curve" smooth="yes"/>
      <point x="400" y="724"/>
      <point x="279" y="628"/>
      <point x="250" y="501" type="curve"/>
      <point x="249" y="501" type="line"/>
      <point x="249" y="714" type="line"/>
      <point x="83" y="714" type="line"/>
      <point x="83" y="704" type="line"/>
      <point x="154" y="704" type="line" smooth="yes"/>
      <point x="191" y="704"/>
      <point x="224" y="688"/>
      <point x="224" y="601" type="curve" smooth="yes"/>
      <point x="224" y="-158" type="line" smooth="yes"/>
      <point x="224" y="-218"/>
      <point x="214" y="-230"/>
      <point x="179" y="-230" type="curve" smooth="yes"/>
      <point x="100" y="-230" type="line"/>
    </contour>
    <contour>
      <point x="252" y="25" type="curve"/>
      <point x="252" y="431" type="line" smooth="yes"/>
      <point x="252" y="609"/>
      <point x="389" y="704"/>
      <point x="537" y="704" type="curve" smooth="yes"/>
      <point x="714" y="704"/>
      <point x="738" y="564"/>
      <point x="738" y="430" type="curve" smooth="yes"/>
      <point x="738" y="195"/>
      <point x="555" y="69"/>
    </contour>
  </outline>
</glyph>
<glyph name="Aringacute" format="2">
  <advance width="817"/>
  <unicode hex="01FA"/>
  <anchor x="398" y="0" name="bottom"/>
  <anchor x="388" y="966" name="top"/>
  <outline>
    <contour>
      <point x="-6" y="0" type="line"/>
      <point x="245" y="0" type="line"/>
      <point x="245" y="10" type="line"/>
      <point x="197" y="10" type="line" smooth="yes"/>
      <point x="139" y="10"/>
      <point x="116" y="8"/>
      <point x="116" y="38" type="curve" smooth="yes"/>
      <point x="116" y="69"/>
      <point x="133" y="101"/>
      <point x="147" y="129" type="curve" smooth="yes"/>
      <point x="224" y="287" type="line"/>
      <point x="549" y="287" type="line"/>
      <point x="614" y="147" type="line" smooth="yes"/>
      <point x="636" y="95"/>
      <point x="643" y="68"/>
      <point x="643" y="44" type="curve" smooth="yes"/>
      <point x="643" y="23"/>
      <point x="639" y="10"/>
      <point x="587" y="10" type="curve" smooth="yes"/>
      <point x="528" y="10" type="line"/>
      <point x="528" y="0" type="line"/>
      <point x="781" y="0" type="line"/>
      <point x="781" y="10" type="line"/>
      <point x="726" y="10" type="line" smooth="yes"/>
      <point x="697" y="10"/>
      <point x="689" y="35"/>
      <point x="669" y="77" type="curve" smooth="yes"/>
      <point x="416" y="600" type="line"/>
      <point x="489" y="609"/>
      <point x="541" y="642"/>
      <point x="541" y="708" type="curve" smooth="yes"/>
      <point x="541" y="779"/>
      <point x="475" y="817"/>
      <point x="392" y="817" type="curve" smooth="yes"/>
      <point x="309" y="817"/>
      <point x="243" y="779"/>
      <point x="243" y="708" type="curve" smooth="yes"/>
      <point x="243" y="649"/>
      <point x="289" y="605"/>
      <point x="377" y="599" type="curve"/>
      <point x="112" y="76" type="line" smooth="yes"/>
      <point x="79" y="15"/>
      <point x="76" y="10"/>
      <point x="9" y="10" type="curve" smooth="yes"/>
      <point x="-6" y="10" type="line"/>
    </contour>
    <contour>
      <point x="229" y="297" type="line"/>
      <point x="332" y="503" type="line" smooth="yes"/>
      <point x="352" y="536"/>
      <point x="383" y="605"/>
      <point x="391" y="619" type="curve"/>
      <point x="403" y="593"/>
      <point x="426" y="537"/>
      <point x="452" y="490" type="curve" smooth="yes"/>
      <point x="544" y="297" type="line"/>
    </contour>
    <contour>
      <point x="391" y="609" type="curve" smooth="yes"/>
      <point x="311" y="609"/>
      <point x="255" y="637"/>
      <point x="255" y="708" type="curve" smooth="yes"/>
      <point x="255" y="779"/>
      <point x="311" y="807"/>
      <point x="391" y="807" type="curve" smooth="yes"/>
      <point x="473" y="807"/>
      <point x="529" y="779"/>
      <point x="529" y="708" type="curve" smooth="yes"/>
      <point x="529" y="637"/>
      <point x="473" y="609"/>
    </contour>
    <contour>
      <point x="372" y="832" type="line"/>
      <point x="372" y="832" type="line"/>
      <point x="406" y="858"/>
      <point x="467" y="912"/>
      <point x="512" y="956" type="curve"/>
      <point x="512" y="966" type="line"/>
      <point x="482" y="966" type="line"/>
      <point x="438" y="915"/>
      <point x="405" y="877"/>
      <point x="372" y="845" type="curve"/>
    </contour>
  </outline>
</glyph>
<glyph name="uni021D" format="2">
  <advance width="525"/>
  <unicode hex="021D"/>
  <anchor x="260" y="-203" name="bottom"/>
  <anchor x="260" y="536" name="top"/>
  <outline>
    <contour>
      <point x="50" y="-240" type="line"/>
      <point x="321" y="-195"/>
      <point x="485" y="-127"/>
      <point x="485" y="48" type="curve" smooth="yes"/>
      <point x="485" y="147"/>
      <point x="394" y="198"/>
      <point x="325" y="229" type="curve"/>
      <point x="381" y="240"/>
      <point x="468" y="302"/>
      <point x="468" y="399" type="curve" smooth="yes"/>
      <point x="468" y="484"/>
      <point x="404" y="549"/>
      <point x="262" y="549" type="curve" smooth="yes"/>
      <point x="150" y="549"/>
      <point x="74" y="522"/>
      <point x="74" y="470" type="curve" smooth="yes"/>
      <point x="74" y="448"/>
      <point x="82" y="438"/>
      <point x="109" y="438" type="curve"/>
      <point x="109" y="529"/>
      <point x="192" y="539"/>
      <point x="263" y="539" type="curve" smooth="yes"/>
      <point x="365" y="539"/>
      <point x="442" y="492"/>
      <point x="442" y="393" type="curve" smooth="yes"/>
      <point x="442" y="270"/>
      <point x="361" y="245"/>
      <point x="182" y="196" type="curve"/>
      <point x="184" y="186" type="line"/>
      <point x="312" y="224" type="line"/>
      <point x="371" y="191"/>
      <point x="457" y="144"/>
      <point x="457" y="47" type="curve" smooth="yes"/>
      <point x="457" y="-106"/>
      <point x="278" y="-194"/>
      <point x="50" y="-235" type="curve"/>
    </contour>
  </outline>
</glyph>
<glyph name="uni0223" format="2">
  <advance width="609"/>
  <unicode hex="0223"/>
  <anchor x="305" y="0" name="bottom"/>
  <anchor x="305" y="765" name="top"/>
  <outline>
    <contour>
      <point x="308" y="-10" type="curve" smooth="yes"/>
      <point x="431" y="-10"/>
      <point x="528" y="52"/>
      <point x="528" y="218" type="curve" smooth="yes"/>
      <point x="528" y="313"/>
      <point x="495" y="413"/>
      <point x="365" y="448" type="curve"/>
      <point x="479" y="470"/>
      <point x="508" y="565"/>
      <point x="508" y="644" type="curve" smooth="yes"/>
      <point x="508" y="710"/>
      <point x="480" y="764"/>
      <point x="436" y="765" type="curve"/>
      <point x="453" y="735"/>
      <point x="480" y="717"/>
      <point x="480" y="637" type="curve" smooth="yes"/>
      <point x="480" y="519"/>
      <point x="444" y="452"/>
      <point x="306" y="452" type="curve" smooth="yes"/>
      <point x="169" y="452"/>
      <point x="130" y="518"/>
      <point x="130" y="637" type="curve" smooth="yes"/>
      <point x="130" y="717"/>
      <point x="157" y="735"/>
      <point x="175" y="765" type="curve"/>
      <point x="132" y="766"/>
      <point x="102" y="713"/>
      <point x="102" y="647" type="curve" smooth="yes"/>
      <point x="102" y="554"/>
      <point x="131" y="470"/>
      <point x="241" y="448" type="curve"/>
      <point x="123" y="419"/>
      <point x="82" y="336"/>
      <point x="82" y="218" type="curve" smooth="yes"/>
      <point x="82" y="51"/>
      <point x="184" y="-10"/>
    </contour>
    <contour>
      <point x="307" y="0" type="curve" smooth="yes"/>
      <point x="154" y="0"/>
      <point x="110" y="114"/>
      <point x="110" y="219" type="curve" smooth="yes"/>
      <point x="110" y="383"/>
      <point x="168" y="442"/>
      <point x="306" y="442" type="curve" smooth="yes"/>
      <point x="457" y="442"/>
      <point x="500" y="360"/>
      <point x="500" y="219" type="curve" smooth="yes"/>
      <point x="500" y="114"/>
      <point x="459" y="0"/>
    </contour>
  </outline>
</glyph>
<glyph name="uni0225" format="2">
  <advance width="604"/>
  <unicode hex="0225"/>
  <anchor x="315" y="-130" name="bottom"/>
  <anchor x="315" y="536" name="top"/>
  <outline>
    <contour>
      <point x="463" y="-136" type="curve"/>
      <point x="508" y="-130"/>
      <point x="530" y="-105"/>
      <point x="530" y="-61" type="curve" smooth="yes"/>
      <point x="530" y="-4"/>
      <point x="485" y="15"/>
      <point x="410" y="15" type="curve" smooth="yes"/>
      <point x="127" y="15" type="line"/>
      <point x="536" y="534" type="line"/>
      <point x="536" y="536" type="line"/>
      <point x="109" y="536" type="line"/>
      <point x="101" y="420" type="line"/>
      <point x="111" y="420" type="line"/>
      <point x="113" y="452" type="line" smooth="yes"/>
      <point x="116" y="507"/>
      <point x="124" y="521"/>
      <point x="176" y="521" type="curve" smooth="yes"/>
      <point x="493" y="521" type="line"/>
      <point x="88" y="2" type="line"/>
      <point x="88" y="0" type="line"/>
      <point x="429" y="0" type="line" smooth="yes"/>
      <point x="477" y="0"/>
      <point x="502" y="-17"/>
      <point x="502" y="-53" type="curve" smooth="yes"/>
      <point x="502" y="-73"/>
      <point x="488" y="-108"/>
    </contour>
  </outline>
</glyph>
<glyph name="uni024B" format="2">
  <advance width="705"/>
  <unicode hex="024B"/>
  <anchor x="352" y="-240" name="bottom"/>
  <anchor x="352" y="536" name="top"/>
  <outline>
    <contour>
      <point x="627" y="-240" type="curve" smooth="yes"/>
      <point x="663" y="-240"/>
      <point x="688" y="-240"/>
      <point x="729" y="-231" type="curve"/>
      <point x="729" y="-220" type="line"/>
      <point x="696" y="-229"/>
      <point x="670" y="-230"/>
      <point x="645" y="-230" type="curve" smooth="yes"/>
      <point x="562" y="-230"/>
      <point x="567" y="-149"/>
      <point x="567" y="-84" type="curve" smooth="yes"/>
      <point x="567" y="454" type="line" smooth="yes"/>
      <point x="567" y="524"/>
      <point x="569" y="526"/>
      <point x="655" y="526" type="curve" smooth="yes"/>
      <point x="674" y="526" type="line"/>
      <point x="674" y="536" type="line"/>
      <point x="540" y="536" type="line"/>
      <point x="540" y="398" type="line"/>
      <point x="536" y="398" type="line"/>
      <point x="517" y="479"/>
      <point x="447" y="546"/>
      <point x="340" y="546" type="curve" smooth="yes"/>
      <point x="157" y="546"/>
      <point x="81" y="437"/>
      <point x="81" y="265" type="curve" smooth="yes"/>
      <point x="81" y="77"/>
      <point x="170" y="-10"/>
      <point x="322" y="-10" type="curve" smooth="yes"/>
      <point x="451" y="-10"/>
      <point x="522" y="100"/>
      <point x="538" y="175" type="curve"/>
      <point x="540" y="175" type="line"/>
      <point x="538" y="180"/>
      <point x="539" y="51"/>
      <point x="539" y="-36" type="curve" smooth="yes"/>
      <point x="539" y="-134" type="line" smooth="yes"/>
      <point x="539" y="-214"/>
      <point x="588" y="-240"/>
    </contour>
    <contour>
      <point x="324" y="10" type="curve" smooth="yes"/>
      <point x="180" y="10"/>
      <point x="109" y="89"/>
      <point x="109" y="264" type="curve" smooth="yes"/>
      <point x="109" y="422"/>
      <point x="174" y="526"/>
      <point x="344" y="526" type="curve" smooth="yes"/>
      <point x="497" y="526"/>
      <point x="539" y="432"/>
      <point x="539" y="267" type="curve" smooth="yes"/>
      <point x="539" y="57"/>
      <point x="420" y="10"/>
    </contour>
  </outline>
</glyph>
<glyph name="uni024C" format="2">
  <advance width="722"/>
  <unicode hex="024C"/>
  <anchor x="357" y="0" name="bottom"/>
  <anchor x="357" y="714" name="top"/>
  <anchor x="702" y="714" name="topright"/>
  <outline>
    <contour>
      <point x="76" y="337" type="line"/>
      <point x="184" y="337" type="line"/>
      <point x="184" y="347" type="line"/>
      <point x="76" y="347" type="line"/>
    </contour>
    <component base="R" xOffset="-5"/>
  </outline>
</glyph>
<glyph name="uni0263" format="2">
  <advance width="672"/>
  <unicode hex="0263"/>
  <anchor x="340" y="-240" name="bottom"/>
  <anchor x="340" y="536" name="top"/>
  <outline>
    <contour>
      <point x="339" y="-240" type="curve" smooth="yes"/>
      <point x="386" y="-240"/>
      <point x="414" y="-214"/>
      <point x="414" y="-190" type="curve" smooth="yes"/>
      <point x="414" y="-169"/>
      <point x="386" y="-78"/>
      <point x="348" y="2" type="curve"/>
      <point x="555" y="478" type="line" smooth="yes"/>
      <point x="574" y="523"/>
      <point x="575" y="526"/>
      <point x="642" y="526" type="curve" smooth="yes"/>
      <point x="662" y="526" type="line"/>
      <point x="662" y="536" type="line"/>
      <point x="459" y="536" type="line"/>
      <point x="459" y="526" type="line"/>
      <point x="503" y="526" type="line" smooth="yes"/>
      <point x="545" y="526"/>
      <point x="546" y="517"/>
      <point x="546" y="506" type="curve" smooth="yes"/>
      <point x="546" y="474"/>
      <point x="526" y="440"/>
      <point x="497" y="375" type="curve" smooth="yes"/>
      <point x="419" y="195" type="line" smooth="yes"/>
      <point x="373" y="87"/>
      <point x="350" y="34"/>
      <point x="341" y="14" type="curve"/>
      <point x="331" y="45"/>
      <point x="294" y="125"/>
      <point x="268" y="184" type="curve" smooth="yes"/>
      <point x="165" y="415" type="line" smooth="yes"/>
      <point x="152" y="443"/>
      <point x="130" y="482"/>
      <point x="130" y="502" type="curve" smooth="yes"/>
      <point x="130" y="515"/>
      <point x="130" y="526"/>
      <point x="176" y="526" type="curve" smooth="yes"/>
      <point x="216" y="526" type="line"/>
      <point x="216" y="536" type="line"/>
      <point x="13" y="536" type="line"/>
      <point x="13" y="526" type="line"/>
      <point x="82" y="526"/>
      <point x="84" y="529"/>
      <point x="106" y="478" type="curve" smooth="yes"/>
      <point x="329" y="-10" type="line"/>
      <point x="296" y="-86"/>
      <point x="275" y="-141"/>
      <point x="275" y="-178" type="curve" smooth="yes"/>
      <point x="275" y="-217"/>
      <point x="300" y="-240"/>
    </contour>
    <contour>
      <point x="344" y="-230" type="curve" smooth="yes"/>
      <point x="305" y="-230"/>
      <point x="285" y="-212"/>
      <point x="285" y="-179" type="curve" smooth="yes"/>
      <point x="285" y="-142"/>
      <point x="308" y="-92"/>
      <point x="334" y="-25" type="curve"/>
      <point x="374" y="-126"/>
      <point x="384" y="-179"/>
      <point x="384" y="-183" type="curve" smooth="yes"/>
      <point x="384" y="-207"/>
      <point x="369" y="-230"/>
    </contour>
  </outline>
</glyph>
<glyph name="uni0266" format="2">
  <advance width="733"/>
  <unicode hex="0266"/>
  <anchor x="367" y="0" name="bottom"/>
  <anchor x="367" y="766" name="top"/>
  <outline>
    <contour>
      <point x="20" y="0" type="line"/>
      <point x="297" y="0" type="line"/>
      <point x="297" y="10" type="line"/>
      <point x="264" y="10" type="line" smooth="yes"/>
      <point x="178" y="10"/>
      <point x="176" y="12"/>
      <point x="176" y="82" type="curve" smooth="yes"/>
      <point x="176" y="335" type="line" smooth="yes"/>
      <point x="176" y="453"/>
      <point x="269" y="527"/>
      <point x="395" y="527" type="curve" smooth="yes"/>
      <point x="503" y="527"/>
      <point x="556" y="484"/>
      <point x="556" y="356" type="curve" smooth="yes"/>
      <point x="556" y="0" type="line"/>
      <point x="703" y="0" type="line"/>
      <point x="703" y="10" type="line"/>
      <point x="677" y="10" type="line" smooth="yes"/>
      <point x="587" y="10"/>
      <point x="584" y="9"/>
      <point x="584" y="84" type="curve" smooth="yes"/>
      <point x="584" y="360" type="line" smooth="yes"/>
      <point x="584" y="496"/>
      <point x="518" y="542"/>
      <point x="389" y="542" type="curve" smooth="yes"/>
      <point x="297" y="542"/>
      <point x="209" y="494"/>
      <point x="177" y="395" type="curve"/>
      <point x="175" y="395" type="line"/>
      <point x="176" y="451"/>
      <point x="176" y="447"/>
      <point x="176" y="469" type="curve" smooth="yes"/>
      <point x="176" y="698" type="line" smooth="yes"/>
      <point x="176" y="747"/>
      <point x="225" y="756"/>
      <point x="270" y="756" type="curve" smooth="yes"/>
      <point x="292" y="756"/>
      <point x="337" y="767"/>
      <point x="361" y="710" type="curve"/>
      <point x="363" y="712"/>
      <point x="365" y="712"/>
      <point x="365" y="716" type="curve" smooth="yes"/>
      <point x="365" y="734"/>
      <point x="336" y="766"/>
      <point x="275" y="766" type="curve" smooth="yes"/>
      <point x="168" y="766"/>
      <point x="148" y="708"/>
      <point x="148" y="690" type="curve" smooth="yes"/>
      <point x="148" y="82" type="line" smooth="yes"/>
      <point x="148" y="12"/>
      <point x="146" y="10"/>
      <point x="61" y="10" type="curve" smooth="yes"/>
      <point x="20" y="10" type="line"/>
    </contour>
  </outline>
</glyph>
<glyph name="uni026C" format="2">
  <advance width="413"/>
  <unicode hex="026C"/>
  <anchor x="206" y="0" name="bottom"/>
  <anchor x="206" y="760" name="top"/>
  <outline>
    <contour>
      <point x="48" y="0" type="line"/>
      <point x="343" y="0" type="line"/>
      <point x="343" y="30" type="line"/>
      <point x="275" y="30" type="line" smooth="yes"/>
      <point x="218" y="30"/>
      <point x="210" y="34"/>
      <point x="210" y="104" type="curve" smooth="yes"/>
      <point x="210" y="348" type="line"/>
      <point x="334" y="348" type="line"/>
      <point x="334" y="358" type="line"/>
      <point x="210" y="358" type="line"/>
      <point x="210" y="760" type="line"/>
      <point x="48" y="760" type="line"/>
      <point x="48" y="730" type="line"/>
      <point x="109" y="730" type="line" smooth="yes"/>
      <point x="177" y="730"/>
      <point x="182" y="726"/>
      <point x="182" y="652" type="curve" smooth="yes"/>
      <point x="182" y="477" type="line"/>
      <point x="166" y="497"/>
      <point x="142" y="508"/>
      <point x="115" y="508" type="curve" smooth="yes"/>
      <point x="60" y="508"/>
      <point x="28" y="475"/>
      <point x="28" y="421" type="curve" smooth="yes"/>
      <point x="28" y="369"/>
      <point x="62" y="348"/>
      <point x="121" y="348" type="curve" smooth="yes"/>
      <point x="182" y="348" type="line"/>
      <point x="182" y="104" type="line" smooth="yes"/>
      <point x="182" y="34"/>
      <point x="174" y="30"/>
      <point x="117" y="30" type="curve" smooth="yes"/>
      <point x="48" y="30" type="line"/>
    </contour>
    <contour>
      <point x="109" y="358" type="line" smooth="yes"/>
      <point x="64" y="358"/>
      <point x="38" y="382"/>
      <point x="38" y="421" type="curve" smooth="yes"/>
      <point x="38" y="469"/>
      <point x="68" y="498"/>
      <point x="115" y="498" type="curve" smooth="yes"/>
      <point x="142" y="498"/>
      <point x="168" y="488"/>
      <point x="182" y="473" type="curve" smooth="yes"/>
      <point x="182" y="358" type="line"/>
    </contour>
  </outline>
</glyph>
<glyph name="uni0270" format="2">
  <advance width="1102"/>
  <unicode hex="0270"/>
  <anchor x="545" y="-240" name="bottom"/>
  <anchor x="545" y="536" name="top"/>
  <outline>
    <contour>
      <point x="895" y="-252" type="line"/>
      <point x="1057" y="-252" type="line"/>
      <point x="1057" y="-242" type="line"/>
      <point x="995" y="-242" type="line" smooth="yes"/>
      <point x="932" y="-242"/>
      <point x="923" y="-235"/>
      <point x="923" y="-178" type="curve" smooth="yes"/>
      <point x="923" y="456" type="line" smooth="yes"/>
      <point x="923" y="524"/>
      <point x="927" y="526"/>
      <point x="1011" y="526" type="curve" smooth="yes"/>
      <point x="1048" y="526" type="line"/>
      <point x="1048" y="536" type="line"/>
      <point x="773" y="536" type="line"/>
      <point x="773" y="526" type="line"/>
      <point x="811" y="526" type="line" smooth="yes"/>
      <point x="891" y="526"/>
      <point x="895" y="524"/>
      <point x="895" y="456" type="curve" smooth="yes"/>
      <point x="895" y="183" type="line" smooth="yes"/>
      <point x="895" y="96"/>
      <point x="830" y="11"/>
      <point x="713" y="11" type="curve" smooth="yes"/>
      <point x="587" y="11"/>
      <point x="545" y="76"/>
      <point x="545" y="152" type="curve" smooth="yes"/>
      <point x="545" y="536" type="line"/>
      <point x="400" y="536" type="line"/>
      <point x="400" y="526" type="line"/>
      <point x="427" y="526" type="line" smooth="yes"/>
      <point x="515" y="526"/>
      <point x="517" y="524"/>
      <point x="517" y="454" type="curve" smooth="yes"/>
      <point x="517" y="168" type="line" smooth="yes"/>
      <point x="517" y="82"/>
      <point x="454" y="9"/>
      <point x="328" y="9" type="curve" smooth="yes"/>
      <point x="214" y="9"/>
      <point x="167" y="64"/>
      <point x="167" y="152" type="curve" smooth="yes"/>
      <point x="167" y="536" type="line"/>
      <point x="33" y="536" type="line"/>
      <point x="33" y="526" type="line"/>
      <point x="51" y="526" type="line" smooth="yes"/>
      <point x="139" y="526"/>
      <point x="139" y="523"/>
      <point x="139" y="449" type="curve" smooth="yes"/>
      <point x="139" y="178" type="line" smooth="yes"/>
      <point x="139" y="64"/>
      <point x="193" y="-8"/>
      <point x="330" y="-6" type="curve" smooth="yes"/>
      <point x="446" y="-4"/>
      <point x="503" y="58"/>
      <point x="523" y="140" type="curve"/>
      <point x="525" y="140" type="line"/>
      <point x="536" y="55"/>
      <point x="580" y="-6"/>
      <point x="703" y="-6" type="curve" smooth="yes"/>
      <point x="788" y="-6"/>
      <point x="862" y="47"/>
      <point x="892" y="118" type="curve"/>
      <point x="894" y="118" type="line"/>
      <point x="895" y="113"/>
      <point x="895" y="95"/>
      <point x="895" y="83" type="curve" smooth="yes"/>
    </contour>
  </outline>
</glyph>
<glyph name="uni0274" format="2">
  <advance width="792"/>
  <unicode hex="0274"/>
  <anchor x="367" y="0" name="bottom"/>
  <anchor x="367" y="536" name="top"/>
  <outline>
    <contour>
      <point x="42" y="0" type="line"/>
      <point x="314" y="0" type="line"/>
      <point x="314" y="10" type="line"/>
      <point x="277" y="10" type="line" smooth="yes"/>
      <point x="193" y="10"/>
      <point x="190" y="12"/>
      <point x="190" y="82" type="curve" smooth="yes"/>
      <point x="190" y="476" type="line"/>
      <point x="568" y="0" type="line"/>
      <point x="559" y="0" type="line"/>
      <point x="559" y="454" type="line" smooth="yes"/>
      <point x="559" y="522"/>
      <point x="564" y="526"/>
      <point x="643" y="526" type="curve" smooth="yes"/>
      <point x="686" y="526" type="line"/>
      <point x="686" y="536" type="line"/>
      <point x="411" y="536" type="line"/>
      <point x="411" y="526" type="line"/>
      <point x="464" y="526" type="line" smooth="yes"/>
      <point x="548" y="526"/>
      <point x="549" y="523"/>
      <point x="549" y="469" type="curve" smooth="yes"/>
      <point x="549" y="86" type="line"/>
      <point x="185" y="536" type="line"/>
      <point x="42" y="536" type="line"/>
      <point x="42" y="526" type="line"/>
      <point x="93" y="526" type="line" smooth="yes"/>
      <point x="176" y="526"/>
      <point x="180" y="522"/>
      <point x="180" y="454" type="curve" smooth="yes"/>
      <point x="180" y="82" type="line" smooth="yes"/>
      <point x="180" y="12"/>
      <point x="178" y="10"/>
      <point x="95" y="10" type="curve" smooth="yes"/>
      <point x="42" y="10" type="line"/>
    </contour>
  </outline>
</glyph>
<glyph name="uni0278" format="2">
  <advance width="781"/>
  <unicode hex="0278"/>
  <anchor x="390" y="-240" name="bottom"/>
  <anchor x="390" y="268" name="center"/>
  <anchor x="390" y="760" name="top"/>
  <anchor x="763" y="536" name="topright"/>
  <outline>
    <contour>
      <point x="240" y="-240" type="line"/>
      <point x="537" y="-240" type="line"/>
      <point x="537" y="-230" type="line"/>
      <point x="481" y="-230" type="line" smooth="yes"/>
      <point x="408" y="-230"/>
      <point x="404" y="-226"/>
      <point x="404" y="-156" type="curve" smooth="yes"/>
      <point x="404" y="-9" type="line"/>
      <point x="584" y="0"/>
      <point x="699" y="101"/>
      <point x="699" y="269" type="curve" smooth="yes"/>
      <point x="699" y="447"/>
      <point x="576" y="537"/>
      <point x="404" y="545" type="curve"/>
      <point x="404" y="676" type="line" smooth="yes"/>
      <point x="404" y="746"/>
      <point x="408" y="750"/>
      <point x="481" y="750" type="curve" smooth="yes"/>
      <point x="538" y="750" type="line"/>
      <point x="538" y="760" type="line"/>
      <point x="241" y="760" type="line"/>
      <point x="241" y="750" type="line"/>
      <point x="297" y="750" type="line" smooth="yes"/>
      <point x="370" y="750"/>
      <point x="374" y="746"/>
      <point x="374" y="676" type="curve" smooth="yes"/>
      <point x="374" y="545" type="line"/>
      <point x="206" y="537"/>
      <point x="82" y="449"/>
      <point x="82" y="269" type="curve" smooth="yes"/>
      <point x="82" y="93"/>
      <point x="200" y="-1"/>
      <point x="374" y="-9" type="curve"/>
      <point x="374" y="-156" type="line" smooth="yes"/>
      <point x="374" y="-226"/>
      <point x="370" y="-230"/>
      <point x="297" y="-230" type="curve" smooth="yes"/>
      <point x="240" y="-230" type="line"/>
    </contour>
    <contour>
      <point x="374" y="1" type="line"/>
      <point x="180" y="10"/>
      <point x="110" y="133"/>
      <point x="110" y="269" type="curve" smooth="yes"/>
      <point x="110" y="413"/>
      <point x="189" y="527"/>
      <point x="374" y="534" type="curve"/>
    </contour>
    <contour>
      <point x="404" y="1" type="curve"/>
      <point x="404" y="535" type="line"/>
      <point x="591" y="526"/>
      <point x="671" y="414"/>
      <point x="671" y="269" type="curve" smooth="yes"/>
      <point x="671" y="137"/>
      <point x="598" y="10"/>
    </contour>
  </outline>
</glyph>
<glyph name="uni027E" format="2">
  <advance width="467"/>
  <unicode hex="027E"/>
  <anchor x="234" y="0" name="bottom"/>
  <anchor x="234" y="536" name="top"/>
  <outline>
    <contour>
      <point x="10" y="0" type="line"/>
      <point x="326" y="0" type="line"/>
      <point x="326" y="10" type="line"/>
      <point x="239" y="10" type="line" smooth="yes"/>
      <point x="176" y="10"/>
      <point x="168" y="13"/>
      <point x="168" y="82" type="curve" smooth="yes"/>
      <point x="168" y="446" type="line" smooth="yes"/>
      <point x="168" y="503"/>
      <point x="201" y="538"/>
      <point x="299" y="538" type="curve" smooth="yes"/>
      <point x="357" y="538"/>
      <point x="416" y="516"/>
      <point x="416" y="423" type="curve"/>
      <point x="437" y="423"/>
      <point x="448" y="432"/>
      <point x="448" y="451" type="curve" smooth="yes"/>
      <point x="448" y="490"/>
      <point x="395" y="548"/>
      <point x="299" y="548" type="curve" smooth="yes"/>
      <point x="193" y="548"/>
      <point x="140" y="515"/>
      <point x="140" y="410" type="curve" smooth="yes"/>
      <point x="140" y="82" type="line" smooth="yes"/>
      <point x="140" y="13"/>
      <point x="130" y="10"/>
      <point x="71" y="10" type="curve" smooth="yes"/>
      <point x="10" y="10" type="line"/>
    </contour>
  </outline>
</glyph>
<glyph name="cstretched" format="2">
  <advance width="560"/>
  <unicode hex="0297"/>
  <anchor x="280" y="-239" name="bottom"/>
  <anchor x="280" y="536" name="top"/>
  <outline>
    <contour>
      <point x="344" y="-239" type="curve" smooth="yes"/>
      <point x="437" y="-239"/>
      <point x="523" y="-180"/>
      <point x="523" y="-142" type="curve" smooth="yes"/>
      <point x="523" y="-130"/>
      <point x="519" y="-126"/>
      <point x="511" y="-123" type="curve"/>
      <point x="482" y="-188"/>
      <point x="422" y="-227"/>
      <point x="342" y="-229" type="curve" smooth="yes"/>
      <point x="218" y="-231"/>
      <point x="108" y="-96"/>
      <point x="108" y="147" type="curve" smooth="yes"/>
      <point x="108" y="422"/>
      <point x="205" y="532"/>
      <point x="324" y="532" type="curve" smooth="yes"/>
      <point x="436" y="532"/>
      <point x="477" y="454"/>
      <point x="477" y="398" type="curve"/>
      <point x="505" y="400"/>
      <point x="512" y="413"/>
      <point x="512" y="417" type="curve" smooth="yes"/>
      <point x="512" y="487"/>
      <point x="444" y="542"/>
      <point x="332" y="542" type="curve" smooth="yes"/>
      <point x="198" y="542"/>
      <point x="80" y="441"/>
      <point x="80" y="146" type="curve" smooth="yes"/>
      <point x="80" y="-117"/>
      <point x="190" y="-239"/>
    </contour>
  </outline>
</glyph>
<glyph name="tcligcurl" format="2">
  <advance width="884"/>
  <unicode hex="02A8"/>
  <anchor x="442" y="0" name="bottom"/>
  <anchor x="442" y="657" name="top"/>
  <outline>
    <contour>
      <point x="239" y="-10" type="curve" smooth="yes"/>
      <point x="341" y="-10"/>
      <point x="413" y="45"/>
      <point x="454" y="81" type="curve"/>
      <point x="502" y="18"/>
      <point x="576" y="-10"/>
      <point x="673" y="-10" type="curve" smooth="yes"/>
      <point x="755" y="-10"/>
      <point x="831" y="39"/>
      <point x="831" y="121" type="curve" smooth="yes"/>
      <point x="831" y="197"/>
      <point x="775" y="245"/>
      <point x="683" y="245" type="curve" smooth="yes"/>
      <point x="579" y="245"/>
      <point x="529" y="157"/>
      <point x="467" y="102" type="curve"/>
      <point x="442" y="142"/>
      <point x="427" y="196"/>
      <point x="427" y="264" type="curve" smooth="yes"/>
      <point x="427" y="456"/>
      <point x="514" y="532"/>
      <point x="633" y="532" type="curve" smooth="yes"/>
      <point x="739" y="532"/>
      <point x="797" y="460"/>
      <point x="797" y="406" type="curve"/>
      <point x="815" y="408"/>
      <point x="822" y="423"/>
      <point x="822" y="425" type="curve" smooth="yes"/>
      <point x="822" y="486"/>
      <point x="751" y="542"/>
      <point x="645" y="542" type="curve" smooth="yes"/>
      <point x="506" y="542"/>
      <point x="399" y="472"/>
      <point x="399" y="260" type="curve" smooth="yes"/>
      <point x="399" y="187"/>
      <point x="418" y="129"/>
      <point x="449" y="87" type="curve"/>
      <point x="399" y="35"/>
      <point x="330" y="0"/>
      <point x="238" y="0" type="curve" smooth="yes"/>
      <point x="167" y="0"/>
      <point x="145" y="36"/>
      <point x="145" y="139" type="curve" smooth="yes"/>
      <point x="145" y="526" type="line"/>
      <point x="299" y="526" type="line"/>
      <point x="299" y="536" type="line"/>
      <point x="145" y="536" type="line"/>
      <point x="145" y="657" type="line"/>
      <point x="135" y="657" type="line"/>
      <point x="136" y="588"/>
      <point x="128" y="559"/>
      <point x="109" y="547" type="curve"/>
      <point x="90" y="534"/>
      <point x="60" y="534"/>
      <point x="21" y="536" type="curve"/>
      <point x="21" y="526" type="line"/>
      <point x="117" y="526" type="line"/>
      <point x="117" y="141" type="line" smooth="yes"/>
      <point x="117" y="31"/>
      <point x="151" y="-10"/>
    </contour>
    <contour>
      <point x="669" y="0" type="curve" smooth="yes"/>
      <point x="580" y="-2"/>
      <point x="513" y="29"/>
      <point x="471" y="97" type="curve"/>
      <point x="527" y="131"/>
      <point x="578" y="235"/>
      <point x="683" y="235" type="curve" smooth="yes"/>
      <point x="769" y="235"/>
      <point x="821" y="191"/>
      <point x="821" y="122" type="curve" smooth="yes"/>
      <point x="821" y="47"/>
      <point x="748" y="2"/>
    </contour>
  </outline>
</glyph>
<glyph name="uni02BA" format="2">
  <advance width="263"/>
  <unicode hex="02BA"/>
  <outline>
    <contour>
      <point x="18" y="503" type="curve"/>
      <point x="23" y="503" type="line"/>
      <point x="44" y="551"/>
      <point x="65" y="625"/>
      <point x="84" y="703" type="curve"/>
      <point x="73" y="714" type="line"/>
      <point x="50" y="714" type="line"/>
      <point x="39" y="650"/>
      <point x="25" y="560"/>
    </contour>
    <contour>
      <point x="190" y="503" type="curve"/>
      <point x="195" y="503" type="line"/>
      <point x="216" y="551"/>
      <point x="237" y="625"/>
      <point x="256" y="703" type="curve"/>
      <point x="245" y="714" type="line"/>
      <point x="222" y="714" type="line"/>
      <point x="211" y="650"/>
      <point x="197" y="560"/>
    </contour>
  </outline>
</glyph>
<glyph name="macron" format="2">
  <advance width="440"/>
  <unicode hex="02C9"/>
  <outline>
    <contour>
      <point x="40" y="642" type="line"/>
      <point x="400" y="642" type="line"/>
      <point x="400" y="662" type="line"/>
      <point x="40" y="662" type="line"/>
    </contour>
  </outline>
</glyph>
<glyph name="uni02F0" format="2">
  <advance width="361"/>
  <unicode hex="02F0"/>
  <outline>
    <contour>
      <point x="40" y="-240" type="line"/>
      <point x="54" y="-240" type="line"/>
      <point x="70" y="-221"/>
      <point x="160" y="-69"/>
      <point x="179" y="-39" type="curve"/>
      <point x="200" y="-69"/>
      <point x="291" y="-221"/>
      <point x="307" y="-240" type="curve"/>
      <point x="321" y="-240" type="line"/>
      <point x="321" y="-232" type="line"/>
      <point x="274" y="-155"/>
      <point x="221" y="-71"/>
      <point x="190" y="-28" type="curve"/>
      <point x="170" y="-28" type="line"/>
      <point x="131" y="-92"/>
      <point x="79" y="-169"/>
      <point x="40" y="-232" type="curve"/>
    </contour>
  </outline>
</glyph>
<glyph name="circumflexbelowcomb" format="2">
  <unicode hex="032D"/>
  <anchor x="0" y="0" name="_bottom"/>
  <anchor x="0" y="-222" name="bottom"/>
  <outline>
    <contour>
      <point x="-131" y="-222" type="line"/>
      <point x="-131" y="-222" type="line"/>
      <point x="-73" y="-172"/>
      <point x="-40" y="-137"/>
      <point x="1" y="-87" type="curve"/>
      <point x="41" y="-137"/>
      <point x="75" y="-172"/>
      <point x="133" y="-222" type="curve"/>
      <point x="133" y="-222" type="line"/>
      <point x="133" y="-213" type="line"/>
      <point x="97" y="-176"/>
      <point x="46" y="-112"/>
      <point x="18" y="-62" type="curve"/>
      <point x="-17" y="-62" type="line"/>
      <point x="-44" y="-112"/>
      <point x="-95" y="-176"/>
      <point x="-131" y="-213" type="curve"/>
    </contour>
  </outline>
</glyph>
<glyph name="xabovecomb" format="2">
  <unicode hex="033D"/>
  <anchor x="-1" y="536" name="_top"/>
  <anchor x="-1" y="753" name="top"/>
  <outline>
    <contour>
      <point x="-77" y="579" type="line"/>
      <point x="0" y="651" type="line"/>
      <point x="79" y="581" type="line"/>
      <point x="95" y="596" type="line"/>
      <point x="15" y="667" type="line"/>
      <point x="93" y="738" type="line"/>
      <point x="80" y="752" type="line"/>
      <point x="0" y="680" type="line"/>
      <point x="-80" y="750" type="line"/>
      <point x="-93" y="736" type="line"/>
      <point x="-15" y="665" type="line"/>
      <point x="-91" y="596" type="line"/>
    </contour>
  </outline>
</glyph>
<glyph name="homotheticabovecomb" format="2">
  <unicode hex="034B"/>
  <anchor x="1" y="536" name="_top"/>
  <anchor x="1" y="810" name="top"/>
  <outline>
    <contour>
      <point x="-185" y="654" type="curve"/>
      <point x="-175" y="654" type="line"/>
      <point x="-168" y="678"/>
      <point x="-164" y="714"/>
      <point x="-92" y="714" type="curve" smooth="yes"/>
      <point x="-36" y="714"/>
      <point x="38" y="640"/>
      <point x="104" y="640" type="curve" smooth="yes"/>
      <point x="161" y="640"/>
      <point x="182" y="674"/>
      <point x="186" y="714" type="curve"/>
      <point x="176" y="714" type="line"/>
      <point x="170" y="687"/>
      <point x="162" y="664"/>
      <point x="100" y="664" type="curve" smooth="yes"/>
      <point x="50" y="664"/>
      <point x="-13" y="738"/>
      <point x="-92" y="738" type="curve" smooth="yes"/>
      <point x="-155" y="738"/>
      <point x="-181" y="687"/>
    </contour>
    <contour>
      <point x="1" y="589" type="curve" smooth="yes"/>
      <point x="9" y="589"/>
      <point x="18" y="593"/>
      <point x="18" y="621" type="curve" smooth="yes"/>
      <point x="18" y="648"/>
      <point x="9" y="653"/>
      <point x="1" y="653" type="curve" smooth="yes"/>
      <point x="-6" y="653"/>
      <point x="-15" y="648"/>
      <point x="-15" y="621" type="curve" smooth="yes"/>
      <point x="-15" y="593"/>
      <point x="-6" y="589"/>
    </contour>
    <contour>
      <point x="1" y="746" type="curve" smooth="yes"/>
      <point x="9" y="746"/>
      <point x="18" y="750"/>
      <point x="18" y="778" type="curve" smooth="yes"/>
      <point x="18" y="805"/>
      <point x="9" y="810"/>
      <point x="1" y="810" type="curve" smooth="yes"/>
      <point x="-6" y="810"/>
      <point x="-15" y="805"/>
      <point x="-15" y="778" type="curve" smooth="yes"/>
      <point x="-15" y="750"/>
      <point x="-6" y="746"/>
    </contour>
  </outline>
</glyph>
<glyph name="zigzagabovecomb" format="2">
  <unicode hex="035B"/>
  <anchor x="0" y="536" name="_top"/>
  <anchor x="0" y="783" name="top"/>
  <outline>
    <contour>
      <point x="23" y="596" type="line"/>
      <point x="43" y="596" type="line"/>
      <point x="81" y="700" type="line"/>
      <point x="-52" y="700" type="line"/>
      <point x="-25" y="783" type="line"/>
      <point x="-45" y="783" type="line"/>
      <point x="-82" y="680" type="line"/>
      <point x="53" y="680" type="line"/>
    </contour>
  </outline>
</glyph>
<glyph name="Archaicsampi" format="2">
  <advance width="719"/>
  <unicode hex="0372"/>
  <anchor x="359" y="0" name="bottom"/>
  <anchor x="359" y="714" name="top"/>
  <outline>
    <contour>
      <point x="195" y="0" type="line"/>
      <point x="526" y="0" type="line"/>
      <point x="526" y="10" type="line"/>
      <point x="439" y="10" type="line" smooth="yes"/>
      <point x="379" y="10"/>
      <point x="375" y="21"/>
      <point x="375" y="98" type="curve" smooth="yes"/>
      <point x="375" y="694" type="line"/>
      <point x="609" y="694" type="line" smooth="yes"/>
      <point x="627" y="694"/>
      <point x="648" y="666"/>
      <point x="647" y="708" type="curve" smooth="yes"/>
      <point x="664" y="322" type="line"/>
      <point x="674" y="322" type="line"/>
      <point x="659" y="714" type="line"/>
      <point x="66" y="714" type="line"/>
      <point x="45" y="322" type="line"/>
      <point x="55" y="322" type="line"/>
      <point x="78" y="718" type="line" smooth="yes"/>
      <point x="77" y="654"/>
      <point x="96" y="694"/>
      <point x="116" y="694" type="curve" smooth="yes"/>
      <point x="347" y="694" type="line"/>
      <point x="347" y="98" type="line" smooth="yes"/>
      <point x="347" y="21"/>
      <point x="343" y="10"/>
      <point x="283" y="10" type="curve" smooth="yes"/>
      <point x="195" y="10" type="line"/>
    </contour>
  </outline>
</glyph>
<glyph name="uni0374" format="2">
  <advance width="188"/>
  <unicode hex="0374"/>
  <outline>
    <contour>
      <point x="99" y="564" type="line"/>
      <point x="109" y="564" type="line"/>
      <point x="134" y="609"/>
      <point x="160" y="676"/>
      <point x="175" y="706" type="curve"/>
      <point x="175" y="714" type="line"/>
      <point x="149" y="714" type="line"/>
      <point x="141" y="697"/>
      <point x="119" y="626"/>
      <point x="99" y="577" type="curve"/>
    </contour>
  </outline>
</glyph>
<glyph name="tonos" format="2">
  <advance width="717"/>
  <unicode hex="0384"/>
  <anchor x="395" y="536" name="_top"/>
  <outline>
    <contour>
      <point x="357" y="606" type="line"/>
      <point x="361" y="606" type="line"/>
      <point x="394" y="681"/>
      <point x="403" y="702"/>
      <point x="438" y="784" type="curve"/>
      <point x="438" y="796" type="line"/>
      <point x="408" y="796" type="line"/>
      <point x="388" y="723"/>
      <point x="377" y="678"/>
      <point x="357" y="614" type="curve"/>
    </contour>
  </outline>
</glyph>
<glyph name="upsilon" format="2">
  <advance width="675"/>
  <unicode hex="03C5"/>
  <anchor x="338" y="0" name="bottom"/>
  <anchor x="338" y="536" name="top"/>
  <outline>
    <contour>
      <point x="318" y="-10" type="curve" smooth="yes"/>
      <point x="507" y="-10"/>
      <point x="584" y="178"/>
      <point x="584" y="345" type="curve" smooth="yes"/>
      <point x="584" y="532"/>
      <point x="550" y="544"/>
      <point x="518" y="544" type="curve" smooth="yes"/>
      <point x="495" y="544"/>
      <point x="485" y="540"/>
      <point x="471" y="518" type="curve"/>
      <point x="551" y="499"/>
      <point x="568" y="495"/>
      <point x="568" y="321" type="curve" smooth="yes"/>
      <point x="568" y="190"/>
      <point x="496" y="5"/>
      <point x="314" y="5" type="curve" smooth="yes"/>
      <point x="177" y="5"/>
      <point x="165" y="104"/>
      <point x="165" y="227" type="curve" smooth="yes"/>
      <point x="165" y="536" type="line"/>
      <point x="42" y="536" type="line"/>
      <point x="42" y="526" type="line"/>
      <point x="66" y="526" type="line" smooth="yes"/>
      <point x="128" y="526"/>
      <point x="137" y="512"/>
      <point x="137" y="455" type="curve" smooth="yes"/>
      <point x="137" y="187" type="line" smooth="yes"/>
      <point x="137" y="54"/>
      <point x="191" y="-10"/>
    </contour>
  </outline>
</glyph>
<glyph name="phi" format="2">
  <advance width="789"/>
  <unicode hex="03C6"/>
  <anchor x="395" y="-240" name="bottom"/>
  <anchor x="395" y="544" name="top"/>
  <anchor x="769" y="536" name="topright"/>
  <outline>
    <contour>
      <point x="380" y="-240" type="line"/>
      <point x="405" y="-240" type="line"/>
      <point x="405" y="-9" type="line"/>
      <point x="628" y="4"/>
      <point x="703" y="133"/>
      <point x="703" y="273" type="curve" smooth="yes"/>
      <point x="703" y="490"/>
      <point x="626" y="544"/>
      <point x="514" y="544" type="curve" smooth="yes"/>
      <point x="423" y="544"/>
      <point x="380" y="514"/>
      <point x="380" y="416" type="curve" smooth="yes"/>
      <point x="380" y="3" type="line"/>
      <point x="207" y="7"/>
      <point x="114" y="98"/>
      <point x="114" y="259" type="curve" smooth="yes"/>
      <point x="114" y="382"/>
      <point x="148" y="486"/>
      <point x="295" y="519" type="curve"/>
      <point x="299" y="531" type="line"/>
      <point x="145" y="504"/>
      <point x="86" y="393"/>
      <point x="86" y="259" type="curve" smooth="yes"/>
      <point x="86" y="108"/>
      <point x="184" y="1"/>
      <point x="380" y="-9" type="curve"/>
    </contour>
    <contour>
      <point x="405" y="3" type="curve"/>
      <point x="405" y="436" type="line" smooth="yes"/>
      <point x="405" y="504"/>
      <point x="443" y="534"/>
      <point x="510" y="534" type="curve" smooth="yes"/>
      <point x="615" y="534"/>
      <point x="675" y="461"/>
      <point x="675" y="273" type="curve" smooth="yes"/>
      <point x="675" y="155"/>
      <point x="624" y="14"/>
    </contour>
  </outline>
</glyph>
<glyph name="uni03D0" format="2">
  <advance width="650"/>
  <unicode hex="03D0"/>
  <anchor x="325" y="-10" name="bottom"/>
  <anchor x="325" y="760" name="top"/>
  <outline>
    <contour>
      <point x="327" y="-10" type="curve" smooth="yes"/>
      <point x="497" y="-10"/>
      <point x="568" y="103"/>
      <point x="568" y="245" type="curve" smooth="yes"/>
      <point x="568" y="384"/>
      <point x="502" y="477"/>
      <point x="331" y="477" type="curve" smooth="yes"/>
      <point x="218" y="477"/>
      <point x="138" y="415"/>
      <point x="109" y="334" type="curve"/>
      <point x="107" y="334" type="line"/>
      <point x="110" y="437"/>
      <point x="127" y="556"/>
      <point x="174" y="642" type="curve"/>
      <point x="215" y="589"/>
      <point x="275" y="541"/>
      <point x="354" y="541" type="curve" smooth="yes"/>
      <point x="431" y="541"/>
      <point x="489" y="585"/>
      <point x="489" y="655" type="curve" smooth="yes"/>
      <point x="489" y="721"/>
      <point x="432" y="760"/>
      <point x="350" y="760" type="curve" smooth="yes"/>
      <point x="139" y="760"/>
      <point x="82" y="514"/>
      <point x="82" y="312" type="curve" smooth="yes"/>
      <point x="82" y="117"/>
      <point x="153" y="-10"/>
    </contour>
    <contour>
      <point x="326" y="0" type="curve" smooth="yes"/>
      <point x="209" y="0"/>
      <point x="116" y="80"/>
      <point x="116" y="265" type="curve" smooth="yes"/>
      <point x="116" y="336"/>
      <point x="169" y="467"/>
      <point x="333" y="467" type="curve" smooth="yes"/>
      <point x="515" y="467"/>
      <point x="541" y="342"/>
      <point x="541" y="245" type="curve" smooth="yes"/>
      <point x="541" y="103"/>
      <point x="484" y="0"/>
    </contour>
    <contour>
      <point x="355" y="551" type="curve" smooth="yes"/>
      <point x="289" y="551"/>
      <point x="228" y="590"/>
      <point x="181" y="653" type="curve"/>
      <point x="221" y="711"/>
      <point x="280" y="750"/>
      <point x="361" y="750" type="curve" smooth="yes"/>
      <point x="426" y="750"/>
      <point x="479" y="713"/>
      <point x="479" y="654" type="curve" smooth="yes"/>
      <point x="479" y="590"/>
      <point x="426" y="551"/>
    </contour>
  </outline>
</glyph>
<glyph name="uni03E0" format="2">
  <advance width="633"/>
  <unicode hex="03E0"/>
  <anchor x="316" y="0" name="bottom"/>
  <anchor x="316" y="714" name="top"/>
  <outline>
    <contour>
      <point x="244" y="-10" type="line"/>
      <point x="444" y="-10"/>
      <point x="561" y="101"/>
      <point x="561" y="332" type="curve" smooth="yes"/>
      <point x="561" y="652"/>
      <point x="398" y="724"/>
      <point x="274" y="724" type="curve" smooth="yes"/>
      <point x="78" y="724"/>
      <point x="46" y="645"/>
      <point x="46" y="627" type="curve" smooth="yes"/>
      <point x="46" y="604"/>
      <point x="51" y="592"/>
      <point x="62" y="592" type="curve"/>
      <point x="62" y="690"/>
      <point x="152" y="712"/>
      <point x="248" y="712" type="curve" smooth="yes"/>
      <point x="326" y="712"/>
      <point x="393" y="677"/>
      <point x="441" y="623" type="curve"/>
      <point x="118" y="492" type="line"/>
      <point x="122" y="482" type="line"/>
      <point x="446" y="614" type="line"/>
      <point x="473" y="581"/>
      <point x="492" y="541"/>
      <point x="507" y="500" type="curve"/>
      <point x="181" y="362" type="line"/>
      <point x="185" y="352" type="line"/>
      <point x="512" y="490" type="line"/>
      <point x="525" y="440"/>
      <point x="533" y="381"/>
      <point x="533" y="322" type="curve" smooth="yes"/>
      <point x="533" y="-13"/>
      <point x="344" y="0"/>
      <point x="244" y="0" type="curve"/>
    </contour>
  </outline>
</glyph>
<glyph name="afii10058" format="2">
  <advance width="987"/>
  <unicode hex="0409"/>
  <anchor x="494" y="0" name="bottom"/>
  <anchor x="494" y="714" name="top"/>
  <outline>
    <contour>
      <point x="100" y="-7" type="curve" smooth="yes"/>
      <point x="234" y="-7"/>
      <point x="266" y="115"/>
      <point x="315" y="423" type="curve" smooth="yes"/>
      <point x="354" y="668"/>
      <point x="330" y="832"/>
      <point x="330" y="694" type="curve"/>
      <point x="524" y="694" type="line"/>
      <point x="524" y="98" type="line" smooth="yes"/>
      <point x="524" y="19"/>
      <point x="514" y="10"/>
      <point x="492" y="10" type="curve" smooth="yes"/>
      <point x="407" y="10" type="line"/>
      <point x="407" y="0" type="line"/>
      <point x="644" y="0" type="line" smooth="yes"/>
      <point x="841" y="0"/>
      <point x="926" y="87"/>
      <point x="926" y="191" type="curve" smooth="yes"/>
      <point x="926" y="317"/>
      <point x="838" y="388"/>
      <point x="673" y="388" type="curve" smooth="yes"/>
      <point x="552" y="388" type="line"/>
      <point x="552" y="614" type="line" smooth="yes"/>
      <point x="552" y="692"/>
      <point x="564" y="704"/>
      <point x="568" y="704" type="curve" smooth="yes"/>
      <point x="712" y="704" type="line"/>
      <point x="712" y="714" type="line"/>
      <point x="203" y="714" type="line"/>
      <point x="203" y="704" type="line"/>
      <point x="298" y="704" type="line" smooth="yes"/>
      <point x="320" y="704"/>
      <point x="317" y="694"/>
      <point x="317" y="651" type="curve" smooth="yes"/>
      <point x="317" y="598"/>
      <point x="314" y="504"/>
      <point x="293" y="376" type="curve" smooth="yes"/>
      <point x="255" y="149"/>
      <point x="214" y="15"/>
      <point x="112" y="15" type="curve" smooth="yes"/>
      <point x="62" y="15"/>
      <point x="37" y="38"/>
      <point x="31" y="88" type="curve"/>
      <point x="14" y="89"/>
      <point x="0" y="83"/>
      <point x="0" y="62" type="curve" smooth="yes"/>
      <point x="0" y="25"/>
      <point x="37" y="-7"/>
    </contour>
    <contour>
      <point x="552" y="10" type="line"/>
      <point x="552" y="378" type="line"/>
      <point x="658" y="378" type="line" smooth="yes"/>
      <point x="808" y="378"/>
      <point x="898" y="315"/>
      <point x="898" y="191" type="curve" smooth="yes"/>
      <point x="898" y="58"/>
      <point x="813" y="10"/>
      <point x="628" y="10" type="curve" smooth="yes"/>
    </contour>
  </outline>
</glyph>
<glyph name="afii10028" format="2">
  <advance width="814"/>
  <unicode hex="041A"/>
  <anchor x="407" y="0" name="bottom"/>
  <anchor x="407" y="714" name="top"/>
  <outline>
    <contour>
      <point x="64" y="0" type="line"/>
      <point x="327" y="0" type="line"/>
      <point x="327" y="10" type="line"/>
      <point x="268" y="10" type="line" smooth="yes"/>
      <point x="225" y="10"/>
      <point x="216" y="21"/>
      <point x="216" y="94" type="curve" smooth="yes"/>
      <point x="216" y="352" type="line"/>
      <point x="396" y="352"/>
      <point x="446" y="338"/>
      <point x="489" y="268" type="curve" smooth="yes"/>
      <point x="597" y="86" type="line" smooth="yes"/>
      <point x="654" y="-8"/>
      <point x="727" y="0"/>
      <point x="748" y="0" type="curve" smooth="yes"/>
      <point x="764" y="0" type="line"/>
      <point x="764" y="10" type="line"/>
      <point x="760" y="10" type="line" smooth="yes"/>
      <point x="714" y="10"/>
      <point x="676" y="15"/>
      <point x="639" y="72" type="curve" smooth="yes"/>
      <point x="529" y="250" type="line" smooth="yes"/>
      <point x="499" y="297"/>
      <point x="449" y="353"/>
      <point x="328" y="359" type="curve"/>
      <point x="377" y="363"/>
      <point x="409" y="413"/>
      <point x="455" y="529" type="curve" smooth="yes"/>
      <point x="509" y="666"/>
      <point x="562" y="696"/>
      <point x="620" y="696" type="curve" smooth="yes"/>
      <point x="685" y="696"/>
      <point x="723" y="662"/>
      <point x="723" y="606" type="curve"/>
      <point x="746" y="611"/>
      <point x="744" y="634"/>
      <point x="744" y="642" type="curve" smooth="yes"/>
      <point x="744" y="668"/>
      <point x="718" y="720"/>
      <point x="621" y="720" type="curve" smooth="yes"/>
      <point x="525" y="720"/>
      <point x="500" y="678"/>
      <point x="456" y="563" type="curve" smooth="yes"/>
      <point x="419" y="465"/>
      <point x="398" y="426"/>
      <point x="379" y="401" type="curve" smooth="yes"/>
      <point x="350" y="366"/>
      <point x="338" y="362"/>
      <point x="216" y="362" type="curve"/>
      <point x="216" y="613" type="line" smooth="yes"/>
      <point x="216" y="693"/>
      <point x="218" y="704"/>
      <point x="282" y="704" type="curve" smooth="yes"/>
      <point x="327" y="704" type="line"/>
      <point x="327" y="714" type="line"/>
      <point x="64" y="714" type="line"/>
      <point x="64" y="704" type="line"/>
      <point x="130" y="704" type="line" smooth="yes"/>
      <point x="184" y="704"/>
      <point x="188" y="693"/>
      <point x="188" y="613" type="curve" smooth="yes"/>
      <point x="188" y="98" type="line" smooth="yes"/>
      <point x="188" y="21"/>
      <point x="184" y="10"/>
      <point x="128" y="10" type="curve" smooth="yes"/>
      <point x="64" y="10" type="line"/>
    </contour>
  </outline>
</glyph>
<glyph name="afii10040" format="2">
  <advance width="867"/>
  <unicode hex="0426"/>
  <anchor x="434" y="0" name="bottom"/>
  <anchor x="434" y="714" name="top"/>
  <outline>
    <contour>
      <point x="808" y="-210" type="curve"/>
      <point x="818" y="-210" type="line"/>
      <point x="818" y="20" type="line"/>
      <point x="712" y="20" type="line" smooth="yes"/>
      <point x="690" y="20"/>
      <point x="680" y="21"/>
      <point x="680" y="100" type="curve" smooth="yes"/>
      <point x="680" y="614" type="line" smooth="yes"/>
      <point x="680" y="693"/>
      <point x="682" y="704"/>
      <point x="744" y="704" type="curve" smooth="yes"/>
      <point x="799" y="704" type="line"/>
      <point x="799" y="714" type="line"/>
      <point x="535" y="714" type="line"/>
      <point x="535" y="704" type="line"/>
      <point x="596" y="704" type="line" smooth="yes"/>
      <point x="644" y="704"/>
      <point x="652" y="693"/>
      <point x="652" y="614" type="curve" smooth="yes"/>
      <point x="652" y="15" type="line"/>
      <point x="217" y="15" type="line"/>
      <point x="217" y="614" type="line" smooth="yes"/>
      <point x="217" y="693"/>
      <point x="219" y="704"/>
      <point x="277" y="704" type="curve" smooth="yes"/>
      <point x="328" y="704" type="line"/>
      <point x="328" y="714" type="line"/>
      <point x="66" y="714" type="line"/>
      <point x="66" y="704" type="line"/>
      <point x="137" y="704" type="line" smooth="yes"/>
      <point x="181" y="704"/>
      <point x="189" y="693"/>
      <point x="189" y="614" type="curve" smooth="yes"/>
      <point x="189" y="98" type="line" smooth="yes"/>
      <point x="189" y="21"/>
      <point x="181" y="10"/>
      <point x="137" y="10" type="curve" smooth="yes"/>
      <point x="66" y="10" type="line"/>
      <point x="66" y="0" type="line"/>
      <point x="849" y="0" type="line" smooth="yes"/>
      <point x="803" y="0"/>
      <point x="808" y="-72"/>
    </contour>
  </outline>
</glyph>
<glyph name="afii10044" format="2">
  <advance width="809"/>
  <unicode hex="042A"/>
  <anchor x="404" y="0" name="bottom"/>
  <anchor x="404" y="714" name="top"/>
  <outline>
    <contour>
      <point x="183" y="0" type="line"/>
      <point x="434" y="0" type="line" smooth="yes"/>
      <point x="621" y="0"/>
      <point x="746" y="45"/>
      <point x="746" y="191" type="curve" smooth="yes"/>
      <point x="746" y="333"/>
      <point x="656" y="388"/>
      <point x="489" y="388" type="curve" smooth="yes"/>
      <point x="328" y="388" type="line"/>
      <point x="328" y="614" type="line" smooth="yes"/>
      <point x="328" y="692"/>
      <point x="344" y="704"/>
      <point x="382" y="704" type="curve" smooth="yes"/>
      <point x="486" y="704" type="line"/>
      <point x="486" y="714" type="line"/>
      <point x="47" y="714" type="line"/>
      <point x="41" y="554" type="line"/>
      <point x="51" y="554" type="line"/>
      <point x="53" y="597" type="line" smooth="yes"/>
      <point x="55" y="676"/>
      <point x="67" y="694"/>
      <point x="103" y="694" type="curve" smooth="yes"/>
      <point x="300" y="694" type="line"/>
      <point x="300" y="98" type="line" smooth="yes"/>
      <point x="300" y="21"/>
      <point x="290" y="10"/>
      <point x="244" y="10" type="curve" smooth="yes"/>
      <point x="183" y="10" type="line"/>
    </contour>
    <contour>
      <point x="328" y="10" type="line"/>
      <point x="328" y="378" type="line"/>
      <point x="472" y="378" type="line" smooth="yes"/>
      <point x="634" y="378"/>
      <point x="718" y="337"/>
      <point x="718" y="191" type="curve" smooth="yes"/>
      <point x="718" y="58"/>
      <point x="629" y="10"/>
      <point x="444" y="10" type="curve" smooth="yes"/>
    </contour>
  </outline>
</glyph>
<glyph name="afii10046" format="2">
  <advance width="690"/>
  <unicode hex="042C"/>
  <anchor x="345" y="0" name="bottom"/>
  <anchor x="345" y="714" name="top"/>
  <outline>
    <contour>
      <point x="64" y="0" type="line"/>
      <point x="315" y="0" type="line" smooth="yes"/>
      <point x="502" y="0"/>
      <point x="627" y="45"/>
      <point x="627" y="191" type="curve" smooth="yes"/>
      <point x="627" y="333"/>
      <point x="537" y="388"/>
      <point x="370" y="388" type="curve" smooth="yes"/>
      <point x="216" y="388" type="line"/>
      <point x="216" y="614" type="line" smooth="yes"/>
      <point x="216" y="693"/>
      <point x="218" y="704"/>
      <point x="278" y="704" type="curve" smooth="yes"/>
      <point x="315" y="704" type="line"/>
      <point x="315" y="714" type="line"/>
      <point x="64" y="714" type="line"/>
      <point x="64" y="704" type="line"/>
      <point x="136" y="704" type="line" smooth="yes"/>
      <point x="180" y="704"/>
      <point x="188" y="693"/>
      <point x="188" y="614" type="curve" smooth="yes"/>
      <point x="188" y="98" type="line" smooth="yes"/>
      <point x="188" y="21"/>
      <point x="184" y="10"/>
      <point x="128" y="10" type="curve" smooth="yes"/>
      <point x="64" y="10" type="line"/>
    </contour>
    <contour>
      <point x="216" y="10" type="line"/>
      <point x="216" y="378" type="line"/>
      <point x="353" y="378" type="line" smooth="yes"/>
      <point x="515" y="378"/>
      <point x="599" y="337"/>
      <point x="599" y="191" type="curve" smooth="yes"/>
      <point x="599" y="58"/>
      <point x="510" y="10"/>
      <point x="325" y="10" type="curve" smooth="yes"/>
    </contour>
  </outline>
</glyph>
<glyph name="afii10066" format="2">
  <advance width="654"/>
  <unicode hex="0431"/>
  <anchor x="327" y="0" name="bottom"/>
  <anchor x="327" y="756" name="top"/>
  <outline>
    <contour>
      <point x="320" y="-10" type="curve" smooth="yes"/>
      <point x="497" y="-10"/>
      <point x="572" y="91"/>
      <point x="572" y="254" type="curve" smooth="yes"/>
      <point x="572" y="419"/>
      <point x="497" y="516"/>
      <point x="341" y="516" type="curve" smooth="yes"/>
      <point x="259" y="516"/>
      <point x="137" y="489"/>
      <point x="97" y="350" type="curve"/>
      <point x="95" y="350" type="line"/>
      <point x="95" y="497"/>
      <point x="142" y="642"/>
      <point x="320" y="652" type="curve" smooth="yes"/>
      <point x="515" y="667"/>
      <point x="551" y="691"/>
      <point x="556" y="756" type="curve"/>
      <point x="548" y="756" type="line"/>
      <point x="534" y="687"/>
      <point x="424" y="687"/>
      <point x="326" y="681" type="curve" smooth="yes"/>
      <point x="120" y="663"/>
      <point x="82" y="451"/>
      <point x="82" y="283" type="curve" smooth="yes"/>
      <point x="82" y="103"/>
      <point x="160" y="-10"/>
    </contour>
    <contour>
      <point x="320" y="0" type="curve" smooth="yes"/>
      <point x="162" y="0"/>
      <point x="110" y="141"/>
      <point x="110" y="276" type="curve" smooth="yes"/>
      <point x="110" y="387"/>
      <point x="189" y="506"/>
      <point x="339" y="506" type="curve" smooth="yes"/>
      <point x="490" y="506"/>
      <point x="544" y="413"/>
      <point x="544" y="258" type="curve" smooth="yes"/>
      <point x="544" y="104"/>
      <point x="498" y="0"/>
    </contour>
  </outline>
</glyph>
<glyph name="afii10072" format="2">
  <advance width="978"/>
  <unicode hex="0436"/>
  <anchor x="489" y="0" name="bottom"/>
  <anchor x="489" y="536" name="top"/>
  <outline>
    <contour>
      <point x="16" y="0" type="line"/>
      <point x="31" y="0" type="line" smooth="yes"/>
      <point x="117" y="0"/>
      <point x="149" y="52"/>
      <point x="151" y="50" type="curve" smooth="yes"/>
      <point x="209" y="164" type="line" smooth="yes"/>
      <point x="256" y="256"/>
      <point x="307" y="265"/>
      <point x="475" y="265" type="curve"/>
      <point x="475" y="83" type="line" smooth="yes"/>
      <point x="475" y="12"/>
      <point x="473" y="10"/>
      <point x="379" y="10" type="curve" smooth="yes"/>
      <point x="329" y="10" type="line"/>
      <point x="329" y="0" type="line"/>
      <point x="622" y="0" type="line"/>
      <point x="622" y="10" type="line"/>
      <point x="587" y="10" type="line" smooth="yes"/>
      <point x="509" y="10"/>
      <point x="503" y="12"/>
      <point x="503" y="82" type="curve" smooth="yes"/>
      <point x="503" y="265" type="line"/>
      <point x="672" y="265"/>
      <point x="722" y="256"/>
      <point x="770" y="164" type="curve" smooth="yes"/>
      <point x="828" y="50" type="line" smooth="yes"/>
      <point x="830" y="52"/>
      <point x="862" y="0"/>
      <point x="948" y="0" type="curve" smooth="yes"/>
      <point x="963" y="0" type="line"/>
      <point x="963" y="10" type="line"/>
      <point x="942" y="10" type="line" smooth="yes"/>
      <point x="895" y="10"/>
      <point x="880" y="5"/>
      <point x="835" y="94" type="curve" smooth="yes"/>
      <point x="793" y="173" type="line"/>
      <point x="756" y="250"/>
      <point x="716" y="269"/>
      <point x="599" y="272" type="curve"/>
      <point x="683" y="289"/>
      <point x="716" y="340"/>
      <point x="746" y="396" type="curve" smooth="yes"/>
      <point x="783" y="464"/>
      <point x="816" y="521"/>
      <point x="870" y="521" type="curve" smooth="yes"/>
      <point x="931" y="521"/>
      <point x="941" y="488"/>
      <point x="940" y="433" type="curve"/>
      <point x="961" y="439"/>
      <point x="958" y="461"/>
      <point x="958" y="475" type="curve" smooth="yes"/>
      <point x="958" y="515"/>
      <point x="915" y="542"/>
      <point x="878" y="542" type="curve" smooth="yes"/>
      <point x="798" y="542"/>
      <point x="772" y="489"/>
      <point x="746" y="430" type="curve" smooth="yes"/>
      <point x="725" y="385"/>
      <point x="709" y="352"/>
      <point x="683" y="330" type="curve" smooth="yes"/>
      <point x="623" y="272"/>
      <point x="570" y="275"/>
      <point x="503" y="275" type="curve"/>
      <point x="503" y="454" type="line" smooth="yes"/>
      <point x="503" y="521"/>
      <point x="507" y="526"/>
      <point x="585" y="526" type="curve" smooth="yes"/>
      <point x="621" y="526" type="line"/>
      <point x="621" y="536" type="line"/>
      <point x="329" y="536" type="line"/>
      <point x="329" y="526" type="line"/>
      <point x="398" y="526" type="line" smooth="yes"/>
      <point x="468" y="526"/>
      <point x="475" y="522"/>
      <point x="475" y="454" type="curve" smooth="yes"/>
      <point x="475" y="275" type="line"/>
      <point x="408" y="275"/>
      <point x="356" y="273"/>
      <point x="296" y="330" type="curve" smooth="yes"/>
      <point x="270" y="352"/>
      <point x="254" y="385"/>
      <point x="233" y="430" type="curve" smooth="yes"/>
      <point x="207" y="489"/>
      <point x="181" y="542"/>
      <point x="101" y="542" type="curve" smooth="yes"/>
      <point x="64" y="542"/>
      <point x="21" y="515"/>
      <point x="21" y="475" type="curve" smooth="yes"/>
      <point x="21" y="461"/>
      <point x="18" y="439"/>
      <point x="39" y="433" type="curve"/>
      <point x="38" y="488"/>
      <point x="48" y="521"/>
      <point x="109" y="521" type="curve" smooth="yes"/>
      <point x="163" y="521"/>
      <point x="195" y="463"/>
      <point x="233" y="396" type="curve" smooth="yes"/>
      <point x="264" y="340"/>
      <point x="296" y="289"/>
      <point x="380" y="272" type="curve"/>
      <point x="263" y="269"/>
      <point x="223" y="250"/>
      <point x="186" y="173" type="curve"/>
      <point x="144" y="94" type="line" smooth="yes"/>
      <point x="99" y="5"/>
      <point x="84" y="10"/>
      <point x="37" y="10" type="curve" smooth="yes"/>
      <point x="16" y="10" type="line"/>
    </contour>
  </outline>
</glyph>
<glyph name="afii10079" format="2">
  <advance width="858"/>
  <unicode hex="043D"/>
  <anchor x="429" y="0" name="bottom"/>
  <anchor x="429" y="536" name="top"/>
  <outline>
    <contour>
      <point x="41" y="0" type="line"/>
      <point x="328" y="0" type="line"/>
      <point x="328" y="10" type="line"/>
      <point x="278" y="10" type="line" smooth="yes"/>
      <point x="208" y="10"/>
      <point x="201" y="13"/>
      <point x="201" y="82" type="curve" smooth="yes"/>
      <point x="201" y="270" type="line"/>
      <point x="656" y="270" type="line"/>
      <point x="656" y="82" type="line" smooth="yes"/>
      <point x="656" y="12"/>
      <point x="652" y="10"/>
      <point x="571" y="10" type="curve" smooth="yes"/>
      <point x="530" y="10" type="line"/>
      <point x="530" y="0" type="line"/>
      <point x="817" y="0" type="line"/>
      <point x="817" y="10" type="line"/>
      <point x="760" y="10" type="line" smooth="yes"/>
      <point x="689" y="10"/>
      <point x="684" y="12"/>
      <point x="684" y="82" type="curve" smooth="yes"/>
      <point x="684" y="454" type="line" smooth="yes"/>
      <point x="684" y="522"/>
      <point x="686" y="526"/>
      <point x="764" y="526" type="curve" smooth="yes"/>
      <point x="817" y="526" type="line"/>
      <point x="817" y="536" type="line"/>
      <point x="530" y="536" type="line"/>
      <point x="530" y="526" type="line"/>
      <point x="579" y="526" type="line" smooth="yes"/>
      <point x="650" y="526"/>
      <point x="656" y="522"/>
      <point x="656" y="454" type="curve" smooth="yes"/>
      <point x="656" y="280" type="line"/>
      <point x="201" y="280" type="line"/>
      <point x="201" y="454" type="line" smooth="yes"/>
      <point x="201" y="522"/>
      <point x="205" y="526"/>
      <point x="281" y="526" type="curve" smooth="yes"/>
      <point x="328" y="526" type="line"/>
      <point x="328" y="536" type="line"/>
      <point x="41" y="536" type="line"/>
      <point x="41" y="526" type="line"/>
      <point x="104" y="526" type="line" smooth="yes"/>
      <point x="167" y="526"/>
      <point x="173" y="522"/>
      <point x="173" y="454" type="curve" smooth="yes"/>
      <point x="173" y="82" type="line" smooth="yes"/>
      <point x="173" y="13"/>
      <point x="171" y="10"/>
      <point x="88" y="10" type="curve" smooth="yes"/>
      <point x="41" y="10" type="line"/>
    </contour>
  </outline>
</glyph>
<glyph name="afii10086" format="2">
  <advance width="702"/>
  <unicode hex="0444"/>
  <anchor x="352" y="-240" name="bottom"/>
  <anchor x="352" y="760" name="top"/>
  <outline>
    <contour>
      <point x="203" y="-240" type="line"/>
      <point x="500" y="-240" type="line"/>
      <point x="500" y="-230" type="line"/>
      <point x="414" y="-230" type="line" smooth="yes"/>
      <point x="376" y="-230"/>
      <point x="366" y="-228"/>
      <point x="366" y="-150" type="curve" smooth="yes"/>
      <point x="366" y="-14" type="line"/>
      <point x="500" y="-20"/>
      <point x="620" y="69"/>
      <point x="620" y="265" type="curve" smooth="yes"/>
      <point x="620" y="467"/>
      <point x="490" y="553"/>
      <point x="366" y="546" type="curve"/>
      <point x="366" y="760" type="line"/>
      <point x="203" y="760" type="line"/>
      <point x="203" y="750" type="line"/>
      <point x="265" y="750" type="line" smooth="yes"/>
      <point x="332" y="750"/>
      <point x="338" y="748"/>
      <point x="338" y="670" type="curve" smooth="yes"/>
      <point x="338" y="546" type="line"/>
      <point x="190" y="551"/>
      <point x="82" y="455"/>
      <point x="82" y="265" type="curve" smooth="yes"/>
      <point x="82" y="75"/>
      <point x="217" y="-16"/>
      <point x="338" y="-14" type="curve"/>
      <point x="338" y="-150" type="line" smooth="yes"/>
      <point x="338" y="-228"/>
      <point x="330" y="-230"/>
      <point x="293" y="-230" type="curve" smooth="yes"/>
      <point x="203" y="-230" type="line"/>
    </contour>
    <contour>
      <point x="338" y="-4" type="line"/>
      <point x="218" y="-6"/>
      <point x="110" y="92"/>
      <point x="110" y="265" type="curve" smooth="yes"/>
      <point x="110" y="459"/>
      <point x="198" y="543"/>
      <point x="338" y="536" type="curve"/>
    </contour>
    <contour>
      <point x="366" y="-4" type="curve"/>
      <point x="366" y="536" type="line"/>
      <point x="484" y="541"/>
      <point x="592" y="464"/>
      <point x="592" y="265" type="curve" smooth="yes"/>
      <point x="592" y="104"/>
      <point x="509" y="-12"/>
    </contour>
  </outline>
</glyph>
<glyph name="afii10088" format="2">
  <advance width="853"/>
  <unicode hex="0446"/>
  <anchor x="426" y="0" name="bottom"/>
  <anchor x="426" y="536" name="top"/>
  <outline>
    <contour>
      <point x="779" y="-210" type="line"/>
      <point x="789" y="-210" type="line"/>
      <point x="789" y="20" type="line"/>
      <point x="717" y="20" type="line" smooth="yes"/>
      <point x="701" y="20"/>
      <point x="689" y="14"/>
      <point x="689" y="82" type="curve" smooth="yes"/>
      <point x="689" y="454" type="line" smooth="yes"/>
      <point x="689" y="522"/>
      <point x="692" y="526"/>
      <point x="767" y="526" type="curve" smooth="yes"/>
      <point x="822" y="526" type="line"/>
      <point x="822" y="536" type="line"/>
      <point x="535" y="536" type="line"/>
      <point x="535" y="526" type="line"/>
      <point x="578" y="526" type="line" smooth="yes"/>
      <point x="657" y="526"/>
      <point x="661" y="522"/>
      <point x="661" y="454" type="curve" smooth="yes"/>
      <point x="661" y="15" type="line"/>
      <point x="201" y="15" type="line"/>
      <point x="201" y="454" type="line" smooth="yes"/>
      <point x="201" y="521"/>
      <point x="210" y="526"/>
      <point x="266" y="526" type="curve" smooth="yes"/>
      <point x="328" y="526" type="line"/>
      <point x="328" y="536" type="line"/>
      <point x="41" y="536" type="line"/>
      <point x="41" y="526" type="line"/>
      <point x="104" y="526" type="line" smooth="yes"/>
      <point x="167" y="526"/>
      <point x="173" y="521"/>
      <point x="173" y="454" type="curve" smooth="yes"/>
      <point x="173" y="82" type="line" smooth="yes"/>
      <point x="173" y="12"/>
      <point x="171" y="10"/>
      <point x="88" y="10" type="curve" smooth="yes"/>
      <point x="41" y="10" type="line"/>
      <point x="41" y="0" type="line"/>
      <point x="808" y="0" type="line" smooth="yes"/>
      <point x="765" y="0"/>
      <point x="762" y="14"/>
      <point x="762" y="82" type="curve" smooth="yes"/>
    </contour>
  </outline>
</glyph>
<glyph name="afii10096" format="2">
  <advance width="1017"/>
  <unicode hex="044E"/>
  <anchor x="509" y="0" name="bottom"/>
  <anchor x="509" y="536" name="top"/>
  <outline>
    <contour>
      <point x="696" y="-10" type="curve" smooth="yes"/>
      <point x="853" y="-10"/>
      <point x="934" y="85"/>
      <point x="934" y="267" type="curve" smooth="yes"/>
      <point x="934" y="469"/>
      <point x="845" y="542"/>
      <point x="703" y="542" type="curve" smooth="yes"/>
      <point x="553" y="542"/>
      <point x="466" y="464"/>
      <point x="459" y="284" type="curve"/>
      <point x="201" y="284" type="line"/>
      <point x="201" y="454" type="line" smooth="yes"/>
      <point x="201" y="522"/>
      <point x="209" y="526"/>
      <point x="275" y="526" type="curve" smooth="yes"/>
      <point x="328" y="526" type="line"/>
      <point x="328" y="536" type="line"/>
      <point x="41" y="536" type="line"/>
      <point x="41" y="526" type="line"/>
      <point x="98" y="526" type="line" smooth="yes"/>
      <point x="169" y="526"/>
      <point x="173" y="522"/>
      <point x="173" y="454" type="curve" smooth="yes"/>
      <point x="173" y="82" type="line" smooth="yes"/>
      <point x="173" y="13"/>
      <point x="169" y="10"/>
      <point x="94" y="10" type="curve" smooth="yes"/>
      <point x="41" y="10" type="line"/>
      <point x="41" y="0" type="line"/>
      <point x="328" y="0" type="line"/>
      <point x="328" y="10" type="line"/>
      <point x="282" y="10" type="line" smooth="yes"/>
      <point x="204" y="10"/>
      <point x="201" y="13"/>
      <point x="201" y="82" type="curve" smooth="yes"/>
      <point x="201" y="274" type="line"/>
      <point x="459" y="274" type="line"/>
      <point x="460" y="102"/>
      <point x="550" y="-10"/>
    </contour>
    <contour>
      <point x="696" y="0" type="curve" smooth="yes"/>
      <point x="551" y="0"/>
      <point x="489" y="99"/>
      <point x="487" y="267" type="curve" smooth="yes"/>
      <point x="485" y="449"/>
      <point x="553" y="532"/>
      <point x="704" y="532" type="curve" smooth="yes"/>
      <point x="837" y="532"/>
      <point x="906" y="457"/>
      <point x="906" y="267" type="curve" smooth="yes"/>
      <point x="906" y="112"/>
      <point x="851" y="0"/>
    </contour>
  </outline>
</glyph>
<glyph name="afii10106" format="2">
  <advance width="929"/>
  <unicode hex="0459"/>
  <anchor x="465" y="0" name="bottom"/>
  <anchor x="465" y="536" name="top"/>
  <outline>
    <contour>
      <point x="85" y="-7" type="curve" smooth="yes"/>
      <point x="151" y="-7"/>
      <point x="187" y="39"/>
      <point x="229" y="136" type="curve" smooth="yes"/>
      <point x="267" y="227"/>
      <point x="291" y="352"/>
      <point x="309" y="521" type="curve"/>
      <point x="488" y="521" type="line"/>
      <point x="488" y="82" type="line" smooth="yes"/>
      <point x="488" y="14"/>
      <point x="486" y="10"/>
      <point x="407" y="10" type="curve" smooth="yes"/>
      <point x="365" y="10" type="line"/>
      <point x="365" y="0" type="line"/>
      <point x="656" y="0" type="line" smooth="yes"/>
      <point x="803" y="0"/>
      <point x="864" y="71"/>
      <point x="864" y="159" type="curve" smooth="yes"/>
      <point x="864" y="265"/>
      <point x="775" y="284"/>
      <point x="657" y="284" type="curve" smooth="yes"/>
      <point x="516" y="284" type="line"/>
      <point x="516" y="454" type="line" smooth="yes"/>
      <point x="516" y="522"/>
      <point x="524" y="526"/>
      <point x="587" y="526" type="curve" smooth="yes"/>
      <point x="636" y="526" type="line"/>
      <point x="636" y="536" type="line"/>
      <point x="158" y="536" type="line"/>
      <point x="158" y="526" type="line"/>
      <point x="230" y="526" type="line" smooth="yes"/>
      <point x="296" y="526"/>
      <point x="286" y="521"/>
      <point x="286" y="438" type="curve" smooth="yes"/>
      <point x="286" y="379"/>
      <point x="262" y="272"/>
      <point x="245" y="218" type="curve" smooth="yes"/>
      <point x="216" y="139"/>
      <point x="171" y="19"/>
      <point x="98" y="19" type="curve" smooth="yes"/>
      <point x="52" y="19"/>
      <point x="28" y="38"/>
      <point x="28" y="126" type="curve"/>
      <point x="9" y="126"/>
      <point x="-2" y="111"/>
      <point x="-2" y="73" type="curve" smooth="yes"/>
      <point x="-2" y="47"/>
      <point x="19" y="-7"/>
    </contour>
    <contour>
      <point x="516" y="10" type="line"/>
      <point x="516" y="274" type="line"/>
      <point x="638" y="274" type="line" smooth="yes"/>
      <point x="785" y="274"/>
      <point x="836" y="243"/>
      <point x="836" y="159" type="curve" smooth="yes"/>
      <point x="836" y="56"/>
      <point x="786" y="10"/>
      <point x="601" y="10" type="curve" smooth="yes"/>
    </contour>
  </outline>
</glyph>
<glyph name="afii10193" format="2">
  <advance width="874"/>
  <unicode hex="045F"/>
  <anchor x="437" y="-210" name="bottom"/>
  <anchor x="437" y="536" name="top"/>
  <outline>
    <contour>
      <point x="431" y="-210" type="curve"/>
      <point x="441" y="-210" type="line"/>
      <point x="441" y="-24"/>
      <point x="457" y="0"/>
      <point x="427" y="0" type="curve" smooth="yes"/>
      <point x="834" y="0" type="line"/>
      <point x="834" y="12" type="line"/>
      <point x="819" y="12" type="line" smooth="yes"/>
      <point x="723" y="12"/>
      <point x="701" y="14"/>
      <point x="701" y="86" type="curve" smooth="yes"/>
      <point x="701" y="454" type="line" smooth="yes"/>
      <point x="701" y="522"/>
      <point x="706" y="526"/>
      <point x="775" y="526" type="curve" smooth="yes"/>
      <point x="834" y="526" type="line"/>
      <point x="834" y="536" type="line"/>
      <point x="547" y="536" type="line"/>
      <point x="547" y="526" type="line"/>
      <point x="592" y="526" type="line" smooth="yes"/>
      <point x="667" y="526"/>
      <point x="673" y="522"/>
      <point x="673" y="454" type="curve" smooth="yes"/>
      <point x="673" y="15" type="line"/>
      <point x="201" y="15" type="line"/>
      <point x="201" y="454" type="line" smooth="yes"/>
      <point x="201" y="521"/>
      <point x="210" y="526"/>
      <point x="270" y="526" type="curve" smooth="yes"/>
      <point x="328" y="526" type="line"/>
      <point x="328" y="536" type="line"/>
      <point x="41" y="536" type="line"/>
      <point x="41" y="526" type="line"/>
      <point x="94" y="526" type="line" smooth="yes"/>
      <point x="171" y="526"/>
      <point x="173" y="521"/>
      <point x="173" y="454" type="curve" smooth="yes"/>
      <point x="173" y="82" type="line" smooth="yes"/>
      <point x="173" y="12"/>
      <point x="169" y="10"/>
      <point x="92" y="10" type="curve" smooth="yes"/>
      <point x="41" y="10" type="line"/>
      <point x="41" y="0" type="line"/>
      <point x="432" y="0" type="line" smooth="yes"/>
      <point x="416" y="0"/>
      <point x="431" y="-24"/>
    </contour>
  </outline>
</glyph>
<glyph name="uni0462" format="2">
  <advance width="746"/>
  <unicode hex="0462"/>
  <anchor x="373" y="0" name="bottom"/>
  <anchor x="373" y="714" name="top"/>
  <outline>
    <contour>
      <point x="118" y="0" type="line"/>
      <point x="371" y="0" type="line" smooth="yes"/>
      <point x="562" y="0"/>
      <point x="683" y="42"/>
      <point x="683" y="181" type="curve" smooth="yes"/>
      <point x="683" y="340"/>
      <point x="590" y="384"/>
      <point x="411" y="384" type="curve" smooth="yes"/>
      <point x="268" y="384" type="line"/>
      <point x="268" y="542" type="line"/>
      <point x="466" y="542" type="line" smooth="yes"/>
      <point x="471" y="542"/>
      <point x="485" y="534"/>
      <point x="487" y="539" type="curve" smooth="yes"/>
      <point x="496" y="454" type="line"/>
      <point x="506" y="454" type="line"/>
      <point x="500" y="557" type="line"/>
      <point x="268" y="557" type="line"/>
      <point x="268" y="608" type="line" smooth="yes"/>
      <point x="268" y="693"/>
      <point x="274" y="704"/>
      <point x="326" y="704" type="curve" smooth="yes"/>
      <point x="376" y="704" type="line"/>
      <point x="376" y="714" type="line"/>
      <point x="118" y="714" type="line"/>
      <point x="118" y="704" type="line"/>
      <point x="188" y="704" type="line" smooth="yes"/>
      <point x="232" y="704"/>
      <point x="240" y="693"/>
      <point x="240" y="612" type="curve" smooth="yes"/>
      <point x="240" y="557" type="line"/>
      <point x="37" y="557" type="line"/>
      <point x="29" y="454" type="line"/>
      <point x="39" y="454" type="line"/>
      <point x="48" y="539" type="line" smooth="yes"/>
      <point x="50" y="534"/>
      <point x="64" y="542"/>
      <point x="65" y="542" type="curve" smooth="yes"/>
      <point x="240" y="542" type="line"/>
      <point x="240" y="98" type="line" smooth="yes"/>
      <point x="240" y="21"/>
      <point x="236" y="10"/>
      <point x="180" y="10" type="curve" smooth="yes"/>
      <point x="118" y="10" type="line"/>
    </contour>
    <contour>
      <point x="268" y="10" type="line"/>
      <point x="268" y="374" type="line"/>
      <point x="393" y="374" type="line" smooth="yes"/>
      <point x="569" y="374"/>
      <point x="655" y="339"/>
      <point x="655" y="182" type="curve" smooth="yes"/>
      <point x="655" y="63"/>
      <point x="573" y="10"/>
      <point x="381" y="10" type="curve" smooth="yes"/>
    </contour>
  </outline>
</glyph>
<glyph name="uni0464" format="2">
  <advance width="1013"/>
  <unicode hex="0464"/>
  <anchor x="507" y="0" name="bottom"/>
  <anchor x="507" y="714" name="top"/>
  <outline>
    <contour>
      <point x="727" y="-10" type="curve" smooth="yes"/>
      <point x="903" y="-10"/>
      <point x="957" y="75"/>
      <point x="957" y="86" type="curve" smooth="yes"/>
      <point x="957" y="96"/>
      <point x="954" y="103"/>
      <point x="940" y="110" type="curve"/>
      <point x="912" y="38"/>
      <point x="852" y="0"/>
      <point x="721" y="0" type="curve" smooth="yes"/>
      <point x="545" y="0"/>
      <point x="437" y="101"/>
      <point x="438" y="357" type="curve"/>
      <point x="861" y="357" type="line"/>
      <point x="861" y="367" type="line"/>
      <point x="438" y="367" type="line"/>
      <point x="448" y="621"/>
      <point x="568" y="714"/>
      <point x="722" y="714" type="curve" smooth="yes"/>
      <point x="893" y="714"/>
      <point x="933" y="677"/>
      <point x="933" y="570" type="curve"/>
      <point x="948" y="570"/>
      <point x="965" y="584"/>
      <point x="965" y="602" type="curve" smooth="yes"/>
      <point x="965" y="675"/>
      <point x="876" y="724"/>
      <point x="721" y="724" type="curve" smooth="yes"/>
      <point x="509" y="724"/>
      <point x="416" y="572"/>
      <point x="410" y="367" type="curve"/>
      <point x="216" y="367" type="line"/>
      <point x="216" y="614" type="line" smooth="yes"/>
      <point x="216" y="675"/>
      <point x="216" y="704"/>
      <point x="262" y="704" type="curve" smooth="yes"/>
      <point x="327" y="704" type="line"/>
      <point x="327" y="714" type="line"/>
      <point x="63" y="714" type="line"/>
      <point x="63" y="704" type="line"/>
      <point x="138" y="704" type="line" smooth="yes"/>
      <point x="190" y="704"/>
      <point x="188" y="675"/>
      <point x="188" y="614" type="curve" smooth="yes"/>
      <point x="188" y="98" type="line" smooth="yes"/>
      <point x="188" y="21"/>
      <point x="184" y="10"/>
      <point x="126" y="10" type="curve" smooth="yes"/>
      <point x="63" y="10" type="line"/>
      <point x="63" y="0" type="line"/>
      <point x="327" y="0" type="line"/>
      <point x="327" y="10" type="line"/>
      <point x="272" y="10" type="line" smooth="yes"/>
      <point x="222" y="10"/>
      <point x="216" y="21"/>
      <point x="216" y="98" type="curve" smooth="yes"/>
      <point x="216" y="357" type="line"/>
      <point x="410" y="357" type="line"/>
      <point x="410" y="117"/>
      <point x="517" y="-10"/>
    </contour>
  </outline>
</glyph>
<glyph name="uni046D" format="2">
  <advance width="946"/>
  <unicode hex="046D"/>
  <anchor x="400" y="0" name="bottom"/>
  <anchor x="400" y="536" name="top"/>
  <outline>
    <contour>
      <point x="49" y="0" type="line"/>
      <point x="207" y="0" type="line"/>
      <point x="207" y="296" type="line"/>
      <point x="445" y="296" type="line"/>
      <point x="408" y="283"/>
      <point x="383" y="258"/>
      <point x="360" y="212" type="curve" smooth="yes"/>
      <point x="313" y="115" type="line" smooth="yes"/>
      <point x="260" y="4"/>
      <point x="253" y="10"/>
      <point x="232" y="10" type="curve" smooth="yes"/>
      <point x="223" y="10" type="line"/>
      <point x="223" y="0" type="line"/>
      <point x="232" y="0" type="line" smooth="yes"/>
      <point x="280" y="0"/>
      <point x="295" y="35"/>
      <point x="344" y="125" type="curve" smooth="yes"/>
      <point x="386" y="200" type="line" smooth="yes"/>
      <point x="433" y="288"/>
      <point x="455" y="294"/>
      <point x="551" y="294" type="curve"/>
      <point x="551" y="82" type="line" smooth="yes"/>
      <point x="551" y="12"/>
      <point x="556" y="10"/>
      <point x="530" y="10" type="curve" smooth="yes"/>
      <point x="464" y="10" type="line"/>
      <point x="464" y="0" type="line"/>
      <point x="668" y="0" type="line"/>
      <point x="668" y="10" type="line"/>
      <point x="594" y="10" type="line" smooth="yes"/>
      <point x="580" y="10"/>
      <point x="579" y="12"/>
      <point x="579" y="82" type="curve" smooth="yes"/>
      <point x="579" y="294" type="line"/>
      <point x="670" y="294"/>
      <point x="708" y="286"/>
      <point x="749" y="205" type="curve" smooth="yes"/>
      <point x="791" y="123" type="line" smooth="yes"/>
      <point x="837" y="34"/>
      <point x="854" y="0"/>
      <point x="906" y="0" type="curve" smooth="yes"/>
      <point x="924" y="0" type="line"/>
      <point x="924" y="10" type="line"/>
      <point x="905" y="10" type="line" smooth="yes"/>
      <point x="886" y="10"/>
      <point x="879" y="-2"/>
      <point x="824" y="115" type="curve" smooth="yes"/>
      <point x="775" y="216" type="line" smooth="yes"/>
      <point x="741" y="286"/>
      <point x="676" y="307"/>
      <point x="585" y="306" type="curve"/>
      <point x="822" y="524" type="line"/>
      <point x="822" y="536" type="line"/>
      <point x="317" y="536" type="line"/>
      <point x="317" y="524" type="line"/>
      <point x="539" y="306" type="line"/>
      <point x="207" y="306" type="line"/>
      <point x="207" y="454" type="line" smooth="yes"/>
      <point x="207" y="522"/>
      <point x="211" y="526"/>
      <point x="281" y="526" type="curve" smooth="yes"/>
      <point x="297" y="526" type="line"/>
      <point x="297" y="536" type="line"/>
      <point x="49" y="536" type="line"/>
      <point x="49" y="526" type="line"/>
      <point x="98" y="526" type="line" smooth="yes"/>
      <point x="175" y="526"/>
      <point x="179" y="522"/>
      <point x="179" y="454" type="curve" smooth="yes"/>
      <point x="179" y="82" type="line" smooth="yes"/>
      <point x="179" y="13"/>
      <point x="179" y="10"/>
      <point x="88" y="10" type="curve" smooth="yes"/>
      <point x="49" y="10" type="line"/>
    </contour>
    <contour>
      <point x="574" y="310" type="line"/>
      <point x="350" y="526" type="line"/>
      <point x="795" y="526" type="line"/>
      <point x="575" y="310" type="line"/>
    </contour>
  </outline>
</glyph>
<glyph name="uni0472" format="2">
  <advance width="842"/>
  <unicode hex="0472"/>
  <anchor x="421" y="0" name="bottom"/>
  <anchor x="421" y="714" name="top"/>
  <outline>
    <contour>
      <point x="422" y="-10" type="curve" smooth="yes"/>
      <point x="686" y="-10"/>
      <point x="769" y="145"/>
      <point x="769" y="358" type="curve" smooth="yes"/>
      <point x="769" y="570"/>
      <point x="680" y="725"/>
      <point x="423" y="725" type="curve" smooth="yes"/>
      <point x="196" y="725"/>
      <point x="72" y="588"/>
      <point x="72" y="359" type="curve" smooth="yes"/>
      <point x="72" y="113"/>
      <point x="190" y="-10"/>
    </contour>
    <contour>
      <point x="422" y="0" type="curve" smooth="yes"/>
      <point x="204" y="0"/>
      <point x="97" y="117"/>
      <point x="100" y="405" type="curve"/>
      <point x="153" y="425"/>
      <point x="197" y="424"/>
      <point x="264" y="424" type="curve" smooth="yes"/>
      <point x="373" y="424"/>
      <point x="484" y="350"/>
      <point x="577" y="350" type="curve" smooth="yes"/>
      <point x="631" y="350"/>
      <point x="685" y="367"/>
      <point x="741" y="400" type="curve"/>
      <point x="741" y="115"/>
      <point x="658" y="0"/>
    </contour>
    <contour>
      <point x="574" y="372" type="curve" smooth="yes"/>
      <point x="480" y="372"/>
      <point x="378" y="448"/>
      <point x="260" y="448" type="curve" smooth="yes"/>
      <point x="219" y="448"/>
      <point x="173" y="443"/>
      <point x="100" y="408" type="curve"/>
      <point x="114" y="605"/>
      <point x="227" y="715"/>
      <point x="423" y="715" type="curve" smooth="yes"/>
      <point x="632" y="715"/>
      <point x="725" y="609"/>
      <point x="740" y="403" type="curve"/>
      <point x="689" y="379"/>
      <point x="636" y="372"/>
    </contour>
  </outline>
</glyph>
<glyph name="uni0475" format="2">
  <advance width="677"/>
  <unicode hex="0475"/>
  <anchor x="339" y="0" name="bottom"/>
  <anchor x="339" y="536" name="top"/>
  <outline>
    <contour>
      <point x="315" y="0" type="line"/>
      <point x="333" y="0" type="line"/>
      <point x="485" y="400" type="line" smooth="yes"/>
      <point x="520" y="486"/>
      <point x="556" y="512"/>
      <point x="589" y="512" type="curve" smooth="yes"/>
      <point x="624" y="512"/>
      <point x="646" y="498"/>
      <point x="646" y="467" type="curve"/>
      <point x="651" y="471"/>
      <point x="658" y="476"/>
      <point x="658" y="493" type="curve" smooth="yes"/>
      <point x="658" y="535"/>
      <point x="624" y="544"/>
      <point x="594" y="544" type="curve" smooth="yes"/>
      <point x="546" y="544"/>
      <point x="509" y="523"/>
      <point x="457" y="367" type="curve" smooth="yes"/>
      <point x="390" y="183"/>
      <point x="336" y="13"/>
      <point x="332" y="25" type="curve"/>
      <point x="329" y="25" type="line"/>
      <point x="319" y="53"/>
      <point x="282" y="138"/>
      <point x="257" y="196" type="curve" smooth="yes"/>
      <point x="164" y="413" type="line" smooth="yes"/>
      <point x="151" y="441"/>
      <point x="135" y="490"/>
      <point x="135" y="504" type="curve" smooth="yes"/>
      <point x="135" y="531"/>
      <point x="147" y="526"/>
      <point x="201" y="526" type="curve" smooth="yes"/>
      <point x="216" y="526" type="line"/>
      <point x="216" y="536" type="line"/>
      <point x="13" y="536" type="line"/>
      <point x="13" y="526" type="line"/>
      <point x="85" y="526"/>
      <point x="87" y="521"/>
      <point x="101" y="490" type="curve" smooth="yes"/>
    </contour>
  </outline>
</glyph>
<glyph name="uni0481" format="2">
  <advance width="548"/>
  <unicode hex="0481"/>
  <anchor x="274" y="-239" name="bottom"/>
  <anchor x="274" y="536" name="top"/>
  <outline>
    <contour>
      <point x="358" y="-239" type="line"/>
      <point x="386" y="-239" type="line"/>
      <point x="386" y="2" type="line"/>
      <point x="378" y="2" type="line"/>
      <point x="347" y="-4"/>
      <point x="334" y="0"/>
      <point x="315" y="0" type="curve" smooth="yes"/>
      <point x="216" y="0"/>
      <point x="108" y="135"/>
      <point x="108" y="264" type="curve" smooth="yes"/>
      <point x="108" y="457"/>
      <point x="195" y="532"/>
      <point x="316" y="532" type="curve" smooth="yes"/>
      <point x="410" y="532"/>
      <point x="473" y="459"/>
      <point x="473" y="406" type="curve"/>
      <point x="494" y="408"/>
      <point x="503" y="420"/>
      <point x="503" y="425" type="curve" smooth="yes"/>
      <point x="503" y="487"/>
      <point x="432" y="542"/>
      <point x="324" y="542" type="curve" smooth="yes"/>
      <point x="188" y="542"/>
      <point x="80" y="471"/>
      <point x="80" y="263" type="curve" smooth="yes"/>
      <point x="80" y="101"/>
      <point x="188" y="-10"/>
      <point x="315" y="-10" type="curve" smooth="yes"/>
      <point x="358" y="-10" type="line"/>
    </contour>
  </outline>
</glyph>
<glyph name="pokrytiecomb.cy" format="2">
  <unicode hex="0487"/>
  <anchor x="5" y="536" name="_top"/>
  <outline>
    <contour>
      <point x="-169" y="754" type="curve"/>
      <point x="-159" y="754" type="line"/>
      <point x="-156" y="773" type="line" smooth="yes"/>
      <point x="-152" y="803"/>
      <point x="-139" y="814"/>
      <point x="-76" y="814" type="curve" smooth="yes"/>
      <point x="9" y="814"/>
      <point x="15" y="753"/>
      <point x="154" y="753" type="curve" smooth="yes"/>
      <point x="180" y="753" type="line"/>
      <point x="180" y="775" type="line"/>
      <point x="142" y="775" type="line" smooth="yes"/>
      <point x="31" y="775"/>
      <point x="3" y="836"/>
      <point x="-79" y="836" type="curve" smooth="yes"/>
      <point x="-133" y="836"/>
      <point x="-161" y="815"/>
    </contour>
  </outline>
</glyph>
<glyph name="uni049C" format="2">
  <advance width="862"/>
  <unicode hex="049C"/>
  <anchor x="431" y="0" name="bottom"/>
  <anchor x="431" y="714" name="top"/>
  <outline>
    <contour>
      <point x="64" y="0" type="line"/>
      <point x="327" y="0" type="line"/>
      <point x="327" y="10" type="line"/>
      <point x="268" y="10" type="line" smooth="yes"/>
      <point x="225" y="10"/>
      <point x="216" y="21"/>
      <point x="216" y="94" type="curve" smooth="yes"/>
      <point x="216" y="348" type="line"/>
      <point x="329" y="349" type="line"/>
      <point x="329" y="174" type="line"/>
      <point x="339" y="174" type="line"/>
      <point x="339" y="349" type="line"/>
      <point x="446" y="345"/>
      <point x="485" y="330"/>
      <point x="520" y="268" type="curve" smooth="yes"/>
      <point x="628" y="86" type="line" smooth="yes"/>
      <point x="685" y="-8"/>
      <point x="758" y="0"/>
      <point x="779" y="0" type="curve" smooth="yes"/>
      <point x="795" y="0" type="line"/>
      <point x="795" y="10" type="line"/>
      <point x="791" y="10" type="line" smooth="yes"/>
      <point x="745" y="10"/>
      <point x="707" y="15"/>
      <point x="670" y="72" type="curve" smooth="yes"/>
      <point x="560" y="250" type="line" smooth="yes"/>
      <point x="529" y="299"/>
      <point x="478" y="354"/>
      <point x="353" y="359" type="curve"/>
      <point x="415" y="360"/>
      <point x="455" y="452"/>
      <point x="486" y="529" type="curve" smooth="yes"/>
      <point x="539" y="666"/>
      <point x="593" y="696"/>
      <point x="651" y="696" type="curve" smooth="yes"/>
      <point x="716" y="696"/>
      <point x="754" y="662"/>
      <point x="754" y="606" type="curve"/>
      <point x="777" y="611"/>
      <point x="775" y="634"/>
      <point x="775" y="642" type="curve" smooth="yes"/>
      <point x="775" y="668"/>
      <point x="749" y="720"/>
      <point x="652" y="720" type="curve" smooth="yes"/>
      <point x="556" y="720"/>
      <point x="531" y="678"/>
      <point x="487" y="563" type="curve" smooth="yes"/>
      <point x="439" y="436"/>
      <point x="416" y="373"/>
      <point x="339" y="364" type="curve"/>
      <point x="339" y="544" type="line"/>
      <point x="329" y="544" type="line"/>
      <point x="329" y="358" type="line"/>
      <point x="216" y="358" type="line"/>
      <point x="216" y="613" type="line" smooth="yes"/>
      <point x="216" y="693"/>
      <point x="218" y="704"/>
      <point x="282" y="704" type="curve" smooth="yes"/>
      <point x="327" y="704" type="line"/>
      <point x="327" y="714" type="line"/>
      <point x="64" y="714" type="line"/>
      <point x="64" y="704" type="line"/>
      <point x="130" y="704" type="line" smooth="yes"/>
      <point x="184" y="704"/>
      <point x="188" y="693"/>
      <point x="188" y="613" type="curve" smooth="yes"/>
      <point x="188" y="98" type="line" smooth="yes"/>
      <point x="188" y="21"/>
      <point x="184" y="10"/>
      <point x="128" y="10" type="curve" smooth="yes"/>
      <point x="64" y="10" type="line"/>
    </contour>
  </outline>
</glyph>
<glyph name="uni04A5" format="2">
  <advance width="890"/>
  <unicode hex="04A5"/>
  <anchor x="446" y="0" name="bottom"/>
  <anchor x="446" y="536" name="top"/>
  <outline>
    <contour>
      <point x="41" y="0" type="line"/>
      <point x="328" y="0" type="line"/>
      <point x="328" y="10" type="line"/>
      <point x="284" y="10" type="line" smooth="yes"/>
      <point x="206" y="10"/>
      <point x="201" y="13"/>
      <point x="201" y="82" type="curve" smooth="yes"/>
      <point x="201" y="270" type="line"/>
      <point x="656" y="270" type="line"/>
      <point x="656" y="82" type="line" smooth="yes"/>
      <point x="656" y="12"/>
      <point x="652" y="10"/>
      <point x="569" y="10" type="curve" smooth="yes"/>
      <point x="530" y="10" type="line"/>
      <point x="530" y="0" type="line"/>
      <point x="817" y="0" type="line"/>
      <point x="817" y="10" type="line"/>
      <point x="766" y="10" type="line" smooth="yes"/>
      <point x="687" y="10"/>
      <point x="684" y="12"/>
      <point x="684" y="82" type="curve" smooth="yes"/>
      <point x="684" y="526" type="line"/>
      <point x="808" y="526" type="line" smooth="yes"/>
      <point x="826" y="526"/>
      <point x="836" y="525"/>
      <point x="840" y="530" type="curve" smooth="yes"/>
      <point x="851" y="442" type="line"/>
      <point x="861" y="442" type="line"/>
      <point x="854" y="536" type="line"/>
      <point x="530" y="536" type="line"/>
      <point x="530" y="526" type="line"/>
      <point x="569" y="526" type="line" smooth="yes"/>
      <point x="652" y="526"/>
      <point x="656" y="522"/>
      <point x="656" y="454" type="curve" smooth="yes"/>
      <point x="656" y="280" type="line"/>
      <point x="201" y="280" type="line"/>
      <point x="201" y="454" type="line" smooth="yes"/>
      <point x="201" y="522"/>
      <point x="203" y="526"/>
      <point x="287" y="526" type="curve" smooth="yes"/>
      <point x="328" y="526" type="line"/>
      <point x="328" y="536" type="line"/>
      <point x="41" y="536" type="line"/>
      <point x="41" y="526" type="line"/>
      <point x="98" y="526" type="line" smooth="yes"/>
      <point x="169" y="526"/>
      <point x="173" y="522"/>
      <point x="173" y="454" type="curve" smooth="yes"/>
      <point x="173" y="82" type="line" smooth="yes"/>
      <point x="173" y="13"/>
      <point x="171" y="10"/>
      <point x="88" y="10" type="curve" smooth="yes"/>
      <point x="41" y="10" type="line"/>
    </contour>
  </outline>
</glyph>
<glyph name="uni04B0" format="2">
  <advance width="656"/>
  <unicode hex="04B0"/>
  <anchor x="320" y="0" name="bottom"/>
  <anchor x="320" y="714" name="top"/>
  <anchor x="648" y="714" name="topright"/>
  <outline>
    <contour>
      <point x="150" y="237" type="line"/>
      <point x="513" y="237" type="line"/>
      <point x="513" y="247" type="line"/>
      <point x="150" y="247" type="line"/>
    </contour>
    <component base="Y"/>
  </outline>
</glyph>
<glyph name="uni04B7" format="2">
  <advance width="733"/>
  <unicode hex="04B7"/>
  <anchor x="366" y="0" name="bottom"/>
  <anchor x="366" y="536" name="top"/>
  <outline>
    <contour>
      <point x="686" y="-210" type="line"/>
      <point x="696" y="-210" type="line"/>
      <point x="696" y="20" type="line"/>
      <point x="562" y="20" type="line" smooth="yes"/>
      <point x="570" y="20"/>
      <point x="562" y="26"/>
      <point x="562" y="82" type="curve" smooth="yes"/>
      <point x="562" y="454" type="line" smooth="yes"/>
      <point x="562" y="522"/>
      <point x="562" y="526"/>
      <point x="646" y="526" type="curve" smooth="yes"/>
      <point x="695" y="526" type="line"/>
      <point x="695" y="536" type="line"/>
      <point x="410" y="536" type="line"/>
      <point x="410" y="526" type="line"/>
      <point x="449" y="526" type="line" smooth="yes"/>
      <point x="532" y="526"/>
      <point x="534" y="522"/>
      <point x="534" y="454" type="curve" smooth="yes"/>
      <point x="534" y="245" type="line"/>
      <point x="468" y="222"/>
      <point x="402" y="201"/>
      <point x="309" y="201" type="curve" smooth="yes"/>
      <point x="227" y="201"/>
      <point x="176" y="229"/>
      <point x="176" y="316" type="curve" smooth="yes"/>
      <point x="176" y="468" type="line" smooth="yes"/>
      <point x="176" y="516"/>
      <point x="188" y="526"/>
      <point x="234" y="526" type="curve" smooth="yes"/>
      <point x="296" y="526" type="line"/>
      <point x="296" y="536" type="line"/>
      <point x="10" y="536" type="line"/>
      <point x="10" y="526" type="line"/>
      <point x="89" y="526" type="line" smooth="yes"/>
      <point x="140" y="526"/>
      <point x="148" y="516"/>
      <point x="148" y="468" type="curve" smooth="yes"/>
      <point x="148" y="312" type="line" smooth="yes"/>
      <point x="148" y="234"/>
      <point x="211" y="191"/>
      <point x="313" y="191" type="curve" smooth="yes"/>
      <point x="398" y="191"/>
      <point x="470" y="212"/>
      <point x="534" y="239" type="curve"/>
      <point x="534" y="82" type="line" smooth="yes"/>
      <point x="534" y="12"/>
      <point x="530" y="10"/>
      <point x="447" y="10" type="curve" smooth="yes"/>
      <point x="402" y="10" type="line"/>
      <point x="402" y="0" type="line"/>
      <point x="711" y="0" type="line" smooth="yes"/>
      <point x="670" y="0"/>
      <point x="671" y="26"/>
      <point x="671" y="90" type="curve" smooth="yes"/>
    </contour>
  </outline>
</glyph>
<glyph name="uni04C7" format="2">
  <advance width="929"/>
  <unicode hex="04C7"/>
  <anchor x="465" y="-241" name="bottom"/>
  <anchor x="465" y="714" name="top"/>
  <outline>
    <contour>
      <point x="460" y="-241" type="curve" smooth="yes"/>
      <point x="691" y="-241"/>
      <point x="752" y="-82"/>
      <point x="752" y="40" type="curve" smooth="yes"/>
      <point x="752" y="614" type="line" smooth="yes"/>
      <point x="752" y="693"/>
      <point x="756" y="704"/>
      <point x="810" y="704" type="curve" smooth="yes"/>
      <point x="875" y="704" type="line"/>
      <point x="875" y="714" type="line"/>
      <point x="603" y="714" type="line"/>
      <point x="603" y="704" type="line"/>
      <point x="666" y="704" type="line" smooth="yes"/>
      <point x="720" y="704"/>
      <point x="724" y="693"/>
      <point x="724" y="614" type="curve" smooth="yes"/>
      <point x="724" y="379" type="line"/>
      <point x="216" y="379" type="line"/>
      <point x="216" y="614" type="line" smooth="yes"/>
      <point x="216" y="693"/>
      <point x="222" y="704"/>
      <point x="274" y="704" type="curve" smooth="yes"/>
      <point x="337" y="704" type="line"/>
      <point x="337" y="714" type="line"/>
      <point x="63" y="714" type="line"/>
      <point x="63" y="704" type="line"/>
      <point x="132" y="704" type="line" smooth="yes"/>
      <point x="182" y="704"/>
      <point x="188" y="693"/>
      <point x="188" y="614" type="curve" smooth="yes"/>
      <point x="188" y="98" type="line" smooth="yes"/>
      <point x="188" y="21"/>
      <point x="182" y="10"/>
      <point x="130" y="10" type="curve" smooth="yes"/>
      <point x="63" y="10" type="line"/>
      <point x="63" y="0" type="line"/>
      <point x="337" y="0" type="line"/>
      <point x="337" y="10" type="line"/>
      <point x="274" y="10" type="line" smooth="yes"/>
      <point x="222" y="10"/>
      <point x="216" y="21"/>
      <point x="216" y="98" type="curve" smooth="yes"/>
      <point x="216" y="369" type="line"/>
      <point x="724" y="369" type="line"/>
      <point x="724" y="64" type="line" smooth="yes"/>
      <point x="724" y="-58"/>
      <point x="678" y="-231"/>
      <point x="470" y="-231" type="curve" smooth="yes"/>
      <point x="358" y="-231"/>
      <point x="269" y="-202"/>
      <point x="269" y="-80" type="curve"/>
      <point x="258" y="-80"/>
      <point x="238" y="-91"/>
      <point x="238" y="-124" type="curve" smooth="yes"/>
      <point x="238" y="-154"/>
      <point x="251" y="-177"/>
      <point x="274" y="-196" type="curve" smooth="yes"/>
      <point x="318" y="-226"/>
      <point x="390" y="-241"/>
    </contour>
  </outline>
</glyph>
<glyph name="uni04C8" format="2">
  <advance width="821"/>
  <unicode hex="04C8"/>
  <anchor x="411" y="-227" name="bottom"/>
  <anchor x="411" y="536" name="top"/>
  <outline>
    <contour>
      <point x="449" y="-227" type="curve" smooth="yes"/>
      <point x="617" y="-227"/>
      <point x="684" y="-110"/>
      <point x="684" y="-46" type="curve" smooth="yes"/>
      <point x="684" y="454" type="line" smooth="yes"/>
      <point x="684" y="522"/>
      <point x="684" y="526"/>
      <point x="768" y="526" type="curve" smooth="yes"/>
      <point x="817" y="526" type="line"/>
      <point x="817" y="536" type="line"/>
      <point x="530" y="536" type="line"/>
      <point x="530" y="526" type="line"/>
      <point x="569" y="526" type="line" smooth="yes"/>
      <point x="652" y="526"/>
      <point x="656" y="522"/>
      <point x="656" y="454" type="curve" smooth="yes"/>
      <point x="656" y="280" type="line"/>
      <point x="201" y="280" type="line"/>
      <point x="201" y="454" type="line" smooth="yes"/>
      <point x="201" y="522"/>
      <point x="203" y="526"/>
      <point x="287" y="526" type="curve" smooth="yes"/>
      <point x="328" y="526" type="line"/>
      <point x="328" y="536" type="line"/>
      <point x="41" y="536" type="line"/>
      <point x="41" y="526" type="line"/>
      <point x="94" y="526" type="line" smooth="yes"/>
      <point x="171" y="526"/>
      <point x="173" y="522"/>
      <point x="173" y="454" type="curve" smooth="yes"/>
      <point x="173" y="82" type="line" smooth="yes"/>
      <point x="173" y="13"/>
      <point x="171" y="10"/>
      <point x="88" y="10" type="curve" smooth="yes"/>
      <point x="41" y="10" type="line"/>
      <point x="41" y="0" type="line"/>
      <point x="328" y="0" type="line"/>
      <point x="328" y="10" type="line"/>
      <point x="284" y="10" type="line" smooth="yes"/>
      <point x="206" y="10"/>
      <point x="201" y="13"/>
      <point x="201" y="82" type="curve" smooth="yes"/>
      <point x="201" y="270" type="line"/>
      <point x="656" y="270" type="line"/>
      <point x="656" y="-22" type="line" smooth="yes"/>
      <point x="656" y="-118"/>
      <point x="592" y="-217"/>
      <point x="452" y="-217" type="curve" smooth="yes"/>
      <point x="329" y="-217"/>
      <point x="283" y="-164"/>
      <point x="275" y="-93" type="curve"/>
      <point x="258" y="-97"/>
      <point x="255" y="-101"/>
      <point x="255" y="-116" type="curve" smooth="yes"/>
      <point x="255" y="-152"/>
      <point x="272" y="-174"/>
      <point x="291" y="-191" type="curve" smooth="yes"/>
      <point x="337" y="-219"/>
      <point x="382" y="-227"/>
    </contour>
  </outline>
</glyph>
<glyph name="uni04CA" format="2">
  <advance width="858"/>
  <unicode hex="04CA"/>
  <anchor x="428" y="0" name="bottom"/>
  <anchor x="428" y="536" name="top"/>
  <outline>
    <contour>
      <point x="701" y="-210" type="line"/>
      <point x="723" y="-210" type="line"/>
      <point x="817" y="0" type="line"/>
      <point x="817" y="10" type="line"/>
      <point x="807" y="10" type="line"/>
      <point x="807" y="0" type="line"/>
    </contour>
    <component base="afii10079"/>
  </outline>
</glyph>
<glyph name="uni0510" format="2">
  <advance width="629"/>
  <unicode hex="0510"/>
  <anchor x="315" y="0" name="bottom"/>
  <anchor x="315" y="714" name="top"/>
  <outline>
    <contour>
      <point x="332" y="-8" type="curve" smooth="yes"/>
      <point x="482" y="-8"/>
      <point x="584" y="51"/>
      <point x="584" y="85" type="curve" smooth="yes"/>
      <point x="584" y="110"/>
      <point x="572" y="118"/>
      <point x="551" y="125" type="curve"/>
      <point x="542" y="55"/>
      <point x="470" y="2"/>
      <point x="333" y="2" type="curve" smooth="yes"/>
      <point x="197" y="2"/>
      <point x="127" y="82"/>
      <point x="127" y="220" type="curve" smooth="yes"/>
      <point x="127" y="313"/>
      <point x="204" y="368"/>
      <point x="335" y="368" type="curve" smooth="yes"/>
      <point x="427" y="368" type="line"/>
      <point x="427" y="378" type="line"/>
      <point x="335" y="378" type="line" smooth="yes"/>
      <point x="195" y="378"/>
      <point x="137" y="430"/>
      <point x="137" y="553" type="curve" smooth="yes"/>
      <point x="137" y="647"/>
      <point x="220" y="716"/>
      <point x="355" y="716" type="curve" smooth="yes"/>
      <point x="488" y="716"/>
      <point x="536" y="664"/>
      <point x="540" y="567" type="curve"/>
      <point x="570" y="567"/>
      <point x="578" y="580"/>
      <point x="578" y="597" type="curve" smooth="yes"/>
      <point x="578" y="696"/>
      <point x="469" y="726"/>
      <point x="356" y="726" type="curve" smooth="yes"/>
      <point x="202" y="726"/>
      <point x="109" y="654"/>
      <point x="109" y="559" type="curve" smooth="yes"/>
      <point x="109" y="441"/>
      <point x="143" y="390"/>
      <point x="268" y="373" type="curve"/>
      <point x="150" y="358"/>
      <point x="99" y="294"/>
      <point x="99" y="214" type="curve" smooth="yes"/>
      <point x="99" y="81"/>
      <point x="180" y="-8"/>
    </contour>
  </outline>
</glyph>
<glyph name="uni0517" format="2">
  <advance width="1008"/>
  <unicode hex="0517"/>
  <anchor x="506" y="-240" name="bottom"/>
  <anchor x="506" y="536" name="top"/>
  <outline>
    <contour>
      <point x="30" y="-240" type="line"/>
      <point x="323" y="-240" type="line"/>
      <point x="323" y="-230" type="line"/>
      <point x="250" y="-230" type="line" smooth="yes"/>
      <point x="190" y="-230"/>
      <point x="182" y="-228"/>
      <point x="182" y="-150" type="curve" smooth="yes"/>
      <point x="182" y="-12" type="line" smooth="yes"/>
      <point x="182" y="86"/>
      <point x="181" y="173"/>
      <point x="180" y="178" type="curve"/>
      <point x="182" y="178" type="line"/>
      <point x="204" y="63"/>
      <point x="285" y="-10"/>
      <point x="384" y="-10" type="curve" smooth="yes"/>
      <point x="537" y="-10"/>
      <point x="629" y="90"/>
      <point x="624" y="308" type="curve"/>
      <point x="845" y="79" type="line" smooth="yes"/>
      <point x="868" y="57"/>
      <point x="882" y="40"/>
      <point x="882" y="28" type="curve" smooth="yes"/>
      <point x="882" y="13"/>
      <point x="857" y="10"/>
      <point x="837" y="10" type="curve" smooth="yes"/>
      <point x="790" y="10" type="line"/>
      <point x="790" y="0" type="line"/>
      <point x="1020" y="0" type="line"/>
      <point x="1020" y="10" type="line"/>
      <point x="991" y="10" type="line" smooth="yes"/>
      <point x="960" y="10"/>
      <point x="933" y="30"/>
      <point x="900" y="58" type="curve" smooth="yes"/>
      <point x="658" y="298" type="line"/>
      <point x="841" y="478" type="line" smooth="yes"/>
      <point x="884" y="520"/>
      <point x="881" y="526"/>
      <point x="923" y="526" type="curve" smooth="yes"/>
      <point x="980" y="526" type="line"/>
      <point x="980" y="536" type="line"/>
      <point x="737" y="536" type="line"/>
      <point x="737" y="526" type="line"/>
      <point x="796" y="526" type="line" smooth="yes"/>
      <point x="816" y="526"/>
      <point x="839" y="523"/>
      <point x="839" y="507" type="curve" smooth="yes"/>
      <point x="839" y="497"/>
      <point x="829" y="481"/>
      <point x="801" y="458" type="curve" smooth="yes"/>
      <point x="623" y="267" type="line"/>
      <point x="625" y="449"/>
      <point x="553" y="546"/>
      <point x="386" y="546" type="curve" smooth="yes"/>
      <point x="276" y="546"/>
      <point x="196" y="463"/>
      <point x="183" y="379" type="curve"/>
      <point x="181" y="379" type="line"/>
      <point x="181" y="536" type="line"/>
      <point x="-1" y="536" type="line"/>
      <point x="-1" y="526" type="line"/>
      <point x="72" y="526" type="line" smooth="yes"/>
      <point x="149" y="526"/>
      <point x="154" y="524"/>
      <point x="154" y="453" type="curve" smooth="yes"/>
      <point x="154" y="-150" type="line" smooth="yes"/>
      <point x="154" y="-228"/>
      <point x="146" y="-230"/>
      <point x="87" y="-230" type="curve" smooth="yes"/>
      <point x="30" y="-230" type="line"/>
    </contour>
    <contour>
      <point x="390" y="10" type="curve" smooth="yes"/>
      <point x="241" y="10"/>
      <point x="182" y="111"/>
      <point x="182" y="282" type="curve" smooth="yes"/>
      <point x="182" y="408"/>
      <point x="223" y="526"/>
      <point x="388" y="526" type="curve" smooth="yes"/>
      <point x="546" y="526"/>
      <point x="595" y="433"/>
      <point x="595" y="266" type="curve" smooth="yes"/>
      <point x="595" y="90"/>
      <point x="512" y="10"/>
    </contour>
  </outline>
</glyph>
<glyph name="uni0528" format="2">
  <advance width="940"/>
  <unicode hex="0528"/>
  <anchor x="471" y="-240" name="bottom"/>
  <anchor x="471" y="714" name="top"/>
  <outline>
    <contour>
      <point x="3" y="-240" type="line"/>
      <point x="57" y="-240" type="line" smooth="yes"/>
      <point x="124" y="-240"/>
      <point x="216" y="-207"/>
      <point x="216" y="-136" type="curve" smooth="yes"/>
      <point x="216" y="369" type="line"/>
      <point x="724" y="369" type="line"/>
      <point x="724" y="98" type="line" smooth="yes"/>
      <point x="724" y="21"/>
      <point x="718" y="10"/>
      <point x="666" y="10" type="curve" smooth="yes"/>
      <point x="603" y="10" type="line"/>
      <point x="603" y="0" type="line"/>
      <point x="875" y="0" type="line"/>
      <point x="875" y="10" type="line"/>
      <point x="804" y="10" type="line" smooth="yes"/>
      <point x="760" y="10"/>
      <point x="752" y="21"/>
      <point x="752" y="98" type="curve" smooth="yes"/>
      <point x="752" y="614" type="line" smooth="yes"/>
      <point x="752" y="693"/>
      <point x="756" y="704"/>
      <point x="812" y="704" type="curve" smooth="yes"/>
      <point x="875" y="704" type="line"/>
      <point x="875" y="714" type="line"/>
      <point x="603" y="714" type="line"/>
      <point x="603" y="704" type="line"/>
      <point x="668" y="704" type="line" smooth="yes"/>
      <point x="718" y="704"/>
      <point x="724" y="693"/>
      <point x="724" y="614" type="curve" smooth="yes"/>
      <point x="724" y="379" type="line"/>
      <point x="216" y="379" type="line"/>
      <point x="216" y="614" type="line" smooth="yes"/>
      <point x="216" y="693"/>
      <point x="222" y="704"/>
      <point x="274" y="704" type="curve" smooth="yes"/>
      <point x="337" y="704" type="line"/>
      <point x="337" y="714" type="line"/>
      <point x="63" y="714" type="line"/>
      <point x="63" y="704" type="line"/>
      <point x="130" y="704" type="line" smooth="yes"/>
      <point x="182" y="704"/>
      <point x="188" y="693"/>
      <point x="188" y="614" type="curve" smooth="yes"/>
      <point x="188" y="-165" type="line" smooth="yes"/>
      <point x="188" y="-184"/>
      <point x="132" y="-230"/>
      <point x="59" y="-230" type="curve" smooth="yes"/>
      <point x="3" y="-230" type="line"/>
    </contour>
  </outline>
</glyph>
<glyph name="uni052E" format="2">
  <advance width="826"/>
  <unicode hex="052E"/>
  <anchor x="403" y="0" name="bottom"/>
  <anchor x="413" y="714" name="top"/>
  <outline>
    <contour>
      <point x="768" y="-210" type="curve"/>
      <point x="778" y="-210" type="line"/>
      <point x="778" y="20" type="line"/>
      <point x="690" y="20" type="line" smooth="yes"/>
      <point x="646" y="20"/>
      <point x="642" y="21"/>
      <point x="642" y="98" type="curve" smooth="yes"/>
      <point x="642" y="614" type="line" smooth="yes"/>
      <point x="642" y="692"/>
      <point x="650" y="704"/>
      <point x="694" y="704" type="curve" smooth="yes"/>
      <point x="759" y="704" type="line"/>
      <point x="759" y="714" type="line"/>
      <point x="211" y="714" type="line"/>
      <point x="211" y="704" type="line"/>
      <point x="314" y="704" type="line" smooth="yes"/>
      <point x="347" y="704"/>
      <point x="333" y="682"/>
      <point x="333" y="646" type="curve" smooth="yes"/>
      <point x="333" y="559"/>
      <point x="280" y="270"/>
      <point x="244" y="156" type="curve" smooth="yes"/>
      <point x="216" y="78"/>
      <point x="193" y="17"/>
      <point x="118" y="17" type="curve" smooth="yes"/>
      <point x="72" y="17"/>
      <point x="42" y="36"/>
      <point x="36" y="88" type="curve"/>
      <point x="27" y="88"/>
      <point x="0" y="85"/>
      <point x="0" y="56" type="curve" smooth="yes"/>
      <point x="0" y="25"/>
      <point x="40" y="-7"/>
      <point x="103" y="-7" type="curve" smooth="yes"/>
      <point x="200" y="-7"/>
      <point x="224" y="67"/>
      <point x="255" y="167" type="curve" smooth="yes"/>
      <point x="304" y="344"/>
      <point x="340" y="608"/>
      <point x="352" y="704" type="curve"/>
      <point x="614" y="704" type="line"/>
      <point x="614" y="98" type="line" smooth="yes"/>
      <point x="614" y="21"/>
      <point x="610" y="10"/>
      <point x="554" y="10" type="curve" smooth="yes"/>
      <point x="494" y="10" type="line"/>
      <point x="494" y="0" type="line"/>
      <point x="809" y="0" type="line" smooth="yes"/>
      <point x="765" y="0"/>
      <point x="768" y="-32"/>
    </contour>
  </outline>
</glyph>
<glyph name="uni1C88" format="2">
  <advance width="658"/>
  <unicode hex="1C88"/>
  <anchor x="329" y="0" name="bottom"/>
  <anchor x="329" y="760" name="top"/>
  <outline>
    <contour>
      <point x="329" y="-10" type="curve" smooth="yes"/>
      <point x="478" y="-10"/>
      <point x="572" y="103"/>
      <point x="572" y="215" type="curve" smooth="yes"/>
      <point x="572" y="348"/>
      <point x="489" y="423"/>
      <point x="351" y="431" type="curve"/>
      <point x="501" y="642" type="line" smooth="yes"/>
      <point x="553" y="728"/>
      <point x="559" y="748"/>
      <point x="612" y="748" type="curve" smooth="yes"/>
      <point x="628" y="748" type="line"/>
      <point x="628" y="760" type="line"/>
      <point x="443" y="760" type="line"/>
      <point x="443" y="748" type="line"/>
      <point x="521" y="748" type="line" smooth="yes"/>
      <point x="529" y="748"/>
      <point x="540" y="749"/>
      <point x="540" y="742" type="curve" smooth="yes"/>
      <point x="540" y="730"/>
      <point x="526" y="715"/>
      <point x="520" y="712" type="curve" smooth="yes"/>
      <point x="338" y="430" type="line"/>
      <point x="157" y="716" type="line" smooth="yes"/>
      <point x="156" y="709"/>
      <point x="137" y="728"/>
      <point x="137" y="743" type="curve" smooth="yes"/>
      <point x="137" y="749"/>
      <point x="143" y="748"/>
      <point x="169" y="748" type="curve" smooth="yes"/>
      <point x="241" y="748" type="line"/>
      <point x="241" y="760" type="line"/>
      <point x="24" y="760" type="line"/>
      <point x="24" y="748" type="line"/>
      <point x="97" y="748"/>
      <point x="98" y="754"/>
      <point x="156" y="657" type="curve" smooth="yes"/>
      <point x="309" y="432" type="line"/>
      <point x="170" y="421"/>
      <point x="86" y="351"/>
      <point x="86" y="215" type="curve" smooth="yes"/>
      <point x="86" y="100"/>
      <point x="177" y="-10"/>
    </contour>
    <contour>
      <point x="328" y="0" type="curve" smooth="yes"/>
      <point x="177" y="0"/>
      <point x="114" y="101"/>
      <point x="114" y="215" type="curve" smooth="yes"/>
      <point x="114" y="328"/>
      <point x="176" y="422"/>
      <point x="329" y="422" type="curve" smooth="yes"/>
      <point x="481" y="422"/>
      <point x="544" y="328"/>
      <point x="544" y="215" type="curve" smooth="yes"/>
      <point x="544" y="100"/>
      <point x="473" y="0"/>
    </contour>
  </outline>
</glyph>
<glyph name="uni1D1C" format="2">
  <advance width="748"/>
  <unicode hex="1D1C"/>
  <anchor x="374" y="0" name="bottom"/>
  <anchor x="374" y="536" name="top"/>
  <outline>
    <contour>
      <point x="373" y="-11" type="curve" smooth="yes"/>
      <point x="513" y="-11"/>
      <point x="599" y="56"/>
      <point x="599" y="160" type="curve" smooth="yes"/>
      <point x="599" y="454" type="line" smooth="yes"/>
      <point x="599" y="522"/>
      <point x="599" y="526"/>
      <point x="648" y="526" type="curve" smooth="yes"/>
      <point x="694" y="526" type="line"/>
      <point x="694" y="536" type="line"/>
      <point x="504" y="536" type="line"/>
      <point x="504" y="526" type="line"/>
      <point x="555" y="526" type="line" smooth="yes"/>
      <point x="607" y="526"/>
      <point x="607" y="522"/>
      <point x="607" y="454" type="curve" smooth="yes"/>
      <point x="607" y="151" type="line" smooth="yes"/>
      <point x="607" y="64"/>
      <point x="520" y="7"/>
      <point x="373" y="7" type="curve" smooth="yes"/>
      <point x="245" y="7"/>
      <point x="162" y="46"/>
      <point x="162" y="139" type="curve" smooth="yes"/>
      <point x="162" y="454" type="line" smooth="yes"/>
      <point x="162" y="522"/>
      <point x="162" y="526"/>
      <point x="213" y="526" type="curve" smooth="yes"/>
      <point x="263" y="526" type="line"/>
      <point x="263" y="536" type="line"/>
      <point x="33" y="536" type="line"/>
      <point x="33" y="526" type="line"/>
      <point x="78" y="526" type="line" smooth="yes"/>
      <point x="134" y="526"/>
      <point x="134" y="518"/>
      <point x="134" y="454" type="curve" smooth="yes"/>
      <point x="134" y="162" type="line" smooth="yes"/>
      <point x="134" y="28"/>
      <point x="242" y="-11"/>
    </contour>
  </outline>
</glyph>
<glyph name="uni1D25" format="2">
  <advance width="359"/>
  <unicode hex="1D25"/>
  <anchor x="190" y="0" name="bottom"/>
  <anchor x="190" y="536" name="top"/>
  <outline>
    <contour>
      <point x="58" y="-7" type="curve" smooth="yes"/>
      <point x="98" y="-7"/>
      <point x="120" y="21"/>
      <point x="190" y="127" type="curve"/>
      <point x="262" y="18"/>
      <point x="280" y="-7"/>
      <point x="325" y="-7" type="curve" smooth="yes"/>
      <point x="350" y="-7"/>
      <point x="373" y="9"/>
      <point x="373" y="34" type="curve" smooth="yes"/>
      <point x="373" y="47"/>
      <point x="368" y="55"/>
      <point x="354" y="58" type="curve"/>
      <point x="354" y="30"/>
      <point x="342" y="16"/>
      <point x="319" y="16" type="curve" smooth="yes"/>
      <point x="286" y="16"/>
      <point x="261" y="35"/>
      <point x="198" y="133" type="curve"/>
      <point x="255" y="224"/>
      <point x="297" y="301"/>
      <point x="297" y="390" type="curve" smooth="yes"/>
      <point x="297" y="484"/>
      <point x="251" y="542"/>
      <point x="190" y="542" type="curve"/>
      <point x="129" y="542"/>
      <point x="83" y="484"/>
      <point x="83" y="390" type="curve" smooth="yes"/>
      <point x="83" y="301"/>
      <point x="125" y="224"/>
      <point x="182" y="133" type="curve"/>
      <point x="120" y="35"/>
      <point x="95" y="16"/>
      <point x="61" y="16" type="curve" smooth="yes"/>
      <point x="38" y="16"/>
      <point x="26" y="30"/>
      <point x="26" y="58" type="curve"/>
      <point x="14" y="57"/>
      <point x="7" y="50"/>
      <point x="7" y="35" type="curve" smooth="yes"/>
      <point x="7" y="15"/>
      <point x="23" y="-7"/>
    </contour>
  </outline>
</glyph>
<glyph name="uni1D6B" format="2">
  <advance width="1076"/>
  <unicode hex="1D6B"/>
  <outline>
    <contour>
      <point x="347" y="-10" type="curve" smooth="yes"/>
      <point x="437" y="-10"/>
      <point x="534" y="14"/>
      <point x="580" y="138" type="curve"/>
      <point x="612" y="45"/>
      <point x="690" y="-10"/>
      <point x="806" y="-10" type="curve" smooth="yes"/>
      <point x="932" y="-10"/>
      <point x="997" y="56"/>
      <point x="997" y="93" type="curve" smooth="yes"/>
      <point x="997" y="99"/>
      <point x="995" y="110"/>
      <point x="981" y="107" type="curve"/>
      <point x="959" y="37"/>
      <point x="900" y="0"/>
      <point x="812" y="0" type="curve" smooth="yes"/>
      <point x="678" y="0"/>
      <point x="584" y="85"/>
      <point x="588" y="274" type="curve"/>
      <point x="1012" y="274" type="line"/>
      <point x="1012" y="289" type="line" smooth="yes"/>
      <point x="1012" y="451"/>
      <point x="923" y="542"/>
      <point x="795" y="542" type="curve" smooth="yes"/>
      <point x="686" y="542"/>
      <point x="621" y="495"/>
      <point x="588" y="396" type="curve"/>
      <point x="588" y="536" type="line"/>
      <point x="442" y="536" type="line"/>
      <point x="442" y="526" type="line"/>
      <point x="493" y="526" type="line" smooth="yes"/>
      <point x="549" y="526"/>
      <point x="559" y="522"/>
      <point x="559" y="468" type="curve" smooth="yes"/>
      <point x="559" y="201" type="line" smooth="yes"/>
      <point x="559" y="89"/>
      <point x="483" y="0"/>
      <point x="345" y="0" type="curve" smooth="yes"/>
      <point x="197" y="0"/>
      <point x="177" y="87"/>
      <point x="177" y="179" type="curve" smooth="yes"/>
      <point x="177" y="536" type="line"/>
      <point x="18" y="536" type="line"/>
      <point x="18" y="526" type="line"/>
      <point x="82" y="526" type="line" smooth="yes"/>
      <point x="145" y="526"/>
      <point x="149" y="521"/>
      <point x="149" y="451" type="curve" smooth="yes"/>
      <point x="149" y="184" type="line" smooth="yes"/>
      <point x="149" y="60"/>
      <point x="201" y="-10"/>
    </contour>
    <contour>
      <point x="592" y="284" type="line"/>
      <point x="602" y="450"/>
      <point x="647" y="532"/>
      <point x="793" y="532" type="curve" smooth="yes"/>
      <point x="910" y="532"/>
      <point x="984" y="448"/>
      <point x="984" y="284" type="curve"/>
    </contour>
  </outline>
</glyph>
<glyph name="uni1D6E" format="2">
  <advance width="392"/>
  <unicode hex="1D6E"/>
  <anchor x="329" y="772" name="top"/>
  <anchor x="472" y="772" name="topright"/>
  <anchor x="197" y="0" name="bottom"/>
  <outline>
    <contour>
      <point x="15" y="287" type="curve"/>
      <point x="25" y="287" type="line"/>
      <point x="31" y="311"/>
      <point x="36" y="347"/>
      <point x="108" y="347" type="curve" smooth="yes"/>
      <point x="164" y="347"/>
      <point x="238" y="321"/>
      <point x="304" y="321" type="curve" smooth="yes"/>
      <point x="361" y="321"/>
      <point x="381" y="355"/>
      <point x="386" y="395" type="curve"/>
      <point x="376" y="395" type="line"/>
      <point x="370" y="368"/>
      <point x="362" y="345"/>
      <point x="300" y="345" type="curve" smooth="yes"/>
      <point x="250" y="345"/>
      <point x="187" y="371"/>
      <point x="108" y="371" type="curve" smooth="yes"/>
      <point x="45" y="371"/>
      <point x="20" y="319"/>
    </contour>
    <component base="f"/>
  </outline>
</glyph>
<glyph name="uni1D74" format="2">
  <advance width="495"/>
  <unicode hex="1D74"/>
  <outline>
    <contour>
      <point x="256" y="-10" type="curve" smooth="yes"/>
      <point x="355" y="-10"/>
      <point x="430" y="53"/>
      <point x="430" y="135" type="curve" smooth="yes"/>
      <point x="430" y="167"/>
      <point x="425" y="189"/>
      <point x="401" y="211" type="curve"/>
      <point x="455" y="232"/>
      <point x="478" y="269"/>
      <point x="476" y="312" type="curve"/>
      <point x="466" y="312" type="line"/>
      <point x="470" y="281"/>
      <point x="431" y="229"/>
      <point x="356" y="221" type="curve" smooth="yes"/>
      <point x="341" y="249"/>
      <point x="325" y="263"/>
      <point x="281" y="285" type="curve" smooth="yes"/>
      <point x="191" y="326"/>
      <point x="124" y="353"/>
      <point x="124" y="415" type="curve" smooth="yes"/>
      <point x="124" y="496"/>
      <point x="169" y="533"/>
      <point x="256" y="533" type="curve" smooth="yes"/>
      <point x="335" y="533"/>
      <point x="376" y="519"/>
      <point x="376" y="403" type="curve"/>
      <point x="387" y="403"/>
      <point x="408" y="423"/>
      <point x="408" y="452" type="curve" smooth="yes"/>
      <point x="408" y="465"/>
      <point x="384" y="543"/>
      <point x="263" y="543" type="curve" smooth="yes"/>
      <point x="162" y="543"/>
      <point x="96" y="492"/>
      <point x="96" y="425" type="curve" smooth="yes"/>
      <point x="96" y="380"/>
      <point x="110" y="350"/>
      <point x="147" y="325" type="curve"/>
      <point x="97" y="321"/>
      <point x="36" y="297"/>
      <point x="40" y="213" type="curve"/>
      <point x="50" y="213" type="line"/>
      <point x="44" y="281"/>
      <point x="102" y="303"/>
      <point x="157" y="303" type="curve" smooth="yes"/>
      <point x="198" y="303"/>
      <point x="235" y="280"/>
      <point x="294" y="245" type="curve" smooth="yes"/>
      <point x="386" y="194"/>
      <point x="402" y="184"/>
      <point x="402" y="141" type="curve" smooth="yes"/>
      <point x="402" y="68"/>
      <point x="355" y="0"/>
      <point x="256" y="0" type="curve" smooth="yes"/>
      <point x="172" y="0"/>
      <point x="118" y="35"/>
      <point x="118" y="127" type="curve"/>
      <point x="96" y="127"/>
      <point x="84" y="115"/>
      <point x="84" y="94" type="curve" smooth="yes"/>
      <point x="84" y="47"/>
      <point x="158" y="-10"/>
    </contour>
  </outline>
</glyph>
<glyph name="uni1D75" format="2">
  <advance width="343"/>
  <unicode hex="1D75"/>
  <anchor x="137" y="657" name="top"/>
  <anchor x="171" y="268" name="center"/>
  <anchor x="263" y="657" name="topright"/>
  <anchor x="171" y="0" name="bottom"/>
  <outline>
    <contour>
      <point x="-40" y="267" type="curve"/>
      <point x="-30" y="267" type="line"/>
      <point x="-25" y="295"/>
      <point x="-17" y="325"/>
      <point x="51" y="325" type="curve" smooth="yes"/>
      <point x="111" y="325"/>
      <point x="186" y="286"/>
      <point x="258" y="286" type="curve" smooth="yes"/>
      <point x="315" y="286"/>
      <point x="334" y="319"/>
      <point x="340" y="361" type="curve"/>
      <point x="330" y="361" type="line"/>
      <point x="324" y="334"/>
      <point x="313" y="313"/>
      <point x="251" y="313" type="curve" smooth="yes"/>
      <point x="194" y="313"/>
      <point x="130" y="352"/>
      <point x="50" y="352" type="curve" smooth="yes"/>
      <point x="-11" y="352"/>
      <point x="-35" y="299"/>
    </contour>
    <component base="t"/>
  </outline>
</glyph>
<glyph name="uni1D76" format="2">
  <advance width="603"/>
  <unicode hex="1D76"/>
  <anchor x="314" y="536" name="top"/>
  <anchor x="565" y="536" name="topright"/>
  <anchor x="314" y="0" name="bottom"/>
  <outline>
    <contour>
      <point x="121" y="221" type="curve"/>
      <point x="131" y="221" type="line"/>
      <point x="136" y="250"/>
      <point x="145" y="281"/>
      <point x="211" y="281" type="curve" smooth="yes"/>
      <point x="268" y="281"/>
      <point x="349" y="240"/>
      <point x="422" y="240" type="curve" smooth="yes"/>
      <point x="481" y="240"/>
      <point x="499" y="274"/>
      <point x="505" y="315" type="curve"/>
      <point x="495" y="315" type="line"/>
      <point x="489" y="284"/>
      <point x="475" y="265"/>
      <point x="418" y="265" type="curve" smooth="yes"/>
      <point x="364" y="265"/>
      <point x="294" y="306"/>
      <point x="211" y="306" type="curve" smooth="yes"/>
      <point x="151" y="306"/>
      <point x="126" y="256"/>
    </contour>
    <component base="z"/>
  </outline>
</glyph>
<glyph name="uni1D8C" format="2">
  <advance width="672"/>
  <unicode hex="1D8C"/>
  <outline>
    <contour>
      <point x="353" y="-199" type="curve" smooth="yes"/>
      <point x="438" y="-199"/>
      <point x="448" y="-126"/>
      <point x="448" y="-88" type="curve" smooth="yes"/>
      <point x="448" y="10" type="line"/>
      <point x="343" y="10" type="line"/>
      <point x="562" y="478" type="line" smooth="yes"/>
      <point x="583" y="523"/>
      <point x="582" y="526"/>
      <point x="652" y="526" type="curve" smooth="yes"/>
      <point x="662" y="526" type="line"/>
      <point x="662" y="536" type="line"/>
      <point x="459" y="536" type="line"/>
      <point x="459" y="526" type="line"/>
      <point x="508" y="526" type="line" smooth="yes"/>
      <point x="550" y="526"/>
      <point x="554" y="517"/>
      <point x="554" y="506" type="curve" smooth="yes"/>
      <point x="554" y="474"/>
      <point x="532" y="441"/>
      <point x="502" y="378" type="curve" smooth="yes"/>
      <point x="420" y="198" type="line" smooth="yes"/>
      <point x="376" y="104"/>
      <point x="348" y="43"/>
      <point x="337" y="20" type="curve"/>
      <point x="324" y="53"/>
      <point x="288" y="126"/>
      <point x="263" y="187" type="curve" smooth="yes"/>
      <point x="168" y="417" type="line" smooth="yes"/>
      <point x="156" y="445"/>
      <point x="133" y="482"/>
      <point x="133" y="502" type="curve" smooth="yes"/>
      <point x="133" y="515"/>
      <point x="133" y="526"/>
      <point x="179" y="526" type="curve" smooth="yes"/>
      <point x="216" y="526" type="line"/>
      <point x="216" y="536" type="line"/>
      <point x="13" y="536" type="line"/>
      <point x="13" y="526" type="line"/>
      <point x="85" y="526"/>
      <point x="87" y="529"/>
      <point x="109" y="478" type="curve" smooth="yes"/>
      <point x="323" y="0" type="line"/>
      <point x="438" y="0" type="line"/>
      <point x="438" y="-81" type="line" smooth="yes"/>
      <point x="438" y="-158"/>
      <point x="415" y="-176"/>
      <point x="363" y="-176" type="curve" smooth="yes"/>
      <point x="322" y="-176"/>
      <point x="314" y="-161"/>
      <point x="302" y="-161" type="curve"/>
      <point x="292" y="-163"/>
      <point x="288" y="-167"/>
      <point x="288" y="-174" type="curve" smooth="yes"/>
      <point x="288" y="-189"/>
      <point x="320" y="-199"/>
    </contour>
  </outline>
</glyph>
<glyph name="uni1D91" format="2">
  <advance width="704"/>
  <unicode hex="1D91"/>
  <outline>
    <contour>
      <point x="649" y="-240" type="curve" smooth="yes"/>
      <point x="676" y="-240"/>
      <point x="703" y="-241"/>
      <point x="730" y="-241" type="curve"/>
      <point x="730" y="-230" type="line"/>
      <point x="705" y="-231"/>
      <point x="681" y="-230"/>
      <point x="655" y="-230" type="curve" smooth="yes"/>
      <point x="579" y="-230"/>
      <point x="568" y="-204"/>
      <point x="568" y="-123" type="curve" smooth="yes"/>
      <point x="568" y="707" type="line" smooth="yes"/>
      <point x="568" y="757"/>
      <point x="629" y="756"/>
      <point x="658" y="756" type="curve" smooth="yes"/>
      <point x="678" y="756"/>
      <point x="727" y="764"/>
      <point x="751" y="712" type="curve"/>
      <point x="757" y="716"/>
      <point x="757" y="710"/>
      <point x="757" y="714" type="curve" smooth="yes"/>
      <point x="757" y="742"/>
      <point x="719" y="766"/>
      <point x="663" y="766" type="curve" smooth="yes"/>
      <point x="580" y="766"/>
      <point x="540" y="720"/>
      <point x="540" y="715" type="curve" smooth="yes"/>
      <point x="540" y="538" type="line" smooth="yes"/>
      <point x="540" y="507"/>
      <point x="540" y="466"/>
      <point x="541" y="381" type="curve"/>
      <point x="539" y="381" type="line"/>
      <point x="512" y="511"/>
      <point x="432" y="548"/>
      <point x="342" y="548" type="curve" smooth="yes"/>
      <point x="160" y="548"/>
      <point x="81" y="440"/>
      <point x="81" y="263" type="curve" smooth="yes"/>
      <point x="81" y="86"/>
      <point x="166" y="-10"/>
      <point x="319" y="-10" type="curve" smooth="yes"/>
      <point x="448" y="-10"/>
      <point x="514" y="81"/>
      <point x="537" y="169" type="curve"/>
      <point x="540" y="169" type="line"/>
      <point x="540" y="167"/>
      <point x="540" y="161"/>
      <point x="540" y="81" type="curve" smooth="yes"/>
      <point x="540" y="-95" type="line" smooth="yes"/>
      <point x="540" y="-190"/>
      <point x="557" y="-240"/>
    </contour>
    <contour>
      <point x="321" y="0" type="curve" smooth="yes"/>
      <point x="171" y="0"/>
      <point x="109" y="84"/>
      <point x="109" y="263" type="curve" smooth="yes"/>
      <point x="109" y="439"/>
      <point x="172" y="538"/>
      <point x="340" y="538" type="curve" smooth="yes"/>
      <point x="492" y="538"/>
      <point x="539" y="432"/>
      <point x="539" y="269" type="curve" smooth="yes"/>
      <point x="539" y="42"/>
      <point x="411" y="0"/>
    </contour>
  </outline>
</glyph>
<glyph name="uni1D9A" format="2">
  <advance width="507"/>
  <unicode hex="1D9A"/>
  <outline>
    <contour>
      <point x="133" y="-199" type="curve" smooth="yes"/>
      <point x="162" y="-199"/>
      <point x="202" y="-194"/>
      <point x="202" y="-172" type="curve" smooth="yes"/>
      <point x="202" y="-167"/>
      <point x="200" y="-153"/>
      <point x="173" y="-149" type="curve"/>
      <point x="168" y="-164"/>
      <point x="162" y="-176"/>
      <point x="125" y="-176" type="curve" smooth="yes"/>
      <point x="83" y="-176"/>
      <point x="52" y="-162"/>
      <point x="52" y="-112" type="curve" smooth="yes"/>
      <point x="52" y="62" type="line"/>
      <point x="84" y="-4"/>
      <point x="167" y="-12"/>
      <point x="233" y="-12" type="curve" smooth="yes"/>
      <point x="339" y="-12"/>
      <point x="455" y="37"/>
      <point x="455" y="155" type="curve" smooth="yes"/>
      <point x="455" y="218"/>
      <point x="421" y="294"/>
      <point x="244" y="296" type="curve"/>
      <point x="472" y="530" type="line"/>
      <point x="472" y="536" type="line"/>
      <point x="87" y="536" type="line"/>
      <point x="75" y="411" type="line"/>
      <point x="85" y="411" type="line"/>
      <point x="92" y="467" type="line" smooth="yes"/>
      <point x="99" y="507"/>
      <point x="120" y="521"/>
      <point x="158" y="521" type="curve" smooth="yes"/>
      <point x="450" y="521" type="line"/>
      <point x="219" y="284" type="line"/>
      <point x="219" y="267" type="line"/>
      <point x="251" y="267" type="line" smooth="yes"/>
      <point x="379" y="267"/>
      <point x="427" y="210"/>
      <point x="427" y="158" type="curve" smooth="yes"/>
      <point x="427" y="47"/>
      <point x="331" y="-4"/>
      <point x="230" y="-4" type="curve" smooth="yes"/>
      <point x="123" y="-4"/>
      <point x="67" y="43"/>
      <point x="67" y="117" type="curve"/>
      <point x="49" y="117"/>
      <point x="42" y="117"/>
      <point x="42" y="103" type="curve" smooth="yes"/>
      <point x="42" y="-101" type="line" smooth="yes"/>
      <point x="42" y="-133"/>
      <point x="52" y="-199"/>
    </contour>
  </outline>
</glyph>
<glyph name="macronacutecomb" format="2">
  <unicode hex="1DC4"/>
  <anchor x="13" y="536" name="_top"/>
  <anchor x="13" y="745" name="top"/>
  <outline>
    <contour>
      <point x="-149" y="660" type="line"/>
      <point x="50" y="660" type="line"/>
      <point x="191" y="718" type="line"/>
      <point x="183" y="737" type="line"/>
      <point x="48" y="680" type="line"/>
      <point x="-149" y="680" type="line"/>
    </contour>
  </outline>
</glyph>
<glyph name="acutemacron" format="2">
  <unicode hex="1DC7"/>
  <anchor x="-3" y="536" name="_top"/>
  <anchor x="-3" y="729" name="top"/>
  <outline>
    <contour>
      <point x="-170" y="650" type="line"/>
      <point x="-21" y="713" type="line"/>
      <point x="172" y="713" type="line"/>
      <point x="172" y="733" type="line"/>
      <point x="-27" y="733" type="line"/>
      <point x="-178" y="669" type="line"/>
    </contour>
  </outline>
</glyph>
<glyph name="Germandbls" format="2">
  <advance width="925"/>
  <unicode hex="1E9E"/>
  <anchor x="462" y="0" name="bottom"/>
  <anchor x="462" y="714" name="top"/>
  <outline>
    <contour>
      <point x="607" y="-10" type="curve" smooth="yes"/>
      <point x="746" y="-10"/>
      <point x="858" y="43"/>
      <point x="858" y="197" type="curve" smooth="yes"/>
      <point x="858" y="334"/>
      <point x="721" y="434"/>
      <point x="594" y="434" type="curve"/>
      <point x="753" y="569" type="line"/>
      <point x="731" y="652"/>
      <point x="622" y="724"/>
      <point x="486" y="724" type="curve" smooth="yes"/>
      <point x="341" y="724"/>
      <point x="215" y="680"/>
      <point x="215" y="500" type="curve" smooth="yes"/>
      <point x="215" y="98" type="line" smooth="yes"/>
      <point x="215" y="21"/>
      <point x="207" y="10"/>
      <point x="163" y="10" type="curve" smooth="yes"/>
      <point x="91" y="10" type="line"/>
      <point x="91" y="0" type="line"/>
      <point x="243" y="0" type="line"/>
      <point x="243" y="511" type="line" smooth="yes"/>
      <point x="243" y="603"/>
      <point x="298" y="714"/>
      <point x="466" y="714" type="curve" smooth="yes"/>
      <point x="567" y="714"/>
      <point x="709" y="688"/>
      <point x="727" y="560" type="curve"/>
      <point x="573" y="430" type="line"/>
      <point x="573" y="425" type="line"/>
      <point x="580" y="425" type="line" smooth="yes"/>
      <point x="698" y="425"/>
      <point x="836" y="379"/>
      <point x="836" y="193" type="curve" smooth="yes"/>
      <point x="836" y="70"/>
      <point x="750" y="-1"/>
      <point x="607" y="-1" type="curve" smooth="yes"/>
      <point x="483" y="-1"/>
      <point x="427" y="22"/>
      <point x="427" y="159" type="curve"/>
      <point x="395" y="155"/>
      <point x="384" y="135"/>
      <point x="384" y="111" type="curve" smooth="yes"/>
      <point x="384" y="28"/>
      <point x="474" y="-10"/>
    </contour>
  </outline>
</glyph>
<glyph name="V.middleWelsh" format="2">
  <advance width="662"/>
  <unicode hex="1EFC"/>
  <anchor x="331" y="0" name="bottom"/>
  <anchor x="331" y="714" name="top"/>
  <outline>
    <contour>
      <point x="332" y="-10" type="curve" smooth="yes"/>
      <point x="491" y="-10"/>
      <point x="592" y="80"/>
      <point x="592" y="220" type="curve" smooth="yes"/>
      <point x="592" y="340"/>
      <point x="511" y="424"/>
      <point x="401" y="424" type="curve" smooth="yes"/>
      <point x="371" y="424"/>
      <point x="305" y="419"/>
      <point x="305" y="397" type="curve" smooth="yes"/>
      <point x="305" y="386"/>
      <point x="312" y="381"/>
      <point x="326" y="382" type="curve"/>
      <point x="355" y="418"/>
      <point x="385" y="414"/>
      <point x="404" y="414" type="curve" smooth="yes"/>
      <point x="475" y="414"/>
      <point x="564" y="361"/>
      <point x="564" y="220" type="curve" smooth="yes"/>
      <point x="564" y="74"/>
      <point x="470" y="0"/>
      <point x="331" y="0" type="curve" smooth="yes"/>
      <point x="155" y="0"/>
      <point x="100" y="142"/>
      <point x="100" y="275" type="curve" smooth="yes"/>
      <point x="100" y="523"/>
      <point x="323" y="670"/>
      <point x="529" y="713" type="curve"/>
      <point x="529" y="724" type="line"/>
      <point x="276" y="664"/>
      <point x="72" y="501"/>
      <point x="72" y="270" type="curve" smooth="yes"/>
      <point x="72" y="76"/>
      <point x="181" y="-10"/>
    </contour>
  </outline>
</glyph>
<glyph name="uni1FC1" format="2">
  <advance width="260"/>
  <unicode hex="1FC1"/>
  <anchor x="129" y="536" name="_top"/>
  <outline>
    <contour>
      <point x="0" y="711" type="curve"/>
      <point x="10" y="711" type="line"/>
      <point x="14" y="733"/>
      <point x="13" y="759"/>
      <point x="69" y="759" type="curve" smooth="yes"/>
      <point x="105" y="759"/>
      <point x="159" y="723"/>
      <point x="201" y="723" type="curve" smooth="yes"/>
      <point x="238" y="723"/>
      <point x="261" y="753"/>
      <point x="257" y="795" type="curve"/>
      <point x="247" y="795" type="line"/>
      <point x="243" y="768"/>
      <point x="241" y="745"/>
      <point x="195" y="745" type="curve" smooth="yes"/>
      <point x="165" y="745"/>
      <point x="118" y="783"/>
      <point x="65" y="783" type="curve" smooth="yes"/>
      <point x="22" y="783"/>
      <point x="-4" y="744"/>
    </contour>
    <contour>
      <point x="37" y="599" type="curve" smooth="yes"/>
      <point x="47" y="599"/>
      <point x="56" y="606"/>
      <point x="56" y="643" type="curve" smooth="yes"/>
      <point x="56" y="677"/>
      <point x="47" y="685"/>
      <point x="37" y="685" type="curve" smooth="yes"/>
      <point x="28" y="685"/>
      <point x="17" y="677"/>
      <point x="17" y="643" type="curve" smooth="yes"/>
      <point x="17" y="606"/>
      <point x="28" y="599"/>
    </contour>
    <contour>
      <point x="226" y="599" type="curve" smooth="yes"/>
      <point x="237" y="599"/>
      <point x="245" y="605"/>
      <point x="245" y="643" type="curve" smooth="yes"/>
      <point x="245" y="678"/>
      <point x="237" y="685"/>
      <point x="226" y="685" type="curve" smooth="yes"/>
      <point x="217" y="685"/>
      <point x="207" y="678"/>
      <point x="207" y="643" type="curve" smooth="yes"/>
      <point x="207" y="605"/>
      <point x="217" y="599"/>
    </contour>
  </outline>
</glyph>
<glyph name="uni1FCE" format="2">
  <advance width="497"/>
  <unicode hex="1FCE"/>
  <anchor x="233" y="536" name="_top"/>
  <anchor x="233" y="730" name="top"/>
  <outline>
    <contour>
      <point x="112" y="547" type="line"/>
      <point x="186" y="572"/>
      <point x="203" y="597"/>
      <point x="203" y="661" type="curve" smooth="yes"/>
      <point x="203" y="709"/>
      <point x="187" y="730"/>
      <point x="165" y="730" type="curve" smooth="yes"/>
      <point x="142" y="730"/>
      <point x="131" y="716"/>
      <point x="131" y="691" type="curve" smooth="yes"/>
      <point x="131" y="638"/>
      <point x="187" y="669"/>
      <point x="187" y="621" type="curve" smooth="yes"/>
      <point x="187" y="605"/>
      <point x="166" y="573"/>
      <point x="112" y="559" type="curve"/>
    </contour>
    <contour>
      <point x="263" y="573" type="line"/>
      <point x="273" y="573" type="line"/>
      <point x="313" y="633"/>
      <point x="339" y="670"/>
      <point x="352" y="701" type="curve"/>
      <point x="352" y="713" type="line"/>
      <point x="302" y="713" type="line"/>
      <point x="297" y="675"/>
      <point x="288" y="636"/>
      <point x="263" y="588" type="curve"/>
    </contour>
  </outline>
</glyph>
<glyph name="uni1FEF" format="2">
  <unicode hex="1FEF"/>
  <anchor x="-177" y="536" name="_top"/>
  <anchor x="-177" y="760" name="top"/>
  <outline>
    <contour>
      <point x="-146" y="652" type="curve"/>
      <point x="-130" y="652" type="line"/>
      <point x="-130" y="649" type="line"/>
      <point x="-153" y="691"/>
      <point x="-165" y="706"/>
      <point x="-198" y="760" type="curve"/>
      <point x="-228" y="760" type="line"/>
      <point x="-228" y="752" type="line"/>
      <point x="-199" y="715"/>
      <point x="-178" y="696"/>
    </contour>
  </outline>
</glyph>
<glyph name="quotereversed" format="2">
  <advance width="256"/>
  <unicode hex="201B"/>
  <outline>
    <contour>
      <point x="140" y="512" type="curve"/>
      <point x="140" y="523" type="line"/>
      <point x="90" y="528"/>
      <point x="50" y="600"/>
      <point x="50" y="629" type="curve" smooth="yes"/>
      <point x="50" y="641"/>
      <point x="93" y="658"/>
      <point x="93" y="679" type="curve" smooth="yes"/>
      <point x="93" y="704"/>
      <point x="83" y="714"/>
      <point x="69" y="714" type="curve" smooth="yes"/>
      <point x="45" y="714"/>
      <point x="30" y="698"/>
      <point x="30" y="656" type="curve" smooth="yes"/>
      <point x="30" y="599"/>
      <point x="69" y="527"/>
    </contour>
  </outline>
</glyph>
<glyph name="perthousand" format="2">
  <advance width="1472"/>
  <unicode hex="2030"/>
  <outline>
    <contour>
      <point x="284" y="0" type="line"/>
      <point x="298" y="0" type="line"/>
      <point x="754" y="714" type="line"/>
      <point x="740" y="714" type="line"/>
    </contour>
    <contour>
      <point x="221" y="280" type="curve" smooth="yes"/>
      <point x="323" y="280"/>
      <point x="365" y="379"/>
      <point x="365" y="503" type="curve" smooth="yes"/>
      <point x="365" y="625"/>
      <point x="324" y="724"/>
      <point x="222" y="724" type="curve" smooth="yes"/>
      <point x="120" y="724"/>
      <point x="75" y="627"/>
      <point x="75" y="503" type="curve" smooth="yes"/>
      <point x="75" y="384"/>
      <point x="117" y="280"/>
    </contour>
    <contour>
      <point x="221" y="290" type="curve" smooth="yes"/>
      <point x="145" y="290"/>
      <point x="103" y="351"/>
      <point x="103" y="503" type="curve" smooth="yes"/>
      <point x="103" y="654"/>
      <point x="143" y="714"/>
      <point x="219" y="714" type="curve" smooth="yes"/>
      <point x="292" y="714"/>
      <point x="337" y="654"/>
      <point x="337" y="503" type="curve" smooth="yes"/>
      <point x="337" y="351"/>
      <point x="294" y="290"/>
    </contour>
    <contour>
      <point x="816" y="-10" type="curve" smooth="yes"/>
      <point x="918" y="-10"/>
      <point x="960" y="89"/>
      <point x="960" y="213" type="curve" smooth="yes"/>
      <point x="960" y="335"/>
      <point x="919" y="434"/>
      <point x="817" y="434" type="curve" smooth="yes"/>
      <point x="715" y="434"/>
      <point x="670" y="337"/>
      <point x="670" y="213" type="curve" smooth="yes"/>
      <point x="670" y="94"/>
      <point x="712" y="-10"/>
    </contour>
    <contour>
      <point x="816" y="0" type="curve" smooth="yes"/>
      <point x="740" y="0"/>
      <point x="698" y="61"/>
      <point x="698" y="213" type="curve" smooth="yes"/>
      <point x="698" y="364"/>
      <point x="738" y="424"/>
      <point x="814" y="424" type="curve" smooth="yes"/>
      <point x="887" y="424"/>
      <point x="932" y="364"/>
      <point x="932" y="213" type="curve" smooth="yes"/>
      <point x="932" y="61"/>
      <point x="889" y="0"/>
    </contour>
    <contour>
      <point x="1252" y="-10" type="curve" smooth="yes"/>
      <point x="1354" y="-10"/>
      <point x="1396" y="89"/>
      <point x="1396" y="213" type="curve" smooth="yes"/>
      <point x="1396" y="335"/>
      <point x="1355" y="434"/>
      <point x="1253" y="434" type="curve" smooth="yes"/>
      <point x="1151" y="434"/>
      <point x="1106" y="337"/>
      <point x="1106" y="213" type="curve" smooth="yes"/>
      <point x="1106" y="94"/>
      <point x="1148" y="-10"/>
    </contour>
    <contour>
      <point x="1252" y="0" type="curve" smooth="yes"/>
      <point x="1176" y="0"/>
      <point x="1134" y="61"/>
      <point x="1134" y="213" type="curve" smooth="yes"/>
      <point x="1134" y="364"/>
      <point x="1174" y="424"/>
      <point x="1250" y="424" type="curve" smooth="yes"/>
      <point x="1323" y="424"/>
      <point x="1368" y="364"/>
      <point x="1368" y="213" type="curve" smooth="yes"/>
      <point x="1368" y="61"/>
      <point x="1325" y="0"/>
    </contour>
  </outline>
</glyph>
<glyph name="referencemark" format="2">
  <advance width="1018"/>
  <unicode hex="203B"/>
  <outline>
    <contour>
      <point x="121" y="25" type="line"/>
      <point x="509" y="352" type="line"/>
      <point x="903" y="23" type="line"/>
      <point x="914" y="33" type="line"/>
      <point x="524" y="362" type="line"/>
      <point x="914" y="688" type="line"/>
      <point x="903" y="700" type="line"/>
      <point x="508" y="371" type="line"/>
      <point x="116" y="698" type="line"/>
      <point x="105" y="686" type="line"/>
      <point x="497" y="362" type="line"/>
      <point x="108" y="37" type="line"/>
    </contour>
    <contour>
      <point x="504" y="0" type="curve" smooth="yes"/>
      <point x="517" y="0"/>
      <point x="536" y="6"/>
      <point x="536" y="41" type="curve" smooth="yes"/>
      <point x="536" y="73"/>
      <point x="517" y="77"/>
      <point x="504" y="77" type="curve" smooth="yes"/>
      <point x="495" y="77"/>
      <point x="475" y="73"/>
      <point x="475" y="41" type="curve" smooth="yes"/>
      <point x="475" y="6"/>
      <point x="495" y="0"/>
    </contour>
    <contour>
      <point x="107" y="317" type="curve" smooth="yes"/>
      <point x="120" y="317"/>
      <point x="139" y="323"/>
      <point x="139" y="358" type="curve" smooth="yes"/>
      <point x="139" y="391"/>
      <point x="120" y="395"/>
      <point x="107" y="395" type="curve" smooth="yes"/>
      <point x="98" y="395"/>
      <point x="78" y="391"/>
      <point x="78" y="358" type="curve" smooth="yes"/>
      <point x="78" y="323"/>
      <point x="98" y="317"/>
    </contour>
    <contour>
      <point x="271" y="945" type="curve" smooth="yes"/>
      <point x="284" y="945"/>
      <point x="303" y="951"/>
      <point x="303" y="986" type="curve" smooth="yes"/>
      <point x="303" y="1019"/>
      <point x="284" y="1023"/>
      <point x="271" y="1023" type="curve" smooth="yes"/>
      <point x="262" y="1023"/>
      <point x="242" y="1019"/>
      <point x="242" y="986" type="curve" smooth="yes"/>
      <point x="242" y="951"/>
      <point x="262" y="945"/>
    </contour>
    <contour>
      <point x="1142" y="-1" type="curve" smooth="yes"/>
      <point x="1155" y="-1"/>
      <point x="1174" y="5"/>
      <point x="1174" y="40" type="curve" smooth="yes"/>
      <point x="1174" y="72"/>
      <point x="1155" y="76"/>
      <point x="1142" y="76" type="curve" smooth="yes"/>
      <point x="1133" y="76"/>
      <point x="1113" y="72"/>
      <point x="1113" y="40" type="curve" smooth="yes"/>
      <point x="1113" y="5"/>
      <point x="1133" y="-1"/>
    </contour>
  </outline>
</glyph>
<glyph name="fraction" format="2">
  <advance width="76"/>
  <unicode hex="2044"/>
  <outline>
    <contour>
      <point x="-221" y="0" type="line"/>
      <point x="-210" y="0" type="line"/>
      <point x="298" y="714" type="line"/>
      <point x="287" y="714" type="line"/>
    </contour>
  </outline>
</glyph>
<glyph name="tironiansignet" format="2">
  <advance width="585"/>
  <unicode hex="204A"/>
  <outline>
    <contour>
      <point x="295" y="-177" type="line"/>
      <point x="295" y="-177" type="line"/>
      <point x="481" y="537" type="line"/>
      <point x="481" y="552" type="line"/>
      <point x="515" y="559"/>
      <point x="355" y="529"/>
      <point x="215" y="529" type="curve" smooth="yes"/>
      <point x="84" y="529"/>
      <point x="71" y="556"/>
      <point x="64" y="564" type="curve"/>
      <point x="63" y="562"/>
      <point x="59" y="553"/>
      <point x="59" y="544" type="curve" smooth="yes"/>
      <point x="59" y="532"/>
      <point x="56" y="498"/>
      <point x="178" y="498" type="curve" smooth="yes"/>
      <point x="265" y="498"/>
      <point x="422" y="515"/>
      <point x="479" y="525" type="curve"/>
    </contour>
  </outline>
</glyph>
<glyph name="reversedparagraph" format="2">
  <advance width="749"/>
  <unicode hex="204B"/>
  <outline>
    <contour>
      <point x="45" y="-111" type="line"/>
      <point x="191" y="-111" type="line"/>
      <point x="191" y="750" type="line"/>
      <point x="385" y="750" type="line"/>
      <point x="385" y="-111" type="line"/>
      <point x="531" y="-111" type="line"/>
      <point x="531" y="-101" type="line"/>
      <point x="480" y="-101" type="line" smooth="yes"/>
      <point x="455" y="-101"/>
      <point x="413" y="-84"/>
      <point x="413" y="-63" type="curve" smooth="yes"/>
      <point x="413" y="386" type="line"/>
      <point x="523" y="386" type="line" smooth="yes"/>
      <point x="646" y="386"/>
      <point x="691" y="478"/>
      <point x="691" y="582" type="curve" smooth="yes"/>
      <point x="691" y="689"/>
      <point x="638" y="760"/>
      <point x="521" y="760" type="curve" smooth="yes"/>
      <point x="45" y="760" type="line"/>
      <point x="45" y="750" type="line"/>
      <point x="65" y="750" type="line" smooth="yes"/>
      <point x="95" y="750"/>
      <point x="163" y="738"/>
      <point x="163" y="682" type="curve" smooth="yes"/>
      <point x="163" y="-47" type="line" smooth="yes"/>
      <point x="163" y="-85"/>
      <point x="131" y="-101"/>
      <point x="87" y="-101" type="curve" smooth="yes"/>
      <point x="45" y="-101" type="line"/>
    </contour>
  </outline>
</glyph>
<glyph name="fourdotpunctuation" format="2">
  <advance width="754"/>
  <unicode hex="2058"/>
  <outline>
    <contour>
      <point x="381" y="468" type="curve" smooth="yes"/>
      <point x="394" y="468"/>
      <point x="413" y="474"/>
      <point x="413" y="509" type="curve" smooth="yes"/>
      <point x="413" y="541"/>
      <point x="394" y="545"/>
      <point x="381" y="545" type="curve" smooth="yes"/>
      <point x="372" y="545"/>
      <point x="352" y="541"/>
      <point x="352" y="509" type="curve" smooth="yes"/>
      <point x="352" y="474"/>
      <point x="372" y="468"/>
    </contour>
    <contour>
      <point x="381" y="-6" type="curve" smooth="yes"/>
      <point x="394" y="-6"/>
      <point x="413" y="0"/>
      <point x="413" y="35" type="curve" smooth="yes"/>
      <point x="413" y="67"/>
      <point x="394" y="71"/>
      <point x="381" y="71" type="curve" smooth="yes"/>
      <point x="372" y="71"/>
      <point x="352" y="67"/>
      <point x="352" y="35" type="curve" smooth="yes"/>
      <point x="352" y="0"/>
      <point x="372" y="-6"/>
    </contour>
    <contour>
      <point x="169" y="234" type="curve" smooth="yes"/>
      <point x="182" y="234"/>
      <point x="201" y="240"/>
      <point x="201" y="275" type="curve" smooth="yes"/>
      <point x="201" y="307"/>
      <point x="182" y="311"/>
      <point x="169" y="311" type="curve" smooth="yes"/>
      <point x="160" y="311"/>
      <point x="140" y="307"/>
      <point x="140" y="275" type="curve" smooth="yes"/>
      <point x="140" y="240"/>
      <point x="160" y="234"/>
    </contour>
    <contour>
      <point x="583" y="234" type="curve" smooth="yes"/>
      <point x="596" y="234"/>
      <point x="615" y="240"/>
      <point x="615" y="275" type="curve" smooth="yes"/>
      <point x="615" y="307"/>
      <point x="596" y="311"/>
      <point x="583" y="311" type="curve" smooth="yes"/>
      <point x="574" y="311"/>
      <point x="554" y="307"/>
      <point x="554" y="275" type="curve" smooth="yes"/>
      <point x="554" y="240"/>
      <point x="574" y="234"/>
    </contour>
  </outline>
</glyph>
